<mxfile host="65bd71144e" pages="4">
    <diagram name="Option-1" id="JT_gpP-8LehraV-Nnan5">
        <mxGraphModel dx="1020" dy="539" grid="1" gridSize="10" guides="1" tooltips="1" connect="1" arrows="1" fold="1" page="1" pageScale="1" pageWidth="850" pageHeight="1100" math="0" shadow="0">
            <root>
                <mxCell id="0"/>
                <mxCell id="1" parent="0"/>
                <mxCell id="f0Uy7Sru9IjzwW2vOenZ-13" value="" style="rounded=0;whiteSpace=wrap;html=1;" parent="1" vertex="1">
                    <mxGeometry x="140" y="350" width="400" height="100" as="geometry"/>
                </mxCell>
                <mxCell id="drDxPkejEHpZzhf0qtoJ-3" value="Trigger every 5 min" style="edgeStyle=orthogonalEdgeStyle;rounded=0;orthogonalLoop=1;jettySize=auto;html=1;" parent="1" source="drDxPkejEHpZzhf0qtoJ-1" target="drDxPkejEHpZzhf0qtoJ-2" edge="1">
                    <mxGeometry relative="1" as="geometry"/>
                </mxCell>
                <mxCell id="drDxPkejEHpZzhf0qtoJ-1" value="" style="verticalLabelPosition=bottom;html=1;verticalAlign=top;align=center;strokeColor=none;fillColor=#00BEF2;shape=mxgraph.azure.scheduler;pointerEvents=1;" parent="1" vertex="1">
                    <mxGeometry x="320" y="30" width="40" height="50" as="geometry"/>
                </mxCell>
                <mxCell id="tZdRpEAsUNpC-We-Q86Q-2" value="" style="edgeStyle=none;html=1;" parent="1" source="drDxPkejEHpZzhf0qtoJ-2" target="tZdRpEAsUNpC-We-Q86Q-1" edge="1">
                    <mxGeometry relative="1" as="geometry"/>
                </mxCell>
                <mxCell id="drDxPkejEHpZzhf0qtoJ-2" value="&lt;div&gt;&lt;br&gt;&lt;/div&gt;&lt;div&gt;&lt;br&gt;&lt;/div&gt;File Size &amp;gt;3 MB&amp;nbsp;" style="rhombus;whiteSpace=wrap;html=1;verticalAlign=top;fillColor=#647687;strokeColor=#314354;pointerEvents=1;fontColor=#ffffff;" parent="1" vertex="1">
                    <mxGeometry x="250" y="120" width="180" height="80" as="geometry"/>
                </mxCell>
                <mxCell id="tZdRpEAsUNpC-We-Q86Q-6" value="" style="edgeStyle=none;html=1;" parent="1" edge="1">
                    <mxGeometry relative="1" as="geometry">
                        <mxPoint x="340" y="325" as="sourcePoint"/>
                        <mxPoint x="340" y="350" as="targetPoint"/>
                    </mxGeometry>
                </mxCell>
                <mxCell id="tZdRpEAsUNpC-We-Q86Q-1" value="&lt;br&gt;File modified (or) &lt;br&gt;Created &amp;amp;&amp;amp; Not splitted&amp;nbsp;&lt;div&gt;&lt;/div&gt;" style="rhombus;whiteSpace=wrap;html=1;verticalAlign=top;pointerEvents=1;fillColor=#76608a;strokeColor=#432D57;fontColor=#ffffff;" parent="1" vertex="1">
                    <mxGeometry x="250" y="240" width="180" height="85" as="geometry"/>
                </mxCell>
                <mxCell id="f0Uy7Sru9IjzwW2vOenZ-12" value="" style="group;strokeColor=none;" parent="1" vertex="1" connectable="0">
                    <mxGeometry x="160" y="360" width="370" height="81" as="geometry"/>
                </mxCell>
                <mxCell id="f0Uy7Sru9IjzwW2vOenZ-1" value="" style="group" parent="f0Uy7Sru9IjzwW2vOenZ-12" vertex="1" connectable="0">
                    <mxGeometry x="290" width="80" height="60" as="geometry"/>
                </mxCell>
                <mxCell id="f0Uy7Sru9IjzwW2vOenZ-2" value="" style="dashed=0;outlineConnect=0;html=1;align=center;labelPosition=center;verticalLabelPosition=bottom;verticalAlign=top;shape=mxgraph.webicons.adobe_pdf;fillColor=#F40C0C;gradientColor=#610603" parent="f0Uy7Sru9IjzwW2vOenZ-1" vertex="1">
                    <mxGeometry x="40" width="40" height="40" as="geometry"/>
                </mxCell>
                <mxCell id="f0Uy7Sru9IjzwW2vOenZ-11" value="" style="group" parent="f0Uy7Sru9IjzwW2vOenZ-1" vertex="1" connectable="0">
                    <mxGeometry y="10" width="60" height="50" as="geometry"/>
                </mxCell>
                <mxCell id="f0Uy7Sru9IjzwW2vOenZ-3" value="" style="dashed=0;outlineConnect=0;html=1;align=center;labelPosition=center;verticalLabelPosition=bottom;verticalAlign=top;shape=mxgraph.webicons.adobe_pdf;fillColor=#F40C0C;gradientColor=#610603" parent="f0Uy7Sru9IjzwW2vOenZ-11" vertex="1">
                    <mxGeometry x="20" width="40" height="40" as="geometry"/>
                </mxCell>
                <mxCell id="f0Uy7Sru9IjzwW2vOenZ-4" value="" style="dashed=0;outlineConnect=0;html=1;align=center;labelPosition=center;verticalLabelPosition=bottom;verticalAlign=top;shape=mxgraph.webicons.adobe_pdf;fillColor=#F40C0C;gradientColor=#610603" parent="f0Uy7Sru9IjzwW2vOenZ-11" vertex="1">
                    <mxGeometry y="10" width="40" height="40" as="geometry"/>
                </mxCell>
                <mxCell id="f0Uy7Sru9IjzwW2vOenZ-6" style="edgeStyle=none;html=1;fontSize=11;flowAnimation=1;" parent="f0Uy7Sru9IjzwW2vOenZ-12" source="f0Uy7Sru9IjzwW2vOenZ-7" edge="1">
                    <mxGeometry relative="1" as="geometry">
                        <mxPoint x="290" y="35" as="targetPoint"/>
                    </mxGeometry>
                </mxCell>
                <mxCell id="f0Uy7Sru9IjzwW2vOenZ-7" value="" style="verticalLabelPosition=bottom;sketch=0;aspect=fixed;html=1;verticalAlign=top;strokeColor=none;align=center;outlineConnect=0;shape=mxgraph.citrix.process;fontSize=11;" parent="f0Uy7Sru9IjzwW2vOenZ-12" vertex="1">
                    <mxGeometry x="139" y="8" width="52" height="62" as="geometry"/>
                </mxCell>
                <mxCell id="f0Uy7Sru9IjzwW2vOenZ-8" value="&lt;span style=&quot;font-size: 12px;&quot;&gt;Split process&lt;/span&gt;" style="text;align=center;html=1;verticalAlign=middle;whiteSpace=wrap;rounded=0;fontSize=11;fillColor=none;fontColor=#000000;" parent="f0Uy7Sru9IjzwW2vOenZ-12" vertex="1">
                    <mxGeometry x="120" y="60" width="90" height="30" as="geometry"/>
                </mxCell>
                <mxCell id="f0Uy7Sru9IjzwW2vOenZ-10" value="" style="dashed=0;outlineConnect=0;html=1;align=center;labelPosition=center;verticalLabelPosition=bottom;verticalAlign=top;shape=mxgraph.webicons.adobe_pdf;fillColor=#F40C0C;gradientColor=#610603" parent="f0Uy7Sru9IjzwW2vOenZ-12" vertex="1">
                    <mxGeometry y="19" width="40" height="40" as="geometry"/>
                </mxCell>
                <mxCell id="f0Uy7Sru9IjzwW2vOenZ-5" style="edgeStyle=none;html=1;fontSize=11;startArrow=none;flowAnimation=1;" parent="f0Uy7Sru9IjzwW2vOenZ-12" source="f0Uy7Sru9IjzwW2vOenZ-10" target="f0Uy7Sru9IjzwW2vOenZ-7" edge="1">
                    <mxGeometry relative="1" as="geometry"/>
                </mxCell>
            </root>
        </mxGraphModel>
    </diagram>
    <diagram id="VeLervoLP4v0lw18KB_y" name="Option-2">
        <mxGraphModel dx="623" dy="497" grid="1" gridSize="10" guides="1" tooltips="1" connect="1" arrows="1" fold="1" page="1" pageScale="1" pageWidth="850" pageHeight="1100" math="0" shadow="0">
            <root>
                <mxCell id="0"/>
                <mxCell id="1" parent="0"/>
                <mxCell id="7DJwyTh2OzJJXSj787ry-37" value="" style="dashed=0;outlineConnect=0;html=1;align=center;labelPosition=center;verticalLabelPosition=bottom;verticalAlign=top;shape=mxgraph.webicons.adobe_pdf;fillColor=#F40C0C;gradientColor=#610603" parent="1" vertex="1">
                    <mxGeometry x="180" y="217.5" width="40" height="40" as="geometry"/>
                </mxCell>
                <mxCell id="7DJwyTh2OzJJXSj787ry-38" style="edgeStyle=none;html=1;flowAnimation=1;" parent="1" edge="1">
                    <mxGeometry relative="1" as="geometry">
                        <mxPoint x="90" y="237.56805807622504" as="sourcePoint"/>
                        <mxPoint x="300" y="238.52087114337564" as="targetPoint"/>
                    </mxGeometry>
                </mxCell>
                <mxCell id="7DJwyTh2OzJJXSj787ry-39" value="Permissions" style="outlineConnect=0;dashed=0;verticalLabelPosition=bottom;verticalAlign=top;align=center;html=1;fontSize=12;fontStyle=0;aspect=fixed;shape=mxgraph.aws4.resourceIcon;resIcon=mxgraph.aws4.permissions;" parent="1" vertex="1">
                    <mxGeometry x="10" y="240" width="60" height="60" as="geometry"/>
                </mxCell>
                <mxCell id="7DJwyTh2OzJJXSj787ry-40" value="" style="shape=actor;whiteSpace=wrap;html=1;" parent="1" vertex="1">
                    <mxGeometry x="50" y="207.5" width="40" height="62.5" as="geometry"/>
                </mxCell>
                <mxCell id="7DJwyTh2OzJJXSj787ry-41" style="edgeStyle=none;html=1;fontSize=11;exitX=0.414;exitY=-0.018;exitDx=0;exitDy=0;exitPerimeter=0;flowAnimation=1;" parent="1" source="7DJwyTh2OzJJXSj787ry-43" target="7DJwyTh2OzJJXSj787ry-46" edge="1">
                    <mxGeometry relative="1" as="geometry">
                        <mxPoint x="510" y="600" as="targetPoint"/>
                        <Array as="points">
                            <mxPoint x="524" y="160"/>
                            <mxPoint x="329" y="160"/>
                        </Array>
                    </mxGeometry>
                </mxCell>
                <mxCell id="7DJwyTh2OzJJXSj787ry-42" value="Uploads &lt;br&gt;splitted files" style="edgeLabel;html=1;align=center;verticalAlign=middle;resizable=0;points=[];fontSize=11;" parent="7DJwyTh2OzJJXSj787ry-41" vertex="1" connectable="0">
                    <mxGeometry x="-0.1421" relative="1" as="geometry">
                        <mxPoint as="offset"/>
                    </mxGeometry>
                </mxCell>
                <mxCell id="7DJwyTh2OzJJXSj787ry-67" style="edgeStyle=none;html=1;fontSize=11;flowAnimation=1;dashed=1;dashPattern=8 8;" parent="1" source="7DJwyTh2OzJJXSj787ry-43" target="7DJwyTh2OzJJXSj787ry-49" edge="1">
                    <mxGeometry relative="1" as="geometry"/>
                </mxCell>
                <mxCell id="7DJwyTh2OzJJXSj787ry-43" value="" style="shape=image;verticalLabelPosition=bottom;labelBackgroundColor=default;verticalAlign=top;aspect=fixed;imageAspect=0;image=data:image/png,iVBORw0KGgoAAAANSUhEUgAAANMAAACkCAYAAAANIBugAAAAAXNSR0IArs4c6QAAAARnQU1BAACxjwv8YQUAAAAJcEhZcwAADsMAAA7DAcdvqGQAAGUJSURBVHhe7b0JlCRHmSZo4eFxXxkRedelKh2F7lvoQAegAyGJQ4hLPdDAQE8vsz3v7Zvdt7v99m2/3p1zt9/s9DE7PWw3TTcSIHEIEEig1gFIIERzCZ0IVZXqvrKyKq84/djv+80twiMyMiuzKqsqM0tf5h/ubm5ubvbb/9v/m7m5uXoTb+JNLA0iwXYW/vJru27avmvsfbv2jF/U8GMZK5ZUXoTRfTmvL+S+Pib8iBfs4Xw7uAuW/Ppdd4600jYX8rgrUnCtQfc9Il73TXV6Ou1O6LDZ93BD5RH4vfPbgmQCxH+/fa3Pv9Dx/Ogs10IQTtuS3fl5b8l55glbELc++MU/XsviWS1eICzSUFak0RgeyL160YXnPPSZd69/JDj5JubALBH59/e9dMuzz/3ujq1vTFziqOx5kVimr+lHLA8x29U1G1ItulY1ZgmhERiTSiRQzuAYuzpqD0mYBUsLUEh5eezNIbwREZNWRgAcReYQ4G6FDO4xd+NA8CQFtTPSXPnpQMCnxaF9L5aqXbK589rmly+K1azXlee6ciyEumilg3iOW1H1xrgaGspV3nL2xpfO3rTmhYvPW/+lj15X/kEQ6010ocW/R35Tu+m7j/303h8888Jbxo/Y58dTQ7loot+qN62oG4kqL6qj6paMzA+ohQgqGNSuWUHr2AiNXANqKZs+bluP4PxR0HUbDShCz3CmLSfwIxmCenUrk7ml73alsRBl0uhWpoVbpsWDlkXyGbqFlKzrlq1j2fFEkZRHgg3m1vBbWKNLLh5GpKYidk2NrhlQQ4NlN5uy6km79vCVl575t39088g/SsQ30QHh3suT/tv+3X/67h/89LnXbo+lh7O1ZjbWVNmoF8nA7YmDomCwpetNWje0aBEXlsXUFCFVqXfnRVB5LUulwaQ6r0ZLKYIP9Q3u4wVWIoywMaRCzpULyrUR7qPJeDhNndeF4ZiUqUeZ2i7oXOi0ghKTh+SXCQ+SNfF0igyEQiGMJOnwQvCXl6JGlQMlc9ymSqVtdcbGIdU/MqCS2axqwFI1q+NTmXjjkcveMvzXuPiZ//2OtQ62byKA1MO/+fJLf/WVbz79sYNjbjqWHrJVtKjg4gWKFIMQ22C5RMUVbWXSNdiNbrelW1j0sVaUIE2AaqDD2oiI9TLK5AfKa47DV2tEu0IYzYSI2MhlZrvEQKKdyfI+C71RJ48Wq0yEFVh641pK/xH81IeBFcPWuHuahfzR5CKsDiWiMqXSKdU/2Kc2blqrkvmsatoxVW1UVCzaUI3pfdXhTOPbF20a+rtU3H7if7xl6E2FCiA18PiPnjtzbNrLJPqGbcfKqIZKKSeSBCVEkTxYJfaZjBBrhCucWybVrUiLQDhpQTjtXtvZmJVEGC1Fnfv640LgIi0rBI2P3lJhoYTSGOqtIc+CRfIdaawS6aQqDw+ogdE1KpLOqjrqv+JGIBNoUO2kiiRyqUMz6t2vbN33+33p9Dsf/LVjI8E3AYj0b9k1FndjOWWlSsqx0qJEjlglkFglVggrQVeEBoWHxCQCQWLrGCaB2RrwmBQWPpOWQa/j8LY7zZWOE1GeQIEC5ekkXZdGkWSLPzseVeXBshpdN6IK/QU103TVVL2paq4LWYioSpPxk8qP53KHKurOp3/x2meOHJl6530/nUkhwdMeuhajGRVNFsEsC0xLwlWIwz1ggxMF7/WAKc9ExLVjRQCiMDyvKeKBGDdMXkAd4ahf1meQqibudx3TkiB++1ybdBo4101yntteFJwz6fYkuEUwwcdK7TSwaR0vgATcBoQ0qAPdRD2g2yYDPbyn7NPlQ63ghyRD3i3iMXpCoWP8CjWcuqo3a+gL1VUTf7FUTPX1F1V5qKxi2bRqwhtxYG0d8E27jhHl4p4uLJRLryWaze061Lz1V68f+P1px7vp6y/7OUQ6rSE1GUvo/pHjWKhHKpEN1mnBZwTTcRUytSrgWSiTkCTVhSCsJTAE90kU7gWAwi8Ib+e6dr40u9PphfnOnUQY9nbDhLe2yK/wJ3wB99vH4lWYY2nFYF1Yh1G67h6UqSH9pXwpr4ZhkfJQqEgsqmpOE9UGpY5y5JM9Zva3dF/L99mPhgcT78ttP1i/81ev7f3kjoPj73jgVee0ViiRch/C7kk3Uj+REXFHa6SVSFsjVgr7TFI5gcyRsZoYYGgOSCscOm8EwdB81xp0xO1BOCetdk/C6WC/57VLSouE4Y0hphE+7g7vuJcpH2qGlkf2GY4zKDMHHLjVP6xD/qJWYbE42GDZlsoWcqo0NKBKg/3KTsHFR3jDaSgLF9MjgY3C5U2kBe+Ejx+QiKdiKpKEK6iSuZ2Hqu98acuBj+7eM3bD11+pnLYKJcqkXAe2xQyZku+a8agW2UoFBJUg9SdxeNANXYlzo/s8jw0tBOG44WsD0tntIK1EpOC8oOu6JafFgwIaptlpBue6wgQsHzeoFGnsTID+gXsehAlpD8Np1iW8UCqp4dERlesryCBTAxapCaWhkvE8HbuI7ygLCib+K6+ORKUv7UTQHYhnVcVNlHbtn3771p1jHz50ePqG77/RKEnE0wyiTEnLGVfNqhdnAwkTpX1r3SbxGRMHVnVVhCpQwFaKocb1IxFm3xwDrFCpVA2dklbYltIirRbxD+6HUBAWETcjfNxJJrxFoT9EaDUItLNz0aw0jkq4CsLXJvAC4Z3EsDDNPk8esmxz5W6uNJgHgfCJwwRBOqCIHOv0JV845wVWh8YwCwUaGhlWA0NDKp5KqlqzqepoWOmLRCy4/EwfKYiWse/LxyQgJxIQ+08ckLAzqubGBw+M12/bsnPiY2/smb7xezv8QcnXaQRRpk3rBn/q1SZ2efVpF22OSLquQi3msg2GfqXq9K5sRBmkQucig9nHcm1AHacErEj910ZXGuawK9ig12mjUHNR79BFkAh5V3B3QNeh8M/wUAS48691DhRuPBhu6kDfV08VIpkGrt3QsUZ91XRheWB9soWCGhweVoW+ooolU5CEKJTDF0XSdc9rYAepSGhQ2Zf22bCKVdLExyauj/BIQkXjeTVViw7u3DdzC5Tpwzv3TF/3+E7/tLJQokyXXHDmN4dL1gtu5UAzHuETBZh1adXQkYpgS4tC3iKE4K55kIpa1aRDO8PCdFQwztFofkgsCNR8hB8d+URhzrJzG+x3nddc1dDK0RtyDpeIK460jBUSCyRbnAiskFEiqScQR/TqgUVKZTNqENao3D+g4lAkF1EdF3F5BzSanLeoe84mNzqccynZqOrU9T7P8TmkH42JlZqq+aVd+yZu2bZz/COv/O7QWYhw2kCU6d9+6oItb73sjB8NleyX42q6GvWnoVA1nOTM4WbAOs3WMMh+89cSFgoHKlUqNhweYG55DsedizQC+ZgFURhuj0InHr3uOh/NjTDfDUt1o0Dl0QRN0QMDMudOx6Py8E/zBBYJ7jv7Q/FkUg3BIpUHB1Uyk5FRvSafI8k8PX231h/SET7zdtgQZktIyriESiZTzqJx5UZTaroeKe0bq1yye//k5Z9/ZnI4iL7qIcpEXP/Wcx++9oqzHsgl6y9azYPVhD2jYpEZtIJQKnRAdauHiO0NmNjeNxBF4jZMJpKc09R5lUYrGqnjoJPCldwRjs1xEdM5BhwtDV1mgwXcJFQWUzZhCEj6T4HGmEYrbJUMuegb6RE7R9WbDdWAeyezGwb71eDoiEpm03DVYJGgRIzrYcv7WRzkQBI6XV0ecx9mQ/9oGGWSMT+4fRyQ4MyZqpdUh2bU0IGJ5jve2Dvxtv/v6anTwt2T+jL47vP+pi9//Uf3/OLFPR+acTIXN2M5G1WASkmgpaPfrNVALoNpD/baTJdjVqycEkbLlhXNrfxqdNwYMFbFwKR7sqE76guHCFoo5yJgIvBt8PkMId0PQasNE8h8uTlAvrT5wB0Q+Yk0TaOk88y76vvwtEwPQjhzQ4tkp+JqdN1aNQRFyuSyOO/LEDhcD11PQtoimfpiQry33AXnPWRb7oR9hkU4dI4dGarCvaJQ3CgUmPu231DpaHNvMeX/6Mx1+S+fuaH85L0XxaeY7GpFR63ecXFk601vu+hrF10wel8sOvm8Ux9zIh6tE58xmGHzIDJAprJ1EyEByUbO60jdyiAKYygImx+MdbLpaJgrfq+wJQSSBduE+NPZVwqGrUFULOkzsW6gLA72OVLXPzykRtaMqkKxT+rLwTWiHNgP55h1RqEQJQGxTiWG3NPUcbsB0YrFIQ9aJo7wcSpaUjVVRk176ZF9lcgtr+0+8om9Y0fe8aVfT6xqC9XZRAKfvrW49aKLzvj22jWZB5N27Xm/OVWNuHW0ONriiIKQt9yAkZwcaWZzt0iOjxddaZ5UMuh1rpNEqAxjhBC8EOjLhbjpDZ6hddGWh0LcoUgID4YCUJHBeW7hp1mwOB7i8NpCqaBGoUjZfE5mNTRgQXiG+6IMohCm2pgOtxSOoN+EP4K/sofAljKB9MAEFYrPnjhsHldNunvwaGa8ZOnAtHfDi7/b+9E9+yeuf3LX6h3h4zygWXjywf98+L2f+p/2eg2vPjVRLTuO1R+JxGMR+MV8+CnVR65CFWUwFS2gDa6yJdPsDQHxdFXocFMhEqZPtMAKap1D9K7TC0DXvRcNXk8yd9ZC3EFScA2dV3NOw5zV58JxggMTFYKv7bMRzF6EX1Ee7jEveuBau9J6n/F0TADpa+WAa8fnhdjnw9h1GzaoUrmsIraFvhMUidYLiqTdOp0tQo6QWNvNM5ugXmjuDLjfOuS+kQsSp6XB+cO9bMtS0UgkNT05PVqr1Aq+5x38/hf/0++CC1cVQtyZjT/5whubnn721fe/un36kw1VOCcSy8d8KwETzkmQYHIU7VuEw+hwJTwbHde2oYuwskLgegOyDYJN62fQqsDjwGL7O7hiVkZ0Pk3e2y1wCxxbDrGN52fFmYV2vsLlNH0oZqGTW21IfClXW5nIb4ujbzyFC9k3ojBbENwm9psccMB1xVJJrdt0hhoYHpRnSGLjGB/k4jyPxfqY+xChvMyqE1q74Ho5g9ZT6hM8MfVqEMW1UeQjCaVPRsEjZ0bZ7uT+ck79/UB//t/93x/dOBFEXTWY5eaF8aefOGPrVZee/dCZ67JPJ6JT437zsEpEwCDYMz4L98As5TXQ+lAg9MPCgM1LBKa1GCJ6hc9FvcBwI7zd8UEi+eGwXgif7x2HgmoIPx3HmnTfRyhQonCYduE440K7cnwYy34Qt9V6ReVhkUbPWCejd9F4TDSkpQT4oez3qnzcGWlqCqNbWXhINdSqOBu8mrMo+Ayq4YIiaVXx04X9U/7VkzONO/704YOrbg7fvMpE/Ic/PHPrhecPP7NhJLYtZU1UFRQqyQe7flPF6JuTbfKMIoAIW+j4mMF0Fku4b8/weagbRzsvCJ/vjmPCwrRYhK4VXnJf85S3pMATQQxNkGk+lKXCJHJZNbJ+rSoNDih453D5+EK6vobQikDqrQpMq5t6A9fjJE8bdrSIoVAmvsZRxTFfMnRimWTFiV+w+1D9g2OHq+/4Px8+sKoUqmefqRt/8mf/daY6M+NVZ6ZLjdpMv+d5MRfukB3nqxpwGVyO5XCf/rK+ZtbqP2CowJzXm1nQLeKx0nGide82euezHcq9ucpyNIhSBBd3pmHyoC2EnIM1okJxcMHwSGYg4F9cLxzXm02VyqbV0JpRNbh2jYom+IKnHgKX953kqjaZm3Zboblg1tgQYIcuogngJkwyEsi+EwSCLqVv2SoWT4ISKafpr6nM1Asxy618+LN/vPOxL/4ZXJyVj4AVR8ejv/E2/fi5l9/zk5/99oOvbZu4yo8P2q6dU240joqCTrJGQ8lxsEK3pagsBLO1MvtE6zioyLYSGegRqsXArH9wPKDbNC+kz9RGZ6kJCP8c+WDZTXl1Xg2H5gLVjYMNVCjt0un+mSGkAK+gCWWh0kSillq/YYMa2bhe+VQk9lslKs5R8XhPfVkLpj4WC1Y302zVp960gftI44o/KhNvH7dtlbZRkpkp5U6PT2VjlacufUvx70f6i49+9qZ8NbhyxeKobp7B7RdZW9966Vlfv/6t53zhzA2FnynniONUJ1XUjaqUnUaM3rUyq7KCypQ65k6PyyhwJGlNF0GrEyyXsUYGEFOOkkE4OTLXaNRVIpVSo2vWqGFYpFxfHxo5uFioXXRX9POkgEfyJ9vjgx65RU6wJVloFzoIFa9fJ7GUhYaVD/kdx1Ez1TryHIXVzOfqXvqWF14d+8zUdPP2zz+98t+DWrAyEXddkdx5wXnrv3vpRRu/tHY497OIU3PcGiw0FEpeIwfE5SDJURtGQfDDmpVKpWvCeIw/S+kWCfqr6GYLLch3XcbQgwy0ROCO8I1cIu/0ebEyoCaEkwoSjSdUub+s1mxYr/Lloqq5TeVCwvlAXR6q82ryF8QkWvvcHgeoUIaMUmkyihTBOS4Yin3UOV//4HA5e3BoCVTEzqWOVFI3v7Jl4pOHJyu3fOsFf0WvJbEoZSI+eG1hz0Xnn/XQVRdv/MKm4dSPo/VDjlsZV1HO7RLGsurgKkX42vNRXCaAFRqmYwELMYDm9ywnqjaD1qI5TiIvJwYnLGGAaQeKI6B7R5JdKFXQIOkDVa/XUXhLFcslNQyrlC/1qQYUbPzwuMSbzc5jZPBxwJQE6gQLBcWCxWRfr4HKdqy4iucG7O37pt/161d3f+bQkZm7Hn7JW7EKdczc/YsHtw1u2bL/rh8/98andx7wr47k18IpzqIlbEAcmuJi+ByUiMBWoHlkC8UW1gxM8MFixyKWFJJAAHQwfsLnAfOsqht9qBgqUHjNqf1oLg/B32gGxwK5Re80WugaiTTujMFRrwe6sh1C213jVrqZCDP30BYI28Dy8HGD9JPkGsTneSTOcJxQ0ZgtlmhgdEQVBwbFnatwRI8Cy+cVAST9wHMQ/sqehk752NC+g0E4tfaddCh+g5FJed8Kh8xXElGsxpSKOuPOaDHy5G3Xbf5/c6nYY7efa624PtRsfiwQ/+pDGw+MDiQfuuz8/r8dKbs/9qtjqgELZXlNtEARuFp0ttCu0rzzbw4JE4sU7B8rEkgkLCBEDIlGjzfhE45OxRUJg8CxUsJKzF1zSLeuCVeJD2azuZwaGByU+XbUlRqf+8FS2dGoXG/oRIOlEEIltAnq06pzbEP1L08kOdKHfDZJsZSqRDP29rHqrc/86vXPTkxX7nrstyvPQh2zMhH/86cvGT9j4/B3L7l43UOlvvoWr3FQedUZCDJUyU+AkmKZIhFbea6nn7pLa9smPVJ1fKix4oJ9gwYSZX9hJUIe0voOpE5bJfJJpgChPLKPGOm+grxKURwcEAtVb2hFikI4ibAyCTEM1M0SHptz3XQ0GCWaC6wVroDUVqo2GILaR1lscfccO63q0Zx6fe/krT9/edc/r9abt640hVoIz+bFH3/6gr3ZYvqRyy9Zs2VkAO6cNwVJrqkIX9JFc8kliznNReaCARQIGXDAPnlsiAGM0YPvR8UELqJbhx4E3w2Ge+erI6jEDhfvGEAhXCrQrevlIpp7UEkIKT/dWVBrGByMoedHwXRAiUxard10hiqPDqlYiqvuwjLL6N5KGnrhRFz0m1jUaFz5MS7DnFVVK69e2DZ26w9+sfWzVbd614/3rZz1+JaE+//5c5/z+gqx6vj4WHHPrv0bm01fJdMFVak0VLVRV3aSz6I4BYbCAciGvj/9ZwoQAoQCYRJiu6bDDM3XX5nBhWMQNNIUInPog2l1E9PtFd4iXGv2CdmGSBT+KBRGZ547FSp4CoN7sI3WFjr8qguPaWm4AEqlVpUWPlfMq3Ubz5BFUGihOHFV+lKIx6QldblWz7pr/+n05iP900b3eUl7Hkhdhkj/hBE+S15wciyukmeSVC5LJdIZlFepyenamTNVN71t19RTT3/1/1kR8/iO2zIR154RGR8cyD/y9red9/lLLlzztNc8qOq1MZXPxtFiwtR7dOnAPPBQrBKIwmKEhluzf6yQdIL95Qgpf0iRusFz+rVzPSBBgm+HvlFTuY4ji0Fm4Nr1c1muchF9DVhhFJjPkUjHwbpTBHosVHk4MnBRmw6aP5srJMFKJYqqGimoV7aPn23HrHf/xVOH+CBz2WPJ5O/2C7PjoyP933r7Ded97uIL1zwVj04rx5lWSfjzLoTCdEy7QaHhQAEcQbZN4LGhpRAPpoG0DLXSnocWjK60F0TzQ/gjAgbrxGcyTlPV6jWxQJlCHn2kYVksMpZOSn+QytRKPcRfNlbddKrAezNfJg/cSGPBMpJgVbl4j7ATIXr55RQaj7yqe+lzXn1974cnD4/d9eff37Ls3b0lUybi7isLU+vWDT5y0/Xnfb6Qrj41dWSrSsZdlYiCYegDsP+kHzjSvQm7W9rF6QbDOqgVfzadLBgLs1DqDVhq9Ojo4umHsyQ9IEMrztFQSpfnwYVrNlQqlZRlufrKZRVLJqT/GVYUEVjGD2ju+5486DyxFG0gqFVX3Pr8ciHKzmlGMfT3IpxDiPJjo5pw+WLpkjow4V7361d2f+LgkZk7/vKJbcv6xUKWb8nxpZ/M5HfvPXz3fV//4f/6ys76OaXBzapejaG14XwxD5aqCWbKUyixSuwvUAj41N4wP8x4g24hmXX+KKVh9HAave4xN+RqvbsI8H6te8Dyydf6+AGEwArqZ2dtBZDWDb3yJiwS5wrw+0jD69er/jUjys4klQdFgoqJoBowDXl/TNLS4NDPqYIoEkhyE9QJeaCX3NZ5lH4i88vBEyiS9J/YmCCOtlbw+iJNeUPBmd7rFLPNH567sfzFDaPFRz9z3cABSWSZYUktk8G912Ym14yWH7rl7Rf8ds1gVM1M7FC2X1G215RFN7hutQz9QiSkCwrmSTsWbBkm1oq8nodM38IQw04cdOIU+sXQLIg7GbJI4sS17Qqn2lTqM7BbrkoXcrIASj9cu3Q2g8ZITx5mst1py/O8UBj3w8enEswFKezuEWwAxAjDFPnyGACygJgygRbnXHkFPqNUYsCerKWv3bpr6mMHDs3c/qVfHlmWFuqEKBNx7zWpiRuv2fSV2995/tNDfTVHOfsgR0fQW54GVcFAWifOghbxaLVYSwupwkXQYvKwiLQ7+mNmy+t7E/8SuYwaQB+JxP6SBVeImFNJBbwySCUQ3HBf6mRCGjzucNszu5wHEZBomI4UziqL6XgWyo7yx/pS41Pqxt9u2f/JvQeO3PWNVyrLbvnlE6ZMxNBA9nvXv3XT319zxfof22rMsdU43LopGKWKikZgoUTAKByhYfNjRLjFO3Ycex563d4IPq2GVgCjSG1IHzIExopDkYoDZdU30K8yfXl5U1bsFvg0tyItHxhFailUCMy9UfR2nXXH0uBQDLtV8sUNO4suQtbedah21cvbDv7ezn0TdzyyzR8Noi4L9C7FEuLZ/X7plVd33fXYky9+7LlfvHHtoUmVSmQG4cTAfHONah+uC10UZMU82CXkyUiXhnQLUvisPtN5XqMz7GjCyJnOnTDHvC50rTS3+lhiUGlwyGdBHU/8JTDYF0A6qFQtS4WQJj+WwGOkFLVUcWRQZjfkS0VRNmlyLLbivBq8EikN5ZO3kHzzRjq8W0npBp9ohO9obidK07VPL0QT9oOTMt+wCzKfE+yyLfSuLXYNKlCrSWU1x6ojRfunF5499MCVF65/5MaRyM7gklOKE2qZiGuGIuNnru9/9LZ3XPDFC88dfSaTdKrRSB03birPQc+ATQ+4ysrvkMFgOx8Yx1DnUZgWi7mu752WEQhuu6+VETqzbRGPO4lvwjYbek5jNpeVpYtpkbi4hjxHQuLS4ATp8V/fL0DroCP0lMLkRHhj8ku2yEY79dJIzJN3uqfsV3HxnrqyVcNKKjeWV/VIOnVoyr1i31jl/Vt2HLkkiH7KccKVibhxY+rAheetffi6ay78wkXnb3wmYftTzUYVggSPGcyKotUlL01X3AhZJ4T1epeQZs5UAMO74584SP68QDECF65N+jzd1vB5fQJlCML5qn+Y2CfK5fNqZHRUXqWIJGJsbkSRaLFbo2P4YanbCrx8IfkMqLt6THnEooLkqRMak05CPGlMPOWABw0rpqoRuLxJuL6ZfM6z4+dWG40rn9hR26RTPbU4KcpEXDEQGT/rrPWPX3X5uV8eKCZ+4jcmp2yISzphowGmgKEPRYWhsCG+VEALpiaE/Xq3XU0AwsJmbUkRvmcXqCDmfCuazr/ojhzrrOkxCLTJ2HoO3DpYZL4sR+IVaVgkLoDSPzKEzrYtK7HSteNDXEnLpBtizAkr8hLD1BSFzWRf5908uuVnaXCWU9/p2oWVCQzjR6xlC2qAb1YspjKFPpXKFQaVHbtpfGrm1mf2zKyThE8hQlVzcvDVX/qDjz/xs1t//svtH96zv3FjLFHIcQi0hiZIvqSgH+2C2WZFN0K7NyJIbMWE8eYsa0UkFUKHkFkCtjiJ62ZIh8AGyqOD9L5JnqE6l9jHRdzKsxTs6E9XMm295XM2VzmyahDlJ5vvU+vO2KD6hweVF4uqBiJ5cPHo9sktWTxsW8XDlqXnvvCEkBNtzFuOE4zuexMmr6YMOjtUL9QzmYAQeUTCsrPFwTGKj2PtAfADBL7fUPlURK0ZSKvRckL1JX0V82emknbjV4PFzINDpfyjNw9HtuKqU4Je5T7heOAnM4M//+W2m3/woxc/sfvAzNVeNAOTnYN4xcFCDgEbZTHZA+vJZNmny6PD251qXT3GErShwxeDboaEO+50S9sw98QV2KX60B0x0bU6wX2TDQVFigCCgmFnujqDvoCvCuWSGlm/Tg2MjCgrGUej4kg/iYujmMTMK+A85O3C6D424L1OFaScwT4Rzndrixi0SkahdAj5Cx6KMoGkECC/CT7XVTLmq+FyRq0dyqlS1laWV4dlr6lopFHNxCP/lE9FHxzIJ7/93o3pUzIgwVKcdHz42swB9J2+d81Vm74wXLZ/aDlT4z76UFE40hZIWvIWc8lQ1IC0XnQBmAIZzYELEuMQJ6ooQYW2SG+kPxSYDW2TkA8c64fNJMpCECfYMg5H4vhgliuv8qNjazesU6Pr1snwdx0Wi+8mWZaeAb5SwToKE6vPQPNFBwkhggkz7NXnyUPwy20gvKEySUsNlnNqsD+jsukorDb4SCbxi4bRRGqq2rzy0JHp3zt0ePI9P9zTPCUu3ylRJuJjb8+Mv+XckccvOHftA8Wc/UxMOeOcHcE5fPo1BC2cXDdAgeQr4lQmVoEoEIeYSdxvVQ1oqWFquU3aRnIfvyL1+lgrkZm9gW0QTa5C5YsiIYtVB8JRzKvR9WthkYZVIp1CW8FZ1Cgfrz0RxTjJ0JxqUye0paW1Zo3qR7fcmmMThvr1qioR81S5L6OGBzKqkIsrO4pmFnyiLLBv5aIBdn0r1WiqC45MVu/ZPz75nuen/ZOuUKdMmYjP3rHuwBWXnf3EpnXlb/RlrOcj7nQF7bNKWOhkoj8BG66icHc4bM6PcpF9umq0lJq/TiUycQwtHDqVzut1+oYIbo0yBUSF4gORoAHglspk9ql8/PAY17fjqqtWKq5G1q0VspMJ+X4SW3BtkXBHXKpd3DCtDnSUCmXVjU+bbDQq8lEC10Hv2VVpuHblQkINlNIqn7FVLApuQhb45jGlF1dBsSAj0QS/XJhrevbl45O1j+zaX3nPs2Mn96HuKVUm4l/dvX7vTddf8uTakfSzfZnmmOVNgJEVcKkBpqKFglWiMrVnVkPYaKUopwyXZhwHIaIN09RVeUchjc60eCN9T0MmD9xSYUCsUoR1CoY+5jnPd+DWuTLgwLG7gWFOE+LX+zIyOqVf8NPp64etIGqXoVUCKRlY2iIJYz2JSoglIvlOXRrTOExXPy0S3Lt82lI2LvJd8F0GI+gsMxF6LuhnWwkoVBoWPpWbqUcu33Oweu+hI407njt48hTqlCsT8a/vXb/z+red85O3XrnhVwPlKJf7BNOa4u5wAiRfRo9wZUP2kUTAkW2fAxUg6UsxHGT8quOibvSIQ0mYtY9dEHPDL0CYGdJUKn4vlg9cY8m46hvsVyPoJyVyab2CUxTERgHXie4woVUPw7OAR0Jaofj8ka9iJO2oysOCD5WzqpRPqGSMi/SQn5QDqpFu1PS8PvSbfC4FHYekwNL7idSRGfeqPWOVjx8Yr9zOO54MLAtlIm675ezfXH31mV+79JL1Pxwox6fsCNwhfkqSLhBnm/ONArZM5B1fL6AygcQdohKJolGh2hU1N2mL0Zt6xe9BvE9IkQzEmgbEc+LiQTj4mkGx3KfOOGujypb65G0mribEXFM0OlM5HcASg9+wMG3LBLcedZmIWyqfTalSIaP6cgkVt/nAhPFouah45nrKQ+tKEF8sjCuPnz2KxO0jM83LDhyeufmxrYfXyyUnGMtGma4ajew8a9PgY5dduPaLF75l4Il8qjpluUegIxUQv5PK5xFQHjTlsgXjTCdWKgPKpNv3+QDmQ8g7iS3c3NQGb4TjQIFaf4HSGILLLwMJ4q3RInkQBLQEmVxODY6MqqHRUcWn/3Tt+GCW7p1WY71dzWhxibxhw4g/Fw2leB4KDYsLq4RmJp+Lq3IpoQr5mIrZ7EPhKkNyKZtQJgLxBTN9ENjMQQhczc/X2KoZjamaFUuMVRqXbNtz6J7vbDl8wt29ZaNMxM3nRA5s3lh6/Nor1t2/eVPm6YR1eCrqTqgYWq8op+J7gSKRmWCeuFLYBnUjNSXbHjDKI5FaMMdzU0vhKO5BGq0w5EvUAFsOePP5iIzKcRFInHHQCLCjnCuV1TCUiG/KstJrdfQHwXoryif/EAYKFim4n7736gQViaXTD2bZD+YyVqQmGp6KikUdVepLqmIpqhJcoZLXsL7lkUlwMWtcXH1udRMqyoQtm9QmeFoD1a1otBqJnbXvSO0DhyZm3vut1w+e0Nc2lpUyEbdclBxft7b8/auvOvPvNqxLPRGzJqYyCX7FW39X16wZwI9W0+xr945M14wPuB0CjzupbXm08HaSOadJrhEN1fajO61wGFtQTg/i8yK6cKz7ZDoFRRpWQyPDyo7FVKVeQ9w2Ou7N44BWG0wNmVoSJaCLx74w7Ikd9VUB/ch1a/tVsZhUKShSDJ68jg/esNGRIyoRxZauvvj+wjByDzUGN08/fuAil64VRb80ZnvxzFX7Dk1/6vBk5QPf2z5+whRq2SkTceeVhanRtf1PXnTRhi+vXZN6wmnsn4pHpsG+ChQKfalIDVQHG9nCQ5mkYkxRwqIYFs+5qBtd52eZOlabOW9+26AloiLxs5fJbFqVhwZVCZYpFkcHGeccuHdzQVIV/1CL0GqBlAiFMySzQhCq3eFAmTgEPpBX/QNZlUzBCuEi6ALA823eaIUyZOo83MgZ6PN+JKqseNKuOOqKsYnKx49MVe/63rbDJ0ShlqUyEZ+4ee34FZed//hbrzj7C6WC94SlDk1FvSPK9qegVFAmKJLvQpnAYBKfPcwHslYQ5vc8oKWgpeEWP3KdsSA81hsdbkCvg/2gJsJjmZQqDw+pkTXrZEY4ByEYXa+1HghD61ruI9y4LnNhnlMLw3EncGwI8agT4LEFF972VSYTVwMDGTQ6Orq8LBrMcDFrQxj+a2I8/gHQUE7RkvR4LA2rJk5P46CEimdU1bGv3jte+fSR6dr7oVBLvlos77hs8fvvGBg/c9PIk2+7dvP95T7vR75zsKncIwpdS7RuaOE5bE6ugmX6LdSAhdwa4jGITG4dh88HpGd0awWSETnEI3w+AxKCS4J4nqsrkvcMgxUsQ+C4USKbUf3DI2pozVqZexdBE+uxk0zHnsoCYr9PnpdJP0ByJymKgnanDWp1F44ZhgukkwNjhcwddSk1aGOoKBbcvGIpo0bX9KtU8JkvKpiPxtKDKw9bDqIDpwdo9LgfeWdUKbBKolDYFWAHLqCP/jWVqRmJKTeWAmXVjBO7+tBk4317D9WWfEDClG3Z4l++Z+PU8HDxH6++avODg6XoazG4e36TI3x87d2WFosPRRU/XwOGkr2GzWynRGAlpcVBXsaj8IdgBL3VMvIH9UaryFkMtWZTWWhaS0NDamjdGpXKZfUDWdZtQPgXAetEuBoYg7S6EC6VqDV4wMcdfcWsGuzvU7lMRI51P5gTW8E3DuwIz8lrze8W7xnIROgmiqvILUOFw4igicPlXMucLxY2rQz6UTk13YxurnuRu+9/cWyIySwVlr0yEX/8exdODA0V//GG6y94uZS3q7XKlHIbTRUHkziy2nDr4l9z9Viyk+2YHnIOCIHSmrWbrmNGUFW6drkB0bWjGxe1LZUtwO8fGYJ1Sisvyu8QcZQP9z/+Wy8/GEEWYTZgQTsLGw6RYW5wjW4Z18ob6C+oTDYGVxh8FS2DMqG2OtOcD7rG9XY26GO46Dc5aHgduHt8qFtzoxsPT9Xvnq7W73zg5bEl6z+tCGUi7rz5oiMfePdlf3/VJWsfKWYa1ag/oWIciEDnFT17caM4CKHrKqi+HvztzfLFQVpHaCi3Zp5YNBZT2XxBlfrLKtdXEOeEX/CjElGpDKTq24cnEUtR8vnA9AO+C1G0DPGY5/UQuGU1VCLOIfA4LJItDSEVSSy4ud6M1BmEdjVMANNnXG57Q78bp9+VY/9psh5RR6r+1Qcm3U9PVNwPfOOViSVx+WZlcTnj9cO+PTFZve2+Lz/7h1/91tPv8pOjdrKwTu3jsu4w49KyBS2fVIuRH9kJky64tJI4x9Mtd0I4oju8BPtRGnwwrH11x3GovzgJp4TuJvyT0kC/Wrd+gyoMDqgaWldXrKB+wY8KJ1VNtyPguL6PxmzlYuLmvp0IX9eJTmFqlf2omPte8yNkPehSyf1BkkH2//hcCHt87kZr47MPVMV+Q2XSthocKKj+/oyKJxE9KJOM3rngMxonXtzhDss9GLGTAZL7jiAcdDFJDpEeeaL7cOz/sj4dFfdqPx1KRP5hIBP71t0X5/foK44NnTWwzHFWEaX3Yt+/6/bL//qOd136nYg/7kwc3q1ScK9iMOW+rGAfVKphulS4odlCM1voGK83qEhUKNu2Zd0Kh1OdICyFUkmNrF2rCv39Mm1IWlgS/kxqkoMgS111vSrBIsor+RBaG/XDQQVwTGVhicrFNCih0lCktgCiAYMisf7kBVEf/WGeZX1216mA+0G4xJmbqazjCBeTQDymKW6fFVPNSAqUuXp82v3U4anahx5+cfK4LBRzs6Jw+caY40a979/zges/d+Xl5zzmNyad2uQY+k+oLFgReQVantppUWZHlut68yk7pxxpdoas1iJBK+PAMnF2A792ni/0qZE1o/KJF/nomMOX2XQFEvLwF9kJ08pH0ES0BD0EKTj5Dl5H2fo3wKsKwhoqBYvUz8+GlgsqlWg9kQ0sENMJpSXphuloIHMRb5EMpgVtuM4VEzMzvzdZmXnvd1899mlHC8nlssMtF5Qc0KMfueftf3Xu2eXvRN1DTqR+SEX9GurSkcmSVBiZLUHloUWRUQjdz+lFLQTxJD6n++Mch8XN4iccaKhXKqpRr8t8O1Gk4SGVSKdlSSpH0mLFdlfqimT1HDACHiaCSobyQ6E4syGegKuH/lGtegTBNdVXSKrBwZTKZmndcZWOOje6FfUEgLd3YKkqXuSKg9PVTx2ernzoe787vEGfXRwWp8bLEH/5rd/e8ndfePyzr2yZuq04eG6qqdKq3mzKyJ50W4RdpsYYwH4PNiLs2AlqkwMKshV/WnYRT5wzrVCBwPATL3wIS5eOk1aHR0dUIpNC6+aqhuPK6+jaAul7dWAO4eDqO/PBzNubD5wIPC/MeSlcOC1z3CO/ohxzoX0/bVnAo1babO/ptlXAu6pKwgoNDpTU0GBO5bMcDNBXcyvq133bAEyuo6E7Ruh3xEIQ11+DU9OiXlXZTlXF0a/LJSLP9+cTXxooph+4+Yzs9iDagnCUGlgReOoD773uby67cOj7hw9tq1ZnDsprzkl0Zm1aJtSFCBpqzDwkpY5oiwTBp7Ui8bhLkVrhASFE2Ym46iuX1PCaEbh2AyoSi4ryNjmqx9ugDzWXcKwe9BKbUKHJRJm90FTJVFT1D+RUeSCtUimtSCSyef4mRKrsJAD1hf6TaydVnSN9Df/iQ9P1e8enqu9//I3JRa3Ht+KV6Y/eu9nJ59Pf/8THbvq7tevSv2g0xmt1uBUcseEr0FqRONs8BoJv0SryXFXJ8IDQgnHQIByzr4QWdq3uI/HbsnTrOBePX0Cn8omwoCUUYeG1PUhaxjDNghE1Q4GGLzcIbwMSoHBSHhCUic+PBqBIpGw6puyu0W5TflqxUwXWh2PZyuHnjqIpeBYJNV1TFx+aqHxibGLqo49vHzsniHpUGC6saPzR3efwhZhHb7/5sl+fvTFfUc6YchrjUB5HCsipO1waVJ43mOZOKpKDEyS2oloI+IExPZuZbouOynX6eBmJQ+BcLDKWToki1aFIdacpa1RwEgytF63Y6QJx8QL3jqN14jaR76B8LqX6y3mVhiLJy51hCL+XA9Cr5pqNaGhd+ep7AhbKVhN1//yDU/UPHZyY+eCT2w8sSKG6i7hi8fB9f+792X/9i/rMzJH8jq2vn+E1m4lUPA3rlFSuA2WQ1pOtKJ+wQ1k4wgfizHMJoysnQ7lULFiYqKUSMtNbqfr0NDgVUxvOOkv1DQ22li7mug5cw8+3ooGy4YfHsi5BoImE3JvnqMC4j8RlCAWKx1oY29QJdOPxRxdp7r/Z0Glr4s2wlft0g9ca6kav+IROl4M7tED8/FoELp3bmFGWW5NlufpLGTU4mFU5ribE2eG4QrgQ3Eo3auRVENAFmdiKrTmjGyiTn9nx2zDxwvE7YapG6gE/LIne6j82onDZrbrvlafrjaHDU9Xdj37+r36tr5obLN+qQT6XePam68697+abLv5eNlGfqkzuQwtZVzF08LmugB7d48CEFmoqlbZMfImc88G0hZI/WBqZbzdTVYlCXq3dsEEVYZWiyQQYTfGhPaMigPM4FmLlIFXd15IsLRNQsZYWetCBReYOXTV6AegjJfheUkyVSymVScEigS+cOqTjnQqmzH9PyRV+2CS4UCjYVdWEZaqrONfJsqteYk3DjV3/lV/s3ayvmBurSpkuLkeqa0bKP7j91mv+7vprL/pOX94ar1fHYHimueon2AUrhErXwmUELNAA/gSuHWeg83lRpdaQQYXhNevU2o0bZCicb9EGsSUFuVSACztAly+4E9MkBcfhvXAKyxV6EKeTCGPoaGHZUKWgPH3FjCr3Z1WxGJOh8bnKJ1ahm2UnG62+HvIYWEJaKZRQth762Y4fL1UbkRsPT1Q/9PCLh+Z191aVMhHXrEtU14wOPPPOd1z5xSsuPefReLQy7jYPQZnggii+5Rq4dYH10HP6SHrwgOCKN04TfaBGQ/UPDcl8u0QqqexEApKjmW2ot6gsBqdaoo4P8soKuQB3LwuXrq+YVoVCTCXh6kVF646fQ0sNU9/hvi0HjfiuGd1p/RYvZ2HAffds9Ift9ZMN/56x6eaHH35lck6FWtk1OQ9+8Fs/9eore6575NFnP/HCyztvaXrJQc/OqipMjRfRXUV4cmKFCGmX2FqClw1+fCxqo4UdRD/pbChSWr684FvopCKesTS6KsK/XeyUQ/6YcGONNPS6erwWN+26dLHovlzbxTAoJItDK82WzHWmyeXY3GYNfUtfFUtpNbomC9cuquIxLh7KoRi27u0hPBHYBRbU3FLmT7buvzQwfSapQ6bPAN6DuyijtrRmtgzKwmWrnaoTjzivlXOJr40M5O+/65z0azqVNhbP4RWCmzZHqiNDxeeuvOLsL2/aUPh+zJ7a3WiMgVs18IwjdmQkWigP1iWwTuz0NtFPYn8pX+xT6zZtUqlsVkVstE5gMR/IUpw665Y1M4eQSAXxRma/i8Lodf54qBu94iyUeoDWiOuA21EOgcdVqcQ1wOMqFgMfYKU4KqobqnZCYg06QuamFjoOlgYtq0TiDYKNhrZOnB/oKzSgIDeSVI1I2p5x7Y1jlcY9BydmPvzkrvp5wQUtrFplIt57TXrqvLds+NEF56+5f8O6wqO5rNqhInWc4egd6hwKJHP5QEaZnGZDZUt5NbJ2neobKOMUOqVouVpd6B46szIhDNBbgW4UNHWC0VpETsgWLbfVUIW+hBoazKsitlG+aiJpMo22RQrDCPJC6cSA6SJ9U/bWbYLyi0zoN3U9P45GNK7q0aRqxjOpmhs9Z2xi5iM794599KntExfr6zRWtTIRH7i+b+qsM0f+6dJLzvza8GD6e1FV3cs1JGRhFphyXd2aiRzStpIpNbJ+gxocHQV3uPQh3ULwVkdcPZDyQIo6yqX5QJKh64Ck0WEoFEXcoIgevUunI6o8kFWlckIlsW+ZkQmKVdBIdd1AbrkoOuHolT8prRAbWRdy4fCLhXZSOdGkPVVrnrNv7Mjdb+zef8+P3jjUUqiulFYvPv+9bbnfvPzG5U8985s/2LNv5l2enylG7LyqNdH6gFF8Wxa9ZnXm+efCMhVlwIGvrctbAeCSPIsI0hJIWLDTxUYeSX20YA7MFSYls+28fjZwvuPmPSAWoY1Wq2sw6xbt8/qZT0j4cazVh6DiIG4wPcjzmnCLHRVP+GrTpj6Vy6dUKhHV/RBYEj0gEbh3pnMi6Qf7JmwudDLuGMBydZX9KNBeR9BgkIIkTE74Ha0mGhDbAnl1ZTenVMKZdvJxd+toIfmtTSOl+69aV3ie3Dst8Kl3bZy6YPOmn739rW/5wabR5N6oP66azUNQlhm0PE2VyGXQRzpLFQZHlB9Pqjq0iKsMmYGGWdQzMCBWTEuATJUQRzueDybuXNSN7vM9Mzr7SiiUnikSUOha9oP4oDuRiKi+vhRcvLRKJtjIaJdMFEmiBopJHujbtLYmNwslue5Ek75TV1gIQWbQnKD0tnLtlPLiWbvq2pvGJqrv3bVv7D2MdtooE/HpOzZUbrr2vGdAP1w3mtrhNsdEobxoXRWGi2pow6g8kJWWiv2kVl+JtNoQCJBszX5wJD8oMa2RWCY9y4FLqyVghQYGCmp4uCDfSaLkCYeMIrWAc6JMpCAI2+4+0WxinDadWEhB9W4P8PbtLCBv/IXL51kxdKng9kVidqXpbxw7PHElY5xWykScu3ntzvPOXf+N889f/8jAYGpHNOGo8khRlUYGlR/jCA7RVqBAVCR0dSEQJGNBjdRwdoi4aVQkM1VIxjJVLO7DImVUfzmt8nlbXsknOpWoG0H6Bpqpc1Ao3klBV94WBH0NH694NhQqGrMqDSfDM6edMm0ejExtOmvtc+ddcNZXz79482Nnnrtx95oz1qp8saSaHCI3DDZC1oI57kWzQdnoFBRD+Gm12AslXDcvmKbedFAYPdPVo5g6LrbY0e9waXeOD7hdtwZXGP2EGNe342BDRqWzERXlBHxcwqsWB14xHx0veqU5FwVA+cMhZEn4NKF7kQhEA8KnT/wUm0OXjytkgYjTTpmI68/OT11w2cX/dM3brvn6hZdc+MNUJj3FUTsupdvBReGqgeFwN80G3RWtNL2oR9CCKOwKdVOP86IYYepODw2HKJLe6jjaIvE5HK2RBeKXKXxVV8l0TN5LyuWiMgPc43gEzsxvlbrRzbtuWir0SrsXachRVznkMIjCjVYUlJjKBFePc/hcxQnPsE5WQs6elspE3Hl2Yqrp9z+fSvT/slHzDtSraH05WVWzERAWh2i1ICifKBKrnxQuI89DqeSxgSsWKZ224d5p1y4e07EYz0wlWm0cMiAnyKYwdInDa/HxoS7N9GmsTP/dn29JvfLC7nVjBxprY5F0Wn+ehv2E1a5MYaBckJbWcySWXfpMruLSxA6sUjJpq1Ipp8rFlHyVQsBo8hMok95d5dA8kpKbgSluYaW4JU5LZfqX/21LbqrpnT9d9z80WVW3p3L9I7F4QjlcWWjVgNLdQ8KDYWsOe1voI2pF0F/ss0AcsXNdzhKBpY43VV8pocpBP4nSJPGpREHSWqjMnShUR6O5wBSCRJcZWFY+j5ZHBWhruAoWl7SM4UQcrnDMd2YY77RTpv/h86/l9h6aPnei2rx7xovf6cRzm6cafKYUVKf0HVYiQaiFzDEUQyh8ngMOqHJ+NI6KBKGwPA9CApcOFOWcOiiS59SUbbvyeZf+gbTKZtFJQhottw5bAdOUENkFuhWnm+aDpKJ3lyH0qydQIpLnKBsNb9xrOOmIsy8b95+XOBLzNMEff/H13MFD0xc1HXXP4Rnv7pof2+xEYJFUHNUYg0D0nk+2aiAS3yatCnyO5CkXCtSoz6io5alsjl/uy0GRCrLPlVahjoESnWiBN/c4GfdaOMgxKhK/YhmDxMS8etWvTuzMxLwH1w33f41xThtl+tMHt6cOjk9vnqm475+uuO/xrNRmkEwl8jgi46Nn3bHgyuqEuGkkDjKQ6LfQIvmc5d3Qqwn159TQUAkWKaP4PV5atpMHo0SGTj2k6RGr5CobPErAIiVVY1866n27Lxu//93nDpw+lulPv7U3deBI5fKxyeZHxqf999f99GbfzkJ3EjIqw4mMfAhHTzjwV1Y5tBsofR9qFlpay3JVMhlVhXxSlcppVejjIiiIB1ewjbZV60XHJ/q90zzVMNZbr6/XVDG35ia92u5c1PnG5vVDX7z3kuFfBFFXvzL9pycO5Y5M1S/fNVb94HglcqdjFzZ58QJn/6qmzAb2lQeHmHPwZB7eqa+/JYERxZYlCkiH4hcbLqqvv4kERxeGuVTMqIHBvEpBqVyuZktFQots+mP62rmJUQwf5yTEFJp1js9velGvuIujuXC08xp0h7lkHPqXTl1ZjZlKUtX/aeNQ4aH3nZdvKRKxqpXpvzy5N7f7wJEr94zP/N7hRvS9FZXZ7MbyyrNTykFHgMsZcxVSfvnbl3loIm2rEBaUh1rD6qb0UIk4QdVVzSZf5ecLfglVLOvVhBIp8zoF6ajStuIxX62zr8hfvoIfi3hONhY5UErb//SeC4o/1jHaWLXK9NCL9dS+g5MX7z84+cGDE7W7mlZ6QzRTVB4sknbtwKJAidgy60mdfKzPdnM1QCtNG1ooxEJhy7dgXZcfNPBUPp9BH6moisW0isZoifSrFhqngTKhiGKlsE8KKxdL73OteQf9pLi1c7CY/c764eIT+mwnVqUy/c2Px1Pbdh186859k7+3Y9/UXVM1a00knlVWPAN14Vv9YBHMNpwItNg80vurR5FQrbIgCAdU9AglPCaAjQXXYYeyuNPYr6JvFFfDo3nVV0wg3JM3jZsg9qVO6rjDKQQHWMge8oj78n3klmw00VeadFLuka3DWfW1M4ZzX3z72bkO986AnF5V+NxPJ+xKpX71c7/ecu+BCf9Ox8qt8eyMajoWCALCJ9YQEjKLyiNMxJF+joADrrIibZMhkcIVBEoEH8omsOUETN1eWjRJXkO5fMPYaig7VleFgq0Gh3JQpKT0mcgHujNc687qcAs1wlzpRfrt3B4nwmQwKzx8MoSFpNlN+qeF7tOse+2+6bLValAYtDsx21L1Bpd4q3DNUZVI2lzU30k6h3euz1QfumA0/cDVZ/RWJGJVWaYHX3Lt6Ur92l+9svtT043k+xoqt8ZRObQ0KbCOLTXEBZpE904EB3pjBySKtGrAaqV1IlFgaJng88ct9JVc1WhOqmRaqfJARuVhmWyZb0cGsCFh/ODa0wTJRFy5TlRVq66y0ZfMp+Iq7jvKqU46yq1sLWSiX9s0kr//8o0DcyoSsdo4dvULr+z42Bs7x++ChzuoolSkJCgBMeGDWe3yECJikJ9uaglii1YiqBSgSNAXlNnfdeW4NZTbVel0UpWKfSqfy8pXEM0ViKhJFGkll3+h0KWWz3967BfxPVpICt39+rSyG9Pby6noQ+tGhu6/4Zy18ixpPqwqbj31k1ffu33XzPtglUrT9bhqOGhxIlCkiJ7hwM/Y0zs2irSqIYqkyVIN5XgVuDAz8lB23ZohVS7l5YNj9Hnp9mpQHChZ7UbndIDL9sayZCKv5dVVpA7L7Vde6os59w/k4v/wgbNTR1UkYtVw7H/7+oF3//CfXv3XkVjp6mi8mG66MVXnapwRLpjCYWBKDFSJLh5KrddowFb3zFs4uU/7FwvkVfKNPB6lNYhK1dI6ucr3augvVlU6E1PDI/1qdCSFPlJEOtoyCNNyBU36Gt2sOPozmeUAXc9hzLYY2iJpWMpxYI2iUWW7VXh1YyoZqb00Wkr9w2h/4ZvvP78wa7HJubAqLNMff2XfTT97Ye+9XrR4cUOlEjXXVnU/rEiBjKwIYVgKUIlglawmCl6HUjRUJmNDkcqqv5+jdlAhmdlAoTKC16lIpxM4ZYrmyYcrnLQjz/dlkl9OxWMP4dRWHWNhWPHK9G+/efCm5185+IcHDnt3ena+4FjxaMX1VRN+vzxBRxz9yRbu0Z53tlrLE92C3g0KPqqup/DzOkN8a7ahLNtT5YGiDH8n4npZLmOp54LkAPHCtOJBmQh2w4iCIY7XhGj4P89nM/dlMtkH04nYNlgltEgLx4pWpr/8wfhNL27b/6mxGe/dueJIJhJL2z77SGCaPJRlpJYi9WLjSgIL1C3RvcIsXal076BIHixTNptQ/QMc/oYweR463L6y5Du6cyvTaoHwglYYJCO54Bc/HcMlseW876o4eRRpPt+Xij6QitnfSiUT2z5yWf+iFInorokVgT9/di+7zm978idb/nDnAe/dqdyZubobh5DExf/VC0da0qnUoNAED+bkuI3l1WfS+eyEyTVIRtk688s5Yx3XyLB/Q9Ua4yqe8NTQSEkND/eJRbKiLsrLlYYYh2m1iZ8r1WFtrGxrhPrmu1rBEXlHJdKPYz0ZAuf7WwkoUqR65OeFuHoA1ujrqXR25x+8NbNoRSI6ubcC8N9+MWY3m+4NP3zut586MK3eHcsP5eqcHgRGNeHeyfA3xzq7lGRlg4oULk/4ONhyOBfCIV/WwDYK146LRJbLeZVKx+DqQeHYj+LUKbq7XUorbt+qGuJs84svQZIvpqF0HY5wgldw7ZqVIzuyMf+RiO98NxN19h2rIhErSpn+4ZeHU17NveE3L+759J4D3vsaTj4Xi5eUw2lkraf1bF8jMpplZjVYEDxpedmy92jdVx7Cgk/lYQsczDHkoAOUhko0NNyvkqk4jllexueW5Z/NA56VVhtp6cm/Onwlw6zNQFbxfST2mCwoUNxyIQ91lYrUVCbmbfF85zvFbGL7p29YU5ULjhHk6orAd7b6uUrNu+6532z/+LY91duSmTU5O1ZWtRpYhIaWCrRgY2TkcIVDutOBRdLPlBogKlNDDQyVVTaXUrYNzrT4gh1+L6n1EmRAHVaPIINWPpO0Y6/39BGXL3NVkt+PakxBmeo/HywkvjNUSu/4F9ePVHTcY8dCxe+U4tHtfun1HWPXvPDa/o9u3T11+1QzW4rEy2q6aik7RoEBsyBTMgxOwVioHCCqfoRrQGcHCZ0y9BJi5k8LvPwZwRfLpK0R17lz3AqUxlV9hYwaHulTxXJSSZeRZQT5Pr0X3YcIUgCCoyDN2f3HzuOVBrp1/DxoVJ6ncfDBUVFYJQVFysc9KFLyi8m4/XA6Ye/80Pn5Y3bvDMjuZY3v7/FzO/Yfvua1HYc+unXvzO0VL1/yYn2q0oyqeCqLGBbcPFe5NE/yMpu+bkGYFXc5Cw/zZggQ/5+KT6IcNFUiGUE/KSWKJC/9oXY7rJKxREKtEysOwgUUX0gHgR/YE+Wfq1xQKFhxi6/mR53ni9nYA+mE9XAhszSKRIDlyxc/2O/ndu07csMLv9v3sd9un7htysmWGlZe1eTDvRH0BzLyygDnVPFBJL9JSnevzdO5GDsPpMU/1TAF6CTdGySYR0oSR+f0KxWppIV+EhdB4YCDnvHRMTKJXTo62rIxPEg3iNJtlXgufPmpBzPDEnAwweSe+ZcQXQwdJYDZwVlxg2GhLC7L1dgxkE/8fSZpfxW0855zF/csaT4sW8v0atMvTU5N3fC77WMf3rp74u2Hq1apGcnKV9zQvqhI1FIzlSlhUiwRhy8svSZcaTjawdkVBC0mbTLoKhfKrR9JozNt8QU/jtwVVDZrK9flZ0Z5rl1+UQyQhMhADNJun+5UPEH38XIAFYmuW6BQHCXB1pStlWWUTVsuSgoHG2pQoqqKexWVjbmv5tLxh+Lx1K4Pnde3ZIpELFvLtOmGT5/7yrbxz7y4bfy2/dNq0IuVwKuM4tevaYFsftbD5bs3USEKnnlPhX8tzsrGHHeSXkwkLLAMPb4+k6Q2q5VfKHjd7GtNqLS/MuAAGYC7QqvE1yeyuYQaHOxTuUIc7h1KL1OFaJ30kyOdorZKnW5feNsNfcdTBebd5MHkQtugIFQURlsktgtEOx4IP1xe3/Yrym4cguRMqVLGen5NOf2VTcPpx95zZnpJFYlYlpbpr58c69+6ffKy326buHTvuDNY8ZLKtfhOUgwWyEYLAELragefYuA8M60e/KMyBK2yNFnmeDb1fEDLsOMg/B4HIAFGMjpAITIjdhxwgGsrK676Kp9LqYH+PigUrDMNDnjBT70wOy3rAxLh02LGBAP0utfyAEtsqBO6QKYkQkEZCe7LQpFcTQgNTgzWKOlNqmK88dK6YuxL6wezD18/nFpyRSKWnWW6/8eHB1/fvu+anQcm7zkw6V5Wt9IJz85CeBIw1/wmEBUITAuaWMNQjYCjHWifnY3OqzV6pbEIIF+z+x8LROsZWHC9pBOIFP1+UShum+La9RXSagB9pL5iXNk276vjElrcqF08CtKTff6Ey9h9vHxgmkjNEZ1H3ecjtOU17YXhnKy6CovEgQYbrl1CVZxivPnC2nL2vtGB/ANvG81v59UnAsvKMn3lZ1OlLbsOvnXX/ol7Do7X3uaqVM6O5yEksEyubqWMNeGvZvJqhS6ZLiMtqbFMVCRwJhWTD4/lCzGVSJh4bbT2tTxqIsLHJmwudMc9iWQUSR/gSHa1DOhH1L5y0XgwWMqOHb18MV27uvSRYn6tGlONFwZL+S8Nlgtfv3Zt6YQpErFslOk7v/NLW/YeftuWPZMf3H/EubkRyQ76dgH8S4O4ngGMqDRDmrmyVoPZNyQwYmXoJKM7T4shURruc8Oycsty0hrRM2nAMjehSJbqL0OR8ugjoQY5H5GNjIiWXKOFSy9nfBRIS9+Del5qzh8PFpZG0HQKtUNkDoOStwFQ7vYSbXzeRreOi5/U0N5Mw72rVtMx98VCyvrKUKnwtRvOGNii0zlxWDbK9Pyrey753c7Dd+8er9842UyORJL9yolkVNPjW7LsD8QCmWMr1Zu0AIboFKFX3hZGQT9O8i8JSRiXLubyW3TtUilbFUsZ+YJfIonqQxynyThQOtFFXXadDgMWAMOvMEE8Z2Ou8IXCXH/0NDqUiS0DwF8qkiuEffDDD6x1JNKAeweCMimnUoWL99tSxv7G+pHyN28+s7yo95KOFctCmf7NfXv6X37twLU7D9SuPVyLrW9EC2BLVjl+CkLCvhIHHrjqhxaSFiGkFy0Ox3f1iUFI6CBIeg07R96ULfVnVbk/J4rEpbkiFtrrqM67UUZRpFYaKxmmPoItisPRcCqSg7I7cHddzmiAQlnsR0Jq7Eizmor5L+aS1gMDxdQ33veW/gW/KXu8OOXK9O/v31/asXv8un0H6tdNNxKDkWRZWYk+GG29bkOEI3hw8cyn9MPo1aCSFg5WElvvMC0HhIWICuPKykL5Ap8lZVUmy8X00WsAUZm4OqueOtRuYFaHMkmRNLVKhjKiWNrNYww6f4GL5zer8aj3YjGX+sboUOnb95x38hSJOKXK9L/8/SuDr+05cOP2Q9WPVr3sVb7dV4jGCmhpk2CRHmiUMRu0tPKgDseLE5H5rtAitzzQmU/OteOr5j460nRhkqmYfOKlVMzKwIMMgdMKSVwAbo8eQQS1k5kHJlJ3xHB4LzJYaHg3hTHfOYIz/SOtpdj0IIwmcf/QsLKRjWEbcz1QYyqpGi/mbP8rQ32pb3zk4vLLksxJxCkbGv+Tr2wt7Twwc/3uw40PNu38O7x4oZ/fSXLR5Mg6kADbWcqI7khrpZJj/dOyQrJlkD5sbXVbQepWHBzr5g5oxz5VEKtr/tipRivLZ0nKaqhEIoL+UVY+85LNcqaHr1x0EyxLL5mCAF06MIF8MTS3iWZ4mAy6w3uRQXe44S953X2umwy6w7vrSL9CY8P80IvVS1mTdGwLcmKDElCkhNuoxd36a4WY942NQ4Vv3nNZ8aRaJINTYpn+6pHDpW07jty455Dzz6bd1Dun/cRgzeeKZcGrAeQrXBh5gQuCpb9sx+Yp0LIlg9woRKcILJeQHpmSPoDlqCT6RcUS+kjljMpl2W9Eu4xouk9EcJY8jztLQVr5QKMQNDK6PGxI6dI54tLZPppeD/suh8Cr4ynbfWawL/3t913ad0oUiTjpyvRfvnuIk1ev3z/ufniylripGckN+nZO+fL591B2wMG2v2zmoWl0C4uJd0xo3YS01Mq6GPDeVCT2g1yV4LeS+jjYkIVFgiLBh9CKhBabVonWh2BTDWLxw7TSoacKodZRTo+rKUlxGcL+kX6WxKlCiUilmo43d/QXY7+695rBF+XiU4STqkyf+8eDud0HJ257ccvYJ2b87C2R1FDJjeaV4+vVVtnugI2aRFg0iYAIMxcmKMcsTKdACk1DoQcU9BB4MhFVRX4ricsX5zj3EGoG147Z0/0lM2K3VAiYu6ygB1M8FNjFjgdtEksFty7q8XuyNS4UWS3EvV8PFeNf3TCcmfWJl5ONk9Zn+tunD+W27z78jue3HPr4gYp9g5voL1XchKpBSOwYHz7yoSwiUon4Ig4Ui+2QiExgdoS5OB00xuJTUwwMMVBPN2mFALzKUAgmkTC1rjkehNPpumcAPSppztF94edd6hAYTl51ZcSu3J8Ri0RFksdFiE43jztakTrTblmqAO1pN/NDf37fEI81sQgLS4EweVnIFUHis9BZHh0N9YlCuzL30ld2FMdeUz46low0q1nbe74/Z3/tLWcMf+fG9ZlT5t4ZsFZPOB789URu1/4jt/1m28FP7K147/RzpZKTyCjXjqsIJ6tylrPMdO4NnqE8iSIFxwbCcwTMVUWnDgvJjZRKPjhGqxSP2yqXS6m+YkplczG9fHFQMOoKdcjjojFimXj9icOxJd99FY8NdSMo2Dx8olLTKnGVKT60pwDIxxZ8dypheb8o5RNfHh0sfvPaEfuUKxJxwi3TY7/zU3sOHr7tJ8/v+PiuCe8dtVgh5yULqhmxhVF07vQK4BzqDTPfEH/bZ4xCmW4OQQYTTGWeujlJYAZMJsy+IZ1hdqp15tlH8qAgdRWLRfVzpH49cTWe0FbZXEntaSmQBGhQyXpB7rEQzBNND78v5M/EY567/8Jp6DIZorZo7wKZkAoFLxDARUNpWT0pMOLAIvEzN8qFVXIb1UzM/1V/PvmVgWL24fduzrzBpJYDTqhlenynnzo4XrnruV/t+cyOg94trt2fsxIFVa25qtHgE2sokuSAX/sOfJk5wFaKitQL4pasCLCwAcupHCg3+0h8Jymd4YBDCsqU0IrUwQ8tilr55ubR0uJ478Pr50gDFUZlaRfFqFkwmgniLAf6tVQozsjj6xS2W60mI41fFFPR+0aK2Yc+eF7mhE5cXSxOqBh++7XGe7/56JbPvrT1yDtUZtB2olnlom8kkxXJTPrE4CFJhIXHwbXdoCIZZeIiGXorm9Y1TDMIOgoYa66YS9W+IFeBlkuK0k8KENGfeGm6FezX1eBATg0MZOUzmMmUjXJAyeD26n5QwBOxTHOXjm8ahzGX1xxkqQe6ecK6mSty4ArMgskD0pGRUZMe0pHyk3S6RpH0FbRITdSvEzSaFpTJlvq1HE/ZTk1Z9SNOUs38bG0x9aUzR/sfuvO8/B65dBmhswaWEP/uod2x7/1w28df3HLk1nRxo+1FC2BZHJwCkzwL7p0x8YCpsx7CwpC5LJIB4xha/pAS4a8B98VV2XRClUtZWTAyJq4d5+GxddbKY+bbnXycuHt2pgyl42RV2QaEfZENUNRtqKgz5WTt5o9HiskvFHP2slQk4oQoExUJm/e++MruzVaM35JN4vAoGgGQyTTrYdICpUlW5gSZ4+64pxYoH1vfuVpzCowQZzfoGeAZKlJ/QT7QHLPRe/SgZB5dv+6y6PLOB7rJYVoKGD4fEyELXM9bUygtqT82JuxL4deCi8+H1eBNS4E4uwFBCddVkdqUSqvGs8Ol9BfLpcK3Pv7W9ctSkYglV6Y/+/b2lNOsvvupn7z8SUflz0/nB9XBQ5PKAZPoGa9+dCmVtLR8fgSh8fQUIa4mlMnFVP9gn+or5lQsTtdOC5m+ltWyknnFvLMMYWIYtQVlBHFqEN06TeQRguHWxsC3OHgR8x2VAL+yVv3pkb7E5/LJ2EO/f1n/AYm4TLGkNfbXTx5IHRybvOuHz77yz53Y6K1OtKTqfEtWvtzHl7o0w4juBnze/k7A7DYC5s+6gJV2qoACdRcKGbSY9+BhrOOC4P9zwionrnJprlwW5ZZy0LXTgqZ7SeG0uo+PHd1Z5DFvT+53vkzYq89k6qGbz73Cu/PMtAMCX6hM+jp9LevSRmNi4xouGqmacHcbk6+tKcb/opC27/vUtcMTEnEZY8mk7788uTc3dmTy9l++uP2TU/XEO9xoBr2CGGdSKS+KqrJQOYEirW6wjO2WWFwuce+4mL6rUpmozLdjHymdQpxVyRIWqlfBjEK1lYgNrNZZS14odut15dcrKh1tqqFC/HeVuvMITh730sUnA0uiTPf9dKY0OeHc8asX937m4IR/cyI3YDtoY9wIGGRzAJwM06bdEEEmkpkkY/7bxKtWEpBfybMURkJ0GMuKDnXUU/F4BG5dMN8uxyXLcIanqXCrDahcuvVt0vXNZ0jcklUM46gd36Tm+ueWBZmp1VTUrali1n5q/Ujfl9YN5iZhlTgqs+xx3Mr0iwP+4PT01Lt+8+rYxw5OJW5UyUHbSpWVE4mhc4lONQUG7EK3WvoFLUJIeNCgvbfSIWITEJWEVolf73NUPBlR/bBK2VxUxeTFYXCGzbFsRavwD8HjJsSb40Gr4z8XcUBAiHF5b029K4TiskCRQRKEcAGao18xx5E0OAQaWS8KbYqh+FFJlctzxaOOSsfcp8tZ6/O1hvPYQCm77N07g6DIx4YnXvMHf/78zjuef/3wR3dPxd9W8dMpPwK3Di2MY9EiYb9VL+gLoML0/LIA0tHWkDioXJ2lo2Vrrpb8uNuG44arv7SmkkloC1wV151R8VhTpbM2+ko5VUJfKW63y0eBRqsi+9oNbpeNi20utIoo/7IVHh4rkIgkhDQg9C25NzD1JdZ2HiAJeZYY1KV4IpwNjwaUL/zJhFXPltvwJQu+oxXxq8pyJlTOmnrq7NHi5/PpxLc8z69+4IKlXXX1RCKogmPDx/7Ns5f7VupPDlbiNx12c7lGJAXG6cUu2EfSkyfRIkFYOF2IyqLfUAGCijIC0xYCXQHzY67KPPXKxAUgZRuFNfaqKEoNCpRAPymtiugnJRKcY8bBBg0ptrAGPAqu1SvNcnv8yiTHnUFzgAm078WsoFaCI0AUyfCXyjFXHei86BpHg8p9xKUi8Z20qCgTlyHg80YOOoDgAjuNcVc5429cdFb/fyxnEl9/3znZ8SC5FYNjlr5//fmX11ccdfWuA9XN07VozlP0W2iNWAWGwuA5kq5brWjBsdSjqSxToawFHBspWSHgLGfO3XW9BsrGL1NwwKFP9fXloUhxCHe3EAZc6mCW4cUSoCPdReBYryN0heJfaleoJRFGsUBcLDKKBifSOKLS0Ya3tj//ciGXfnAlKhJxTDX2f3x95+i+g9UbJ2vWnZFkab2KccVVPfQtgwlzQSrICAoiCtOPJjjzJbjcgL4BP+3oVOV7SbF4RFy7QiEl35SlleCD2bD1mOVKhSBGhdcsggy6j5cGTG+xaaIJxSUsp95SqSgt6Ef6FWW5R1TUOVIdyNk/2byh7xv3nJVaMX2kbixaUv/DQ3tHX3794O0HJv0PVpzktU0rl3MiCfnEi7wVGeiIaX+1YQEX6RkII/UtxY1o+eBos1jx+O+JeVyKkw0KhS5BD+Ck49ZQ1KpKp2OqPJBX/eUs9vn0hGVgi4yeJK2wSYTpcQAgOGQwecbj9qMEBpj93ug+LQMbiwLdr65EwofdddMRlSfDEcQGhfKkrZKesIp+Ex8T+I6KeXWVUbVqMRV9Zt1o//1rRtMPv7UvsiKtErGoVzD+62NHRl7beuCd+8bdj1bdzLW1SDZXt5KqGeGLFJq/ZKDw0DCSx+xwBn/6BPdM7ymI2F1ZYczXfJ9kzGdDdSGasEi+6u+HIg1wERS+r8VTaI3JC4kHIKouvy5eiBOhnRCOwoLZp49ywSyY+jkGdNWPOTJl0r4Ha5xDUpwuBRfYnVEJKNJQPvqzM9cW/6GYyzx83aC1YhWJmF82Qnjgx9V1r76y485du6f/2UwtcW1dQZEiKVW3bCiTHrkxroW2MjwGK2VLfrfZaqhjKFbCDPsNLSMwj5JPs+2NeMKWd5K4UGQGFokKJPyAleloPFYBpBEQQt2F+dMqo+krMY5x9zzlNWvYNqZymegza4dzfzdYzjx8w5qVrUgEJfio+NvH9q979pevvev1nZMfmqhGr2xE0rlGJInuox04Lp2QYxPYOhlmNKj7IkE4znKDyXc4bywEiT4syVGJJJcvzqkUXTvKGE6b0TmN5Vi2xSNsTbVC6aNAdWQrA07iz0PQEMmCaxeFa5eKOFOFtP2TYj7x5b6+1KNXlu0Vr0gESz4vHn7FX/fwP770nh376x+absQvrfvJnBPLKQfundty78gosU1yrOWNR23ZE3ki0/Uhtp23bvcaQqAkErNyqftQ3S1Bux08dnRf3ToOCqIVo0183ZzrNsgr5/mk6ismVKEYlxG9QI4QTefXpKX7T6H8M+1Q8UO7AnO3eWESPx7Mukl3gL6JjMEiz/IYAFtTx9yKFDAYx3xQzwVgYmho7GZFReqTKuHNTJXy8Z8M9ufuS6f8x+49f3BZT15dDObtMz3wy6lNP/7ltne9sd/90JFG5rK6nc01bfSROO1Dml2+k9TpvEhLFBzx1zDaTKIUWeTWXNDCbHWaFaWFIC35bYMt4fFCd/rbpMsXKqP88P4gKJEFa8TZDPlCEq5dRhX6+K0knDIFBZgruSyAbmawNVFkIMbcAdS+VCN88UlF74zo/JMnQb4Nz7gFSYPGffi4FJMo+pGR5pSynenxnN18brSY/ur6gcI/vm9zcR/TWy2YU/oeecHb9PwLu+783daDH5mseJe7kUSO6397YI22QQG44+EYW6pDuN9EkhE8UDe6460MSGH1ForEqULxhAVLlFalclrm2/EVdA3GNbTKELSQ+lmh7IZAdxcSYsEaWVzfjnPtKioeaRzIJCLPDPRl+Mr5o7eemVm27yUdK3oq00/3+ut+/eru27fumHj/xHTk8oZj5/hkQBocnDfPC6gEerpQIDC95GaB8rSAKCcds+Sk5atqRYrAKmUyMZm4mi8kYKHYyDCOduNkFxRshMC01oEcC9p7KwHa++gEy80ZlyQ6eJbPJbkqympMKKs5NZ6Kuj8t5ZNf7S8XHrvj/NKqUySipzI99ezu63/18t4P7T8cudyJ9OV8OwMWISrqnPJEZRKFQlyyTisUmcyrjw0hr0jQfdwJ3qgXHT86UgzKGD6moCgISjTqiSKVSlCkXAyKxMbFUZ750rkoTS9CEiFqn+L1mpYPOkrPAIFkHYetrRCOgtkNHGiwvDqVSMWak+OpSO3ZbNz/an8h/cRHLi6vmj5SN2Yp0x9/eef6Z365+7o94+qChirmXKsA9tC9A8NQ0cIzkmEwUuDytd2KZOIZdB/3golztHiIoaldk5qWAN15YKptgrBzEUTLlUX0+T3ZnHy9D+0xlIizH3zPIaNAvBoIpWfSNPltPRpgUIiWDzpLb8A8Um1ajSh/UThRJFhsfispquqQmtp4xm4+W0qqh4ZLqR/+/mX9eyWBVYoOZfq3396x4fUdB96ze9y5yokPpK30INiSVE02xsJPXdV6dRkE4J8M5fZUCIGuyDYtDYIC9QQEBi5eJsu1G7KqWE7JVyr4ZT/OxaPVigZDOi1Lwz+zv1Di9SFabmDVU3VIbaViTnkEZYpQmRqVTFz9tC8Te3CklH7sU1eM7tRXr160lOk/fOf10edf2vGufYcad/uxwmY/1pesqZhyozHl2Rx00OxqC1tY4Oau9o4WeYkhlRqipQETCidmysaCeCqZiqtCIQNKYh/sQ5gLi8QljrnCs8wUOkpejpZvuVs4jg5eZiA/SNilVRIXD/1IsUryScz9iZj/5EAx89TvX7l+1SsSIcr0xV84o6/vqLx/x/7mP6t7+avjqYFcM5JUM00ICoc3o+CYaISpVuGgrmkJgxN4ojTmBCMoSYs6AfcNbpvHj47BbdHThPjKeUrZMbAOReZqQlQgK2pBoGanQBjOGZqF7st6J7N8IIVoK49F1xeWmV+miLrTKh6pjGcTzeeTcf/pT12+9rRQJEKU6fVt+9+1fV/z3qYqXu7b5RS/JdvgF7xRqQ7+XLgx0sEEaNp5mWzZIskDyZ4ictzoaJ170PGCSbBYYeoAWlvHq4kyReOOjNiV4dpl0vpDY06TbhkaG2oTeeLrKVJyaSixcJ6D0x1gzPnOHwt6uo9LRPpxB5TJ58zvmorK511qynL4lfOZ8Uy88cza4ezXLzl/3bJZuvhkQJTp5d/uum2qFrtSRQsp14dr15rNzWfYIAgGlYezwlnxfA2ZIsB6F7XC4RLJwDKALpsmuG4WXbuo6pNnSRlYJPpyjKdBa6QHY7RCURu00MnpngjfoRctf6C8dGvR0NpQqBiUKe7RKlXHCyn7B8N9uS/3FzOP3dqfWrUjd70gWnPoyHS/suKWz5kNfO0aTJIVdWTLYzBPFAyqQ4WicoHYOvFbs0ahTjbCrflStehICUS3VfMgmbTh1mVUsZiTV8/ZL2rDFJpKFJAo1vyZ6c73LAriLVsgk6xvTiFj/0jcO1WfKmcTPxouFx4YKvU9efeavtNKkQhRpiaEwPWDFlceINEf5jAndqV2qS6ch8eQQNhwXvxmMfnYXRVgQbjQS0PIijS0RSrq1YTiMfCD/JGyg6ShIcg4TXT12sfHhm636lhoadAuVydpMbHQn7RcuHhQpKTVfGKolP3CaLnv8bs35k47RSJEmSKRqHLZeRZeGUUh2AJx4Qu+bh0D8W1acJFz0mC1NFGhEBTQigXLDeK7Nk5zRrlORcUTSvUVMiqTsVVM5tshDvuPKLf+Irp+a5bdRrMUMFtt2e8S7sXQ8oAuS08SIJ9uAy1xdSppO08MFlNfziSjT9+5MbUqZoAfC0SZ2JhyiVqu++xDUfj0gO4bV5CJQImoTEpBmXR0gIKHeBJ3KaaXLhfAbYl6Kobi8mNjA4NFsUg85lwzPk/SSsQX3DRRpkTwutESusWjl4Itlk406KtYEW8qnYh+r5hLfSGTST7+0QsHTltFIgJlcmBiICSRJuSCfQW6bhYUKgqFimuFgjHnGLCWHVov7eKJuQ8q7zjk59QDmacQ8rVzzgDvH+iT5Yv5ZQq6dvKZF5ogMcEsf1hgWXCy0tBKZsR8gFwEhPqvxuzoU4MD5S9mc31PfvLS4dNakQhRpnjE/Z3lVWZAYBT6CnDz5JGJ/BDYkn+iLbgEimZmQYhrB+p297SSHR+F01sI9UpjNvG1CjYUKEOgE9LvozWOeK7j1Jrlcl9zZKSg5OMdgBesa9eGMEfvCnjexAnvzwfdIPUicSdnhS8kzaUD7Js4+8iNHHGKEAcaYv60iqupasqfeaSUUn/jNmqPf/rSvim56DSHSMS/+vxLNz318+1/6ETitydS5YydKKElzijXT8jABBmrWUslowuoK1dEShRMTykJg4IroA8pMNu5YIQQRM1YSgR51GQsh34g67pcjiumXM/xHL9SW7M+/1r/QIFLdF3EyHztXOcHZUbZqXg6nxrSoEh63eiMR3TySD/HI7qLK7fUuwJ9HiG4wFzTze/Fgml23IM/QT64cVDcpsuS+SoB9z8BzyXSnFBRr+alou53h0uJv7GjkSf/+xs3VvVVb6LFzw/+Xz+9acv2fffE0/1n+nYx7kCZHC+JKmeHIYgkgBKhJroFoBPaSmmElWguhWJkc0F4P4C01MeInoqkwQbCCaYCxWK21z+YeWNwNPUdzrcD3g+3bp3VGgvXyqQbiXYeJWZXdnsC1xpF0OAnVfReq+EJ0M1bRqPSioMVXCNbNFQLUyrkO9gz6H0PvS8eCZe2trh0sauizoyKulMqWpvwUnFn94ah/P2I9dS/uGEjn5+8iTfxJt7EUkKp/x+/tC+/RIsBpwAAAABJRU5ErkJggg==;" parent="1" vertex="1">
                    <mxGeometry x="490" y="206.5" width="82.98" height="64.5" as="geometry"/>
                </mxCell>
                <mxCell id="7DJwyTh2OzJJXSj787ry-44" style="edgeStyle=none;html=1;exitX=1;exitY=0.5;exitDx=0;exitDy=0;flowAnimation=1;dashed=1;" parent="1" source="7DJwyTh2OzJJXSj787ry-46" target="7DJwyTh2OzJJXSj787ry-43" edge="1">
                    <mxGeometry relative="1" as="geometry">
                        <mxPoint x="401" y="239.0436144057942" as="sourcePoint"/>
                        <Array as="points">
                            <mxPoint x="400" y="239"/>
                        </Array>
                    </mxGeometry>
                </mxCell>
                <mxCell id="7DJwyTh2OzJJXSj787ry-45" value="Trigger" style="edgeLabel;html=1;align=center;verticalAlign=middle;resizable=0;points=[];" parent="7DJwyTh2OzJJXSj787ry-44" vertex="1" connectable="0">
                    <mxGeometry x="0.0161" y="1" relative="1" as="geometry">
                        <mxPoint as="offset"/>
                    </mxGeometry>
                </mxCell>
                <mxCell id="7DJwyTh2OzJJXSj787ry-46" value="" style="shape=image;verticalLabelPosition=bottom;labelBackgroundColor=default;verticalAlign=top;aspect=fixed;imageAspect=0;image=data:image/png,iVBORw0KGgoAAAANSUhEUgAAAGIAAABlCAYAAAC2oDa2AAAAAXNSR0IArs4c6QAAAARnQU1BAACxjwv8YQUAAAAJcEhZcwAADsMAAA7DAcdvqGQAAB7kSURBVHhe7X0JfBzFmW9V9TGHNLoPy4cOfJ/INja+wAfggLHBeDlzEAjZJIS8/B67YWEfm10wkLC5NslLXvLjCMGE2MYGOxAwGGyDjY2P+D6RLdmWfGkka3TN2d1V7/uqe2z5whp5NJKy+5da3V1d3V1V//qu6uoW+R90D1Bn3e2w3xI3LXt/5d2fbt06eMfJY64w5cSC0gpYNM4IixmkOC+HjB8+vHHqiNEbJw0YtrzEp2x3Tu9x6BZE7Kn13/7nzVtmv7x0eWmzx8Mimk4EszwaZcOYoF6Lc2YJAaWF4sKvahGicEI4kEMVSqjKajklNUZMBKngJN+rBmcPHbbnpw8+uDyH0s3Obbo1uoyIWotrsJr15Z88f8eWusYRYW4Op6qiibBBGPR4kzEoHTS0IIq9BiIAWGATDkHDSzDY0IEYSoQVUxjRVZ3ghYM80qRTsbtE82xZ/NgPll9dmL/ePqN7IuVEnDaDnpOnA9c9/OsX5+03zJGRWKw8ahgatKcmezyBBrfbvN2QlcDT4uRQRjhIBsBgnDcOyMnfec+1Ezb9cNa0ZYqibZWZuhlSSsSmU37v7qojs597ffHdxxm9RdMU7LxaNBo904hJB5CrUMXIVNjpgWna8t9969HFVxfnfewc7TZICRGnhPD9ed2GaY+/tuiGHK9vTKMRLI+qpk/jujwuQO10GhEAMO1SyKiw6nyats2KNG/c8ewvVpTlpW+yc3Q9Op2ItX5/3spdO2a8vHrNfYGm6HRTZy5umG7dUkDXg3J30FlE2NcVto2BX054RBVa4+C8jL9+8vRTL+VS2i3I6FQifrxy1aCt1Ucf+LSq8tpAa6jc4iRHgKEFBU7AGwKDm6Ax6CCQjLixt/8ycIG5f1B+4dKVT/3rgqJuQAY2S6fAL0RhvRm6fv3Rytm1zS0TuMlzQAFJEhCpIgFh3wr7HJUdAF3cmGUWHKj33zn2iSe/ebS+YRrm6Ep0ikT0uv+r/dLy875tZuZMOVFbP86kzKuAWyRY6hr/UpDSgQ4VSAhn1GSxaENxn37r7x085BNIffHH984LyYwpRtIl4jgXeXNvnX3z0ahx2/G6wDi4hRfZliqpuwALxEA6IDakqrvgSP3pG9/aueuuYZPHT/hMCPTkUo6kN8+s/3yuZMWu3TcxrvQHb8iLgZctdl0vDYgLNCLEHCAbvmPh4IhfLlx0l1pZXW5GheocTRmSSkRlUySvb37f8SdCkZEWI97u0vhfBGHrKRIVPHNnzfE5v3n//ft3VOwf7z92IqVkKM76inFCiIJn33pz4qZDB+c1hSPljBOXkJFy94YAEaFgOBynKuNkU0NhFPpnZaDxs1ULX4/K1BQgaUR82Nw6+lD96fsPBxqnw24OamAORHR/Kuwy4l+gg7RaVlYgGOSHTp9+8+SaVUE7T+cjKaqpxt+a58nNG3mkqekaqqgFqHdt29D9VdPZjoLONZSXquRoU1P2xFEjhi6prAL1mhokhYin31g0wGLKNNOlFzlJPRbYeWKCF2zeu3fuvu07h1ccrvY4hzoVV0zE9iYrb3sgMLTK7x8Bu5l2ak+FrZ4YoXk7a47dduBU3e3LduxOiVRcsY1ozi0cW2cZdx1taR4DEaunJ1iFy4GCbROMZbeEwkqFv+7d2rVrGp1DnYYrlohVe3b2Plh99GrYzAZP6e8KJ0LNOWNGDCquTkGQd0VEQAEzM/oV9YmqSiaOXnSDEYykwqA0NxqM3PLehs15TlKn4YpUU97106852hC47USgaQjoVa89jGE7g8ldzuLcvbOI94FLHe8IVMrS6mrr+ea9+1cHNq2vc5I7BVckES+t+KB/5bETY6HyedL1Q+8PIiPK2yy4f35a2/RLHWuzL6MtJy+O3p4/TCF3Hc5wUC9p4JwELCOn1op1X9UUtkSaMKKFzc0BH4+ECIlFCIk6C27Hl4ultU2/1LE2+zRiQJpBRMwkwjAJtSzCLJsc7sgCkhNfkgWDWyQK9wg7+50JevvPf1b+Tq2fqKoKHQCqJanhhDEG9cTeh91M5rX3cRoL5Pnn66eNXP237fO2VR2ZCqnZdo5OAtxPNjDcXzoEuFYVwlUIHBUoHwSQVC64jQ5octjA6TqCaPvKS0oeeemhB9dfk+2DHtE5oFN/9OPd65qaiKJAw4PY20RA08bHiaDicWlHIrCOGDVDNhBXlg85czrdSMMNUC2hFFCLE97UTKxQhAhNIQLKDYWHgFglFNdQ7mQ5b0gEEfqxb0+b+so3b5j2ayCi3jmUdFDl0ScEcXfJEHyHoQkg43QjMUIhwoAM7CiSEE2XpKBUJAfYAVQyvaxs/eiy0n/8yT/M3u8cSDpwPp2z2XMQhXYWOT7iSnMRJRYFOxIjxORJ9ZjaorKqMmfl6lUuZ7dTAJbg7EyKngI5bA3K0YzEiIVzokBCMKV9RFw6lzQxzraUBlzBnwg4DM2hzh2IZdRK2QBjkgH2wTIIN2M2EZKMSzdyHBzO4wSf+aAxxFFiSy5MEeCwMKKC8VfAM2BgHzQG93DBNTVOc7M89iSsTgJVHn8W7pqy5x9JAfoG6D2J6sNEtLYQ4vUSxeWGkDKdWGgrvsBG4OwRnMmBDoYCnhbmxVnmpjTxQKU3jaT70omuu2DRIC5RiWhsrJ43duyrJX37Lfzlxk01qkZJxIiQ6e50/vyddxtXpSlX7E31SCKw8Rh4ePxwFSEtLYSmpRHidhGW5rssEVLlaBq46pQU9isjala6dIENywQpAEOPLmEcIBVIGPyFtXoYOGwQxLJQekxhkFKmNtw1aMgnd4wZuxzIOOCc1SFcERHxImMPxQX30d8/O2EA0daZRHVg543XF+oECdh4CTidDhECiODgeqNEsDRcLk4ElgnDIbyDouikb/8BRLjdJAYWEq+DLq+M4AHSZW0DLl1n53xYGN4bzKpgcA6kU26ddAvzwI2lxevmz5y5vIDSDr2jAUT8CIjoWOxoFx0KBxtMBiAg5qAz5HsLkMaxh2EqVhYLDRllXllXiFsoRMmwhRXkqCbaC0kE3OfwIRlT0LR0wiQZZ4nA+yHs5+aQ362TgpJSYoHKkQ0v05MJXufi4QMTcjPX/PrmO9/KT3ftdA60C1dGBNRW6lsLDKDkQTQpXNTEVDOKPRy27SAMexvUG+vOQedaqHeBCAqaGU5NUyw2RKqA9rYNXOhSRJhAhOytmA3JgEBQTfOQvLIBoL7AjsR7PpyfTGBArDDdUk3j8OiCzL/MnzP79aEJSMcVEcGgklgdzkVDIeEHbiwr2fLQLXPevOGF/7edqxZRwLdXMQNEwzI/kIUkWBSMoEPE+//ygy/f+4tfPdpoWgMhS/tGg+NEHKl0VFMaUWBBIjjeBIjAO1II9jzZ2cSX3xsib/CAsDM4kpJc2M6zAFHHjqmYSr2m0V0Dsj0bXrlj7tI+lF5WOqjyr/9md9d2A0dysCGws1lEs2JHJxX3ffemMWOXvLfygz1/+Y9nQjkqbfe0xX1CpI198vE1JnePAY8mMSJAIoQjERR6PfNmQmMDEeCGot1AEtIys+TwRyqBXINMGh7Gjo8tK1r8i+kzFva9DBlQ4sS6iG0PoMeB315IaNU9/QcvvW/cuAX3jh+7ed0zz9YnQgJiGKVBjvojoc7QBnAa9nSsBa7RFdXBi8rrXUS8mRkQH6R80p4DobUaZumHlVX3PvTWm1+vMQQ+xbwkgIjEgSrJza2Kq4t7L7tz3Ngld02ctK/M5e2SybtxSBrRNrjAGLtBOmDNVIwD5OGUIt4hVKYSXbhKdp8Ozvv622/ft7fy1CXJANX0w4REAg2q2zT9Nw8etHTW8KGvPXjttTtVSs8YmWYher+ycuXUV9etn1IVDmXFQE9bSDfcRQHeM0Jhc1L/suO/+l/fX9mPUvkKVfoT/7wpQr1jZZb2oK1qam4GNQSqyeshWl4+ceUVEC0jk6gQV0jvCIWto9LWQcghGLhl/NUDfANWMXgVaM+X93/jwR/JxPNAlScgjqDtjyMw+CnR9T2js7Of/eP3vvtOJj2rigItzQWPLfvLzL/u//yeVk4mxkBLoFd7lmloGAicPKoays3I2EIbG7b97OGHDz/4q9882upyD4ecHbIRaZ4SkkOGkgy1L1FdENx5FRLODZNgn2ZiuUznpNQCqbddFADsMIuGvJq++ulp4/79y1f1v8CbQl/P2WwfgGv/oOJ+G+6aOHF/WxIQi3bvL6tn7J5aKqaGiciF2MAHEYUPmHYW4uOK6gsKUngk0DTjGFe++70/LfhOq0UgwmqnNJwHF8kgBcZwUhQdRbJa+xBfQw7xHc8k2Ydyia+m66ZZxeVQLuhdMuENGuaY3370yUw8fj4SthEKZcHq5ua/3Th29CEn6Qz+uOZDfVvFoQIX0X3QaUE8z8rC+VBAmUCckedvbhlJXczbUb/SJTJIGi8kLg6xBAgUBd1JQUFrQY146iG2kHqxa4FkMJAPS+FZfqZc+8LB/ePtI2dxjuJoD7jFeUWtPwCh/AXGefzI4fV98wu3WeGYH9sVdSS6ulLqzpc8SLZU+MM0L0nYs8FroQBhvIA/Fx9zE6Ccu8VbSlBOXED9uMKEXvNfn229u0ac60UlTISgVBtSVFS6sKLygnmuD82efTTGQ2sEDR3nII4qhNsyuobAjdFzdbXtWTiBELKSEJwyQ8xggLMWzKwnUdfZ5wXY+LHMCAkWtXyhVKYW6DjI5ihqNemc7y9cdItzQOK8bnp5QPvmBRoapj236E8DnKQzKGdaaOZVJTvmjRixsizNtxPaq565dPnoKbkjCg590MbMQ0m4MED8gw6SuvJjxF9+kvjHnCR1o2pJqCBls+oTgQpxcPH2UGhyqxBnVJTCpsx4CpSqs3t5KBbTYtGYMrC4z/H177xz9BdPP93qHJJY+6fFIStiVUUMY9+AgqxQLNyqNbW0hjjTmiijEcjis3N2HChNqHFESzNoNZWw7DRiZYOEFTISyYqSWFaEGGkxUE3dRRrOBUgpZaorvanBH1u3YMEqTAOJSEwtoNExmVJ08HTgxt+vXnVDoxCFziEJqtDwfZPHVbzw4Fc+ePLGGb8Z7NKe1IzoE/m+9Kcn9++/VI1FdjKFneSG3UgYHCYKLDHKhOJ2E6bbD85kLdAmdRO7cBlAWGHlfVBzEmfQSyQ86IcNh56mRXhDjlfbPWvQoLV3Dxu5bvaIYduhx19yusmGprC2s+pQ//mL/zR4wphx163Ysu3mmEaHUzDi8aALe3q7IOMIStSGOqJB46vZOUTPzCJaVm47Hgx1A0CdTcWKqQb/9MR3vnEDJiVsIzCyRipUQXMaW2LjVlccuf9n69Z+//EV79zSIEQ/J9sFmJTpMR4ePfLAhh8//97Xxo9dcOvwgW9mRiMVGsPnxpAhkbaTxNm9HkygXPckYIkVqAO+2hZH4sYaL4NPsdCuMO49EWwu2XDk+NSFW/c+8MDLL97/vd/+ckZYiGIn+wUoo9S4raR03w8mTVlyW0nJonF9+hxCYhNBnIbOecCTCqD7BM2nqtqvP9o8BFNANT0HqgltaPthu4SwOI8VmakS+Im4VOtUqartL8jPXXe4vu7AY7fNqbt/9OgKD6V+mbENDCHfZR702rZd9z++dMm9AUJK2uvG4t1xBFgPnCY6nMKysnqWakIiBLW4S6meJLTfLnngnp9DqbFaiQEHtaRu56pcMFYzmOlutUjp3pAxfXVl1SPNQvznX/bs/uHjS96YvbDi4AUxh0apCcu+r4wZteAf+g9YCgqqtiNl6YnAQBe6sGLEjL77gy2TIObqm7Bq+iKgby9U7qYud5+AYQ5cVXHwugU7d37tj+vWfX3KM8+PAb+5wMl6Bi4g4ycPff2NdCGOwOk9b7ZbB4B2TU7r4YJF3C58CWYwyrF9tJ1wlNIlASJHOINrWrA2iKdJ0Sd/ePDgwwcaA88/9947t1st5gVkZFC6OU/Tg/J5Akrb37tkoAqBJlIpI2GI7sJhfMU+QSIkDeivX4QSdD/xgQiaEJxMgIQwwwINpBYHdH36H7Zs+cq2wKkZTvZzUD54MBQGrUSi5emJsDscdjycRtEUaE7ca8LZcToREZXwFtht/ww3uGdY8Y7bGvBf76Scg769ilBUwTO1JyT8PUN2VNnfKHGBdGCdEyeC8Eihrh8alO5bn6mq+0GNNEHyZQmBoM1kwjrdx5fV4CSdg4OVlbKHoDuaSKHOlcmegbjMC86Jy+l1CRMhYkbdmNLS5cv+zxM/m9D/ql9l6/obPk3ZxQQPwA1a4C4tuAafSi5wCiyiSRfiaL4i3ppRVrbMvtJZRAyRt/Xz/YphGtCw9uS0ywN6kaIQzeUhuttDXB4PbLsIw4nDTg4b8WrHe2HXA8uHKlhRNFKgu/HxaKPCpkxPaNAPLlN/8FTt67/80sx3Dy5ftn3jhx/utFoC/kNHKgJUVaotqlRQhVUQRauA7l1hUqsCPNX9PsrXbnlq/rIcSrc4FzqDa+becd8bFZ/fYFA1D86BEOHyLYY50hWVZOfkkQxQaxmFhSQ9L58IqJwlONxexYBJ5sSeJ6sP1+0OXGCHgMgajKcrdEtJ75Vzy4e9AgFdYnNfqWVWMst6Ivbznyx1kq4IjUJk9nnkkdeiGTk347MOJ/kLgT0Kx/UyjBjJzsgmemER0fPziDuvEIjAV7igwfGZdixCgs0tpDkQgO0YkIBT8LsBFVB2UxERn6VtW/+PX36yF6UfJ6yaAMzrceuHk/A2/kkhvFura+4I5mYNhqbrSFkk5Pt1IAXgs8GC70nANja47iae7FyS06sXxDegsnAWYDcAlMKCUjZFjegGJMFJS7BwjKVNHDBgwsHqmqEQPSdMhp8LDRbvwy/+vmj9oYP33fH7F+6nljIIDnVo8sBZoNpxVA+6hgCcua0CAR5fBinsW0LCJhYfvBTwztAO4ehAVwBubamc7Tr2yDcec5I6NgxeADbgzpEjl9w6cdzyOX/4wwEtFAMd00SGgr6YN/cOMrj0KqL6vGRf9RHy9rpPyKETJ0nAm0a0CCfXDR+p/+CG629/5tWX7/i0pXkgVzxDdJyUDG3XXmN6vmpyFfQiLlBNrvwCWzVdpOfjpcHRIPW1J0iwpQVcZdsuOpylFGC1Yowr79d8+2u3O0mJE6HJ8lNiMOHnjNcqKo1hmhIMk7RwhIwpKiTXT5pM+hT1Jgb08T2Hq8gn27eRo6dPk2aXm6gxQU3VlW4wOkiXvZITA2cq49iVvMPlkSgR2NhxT0xKCawP7duD9i7lRKB7LqgRyQy7Vu7/3lfbEPHEfJDT9sdl2GulSINkUG7KMJ3hDG80jtAA+MYDDnPgICinJuEmJxrVIS8OJJlADugHvAbkFzhZGKDwxGZxdIQIhPSd5LvaUI5gKzlec1i+J9f5wAIgAdgWCsnwpYea62pfrX7k29+1j0N9Epnlh8AGQGNIsYuBH29CEBYD99dSICqGtYKzNZgBjQ4xAZIFHowJ+4YKpEB7K0CaAn2SMV0SkCgJHYFtD+DessjQSXSdpOfkkqz8PkSDOlhATOcCbgxthn8tbkWM1tCOD777rb/KQw7O7Tr/DSBVFHQQlI5skKLGUFhOFsb0+FzVZAOf32An1S0czrCiWkP1zqGUvucclvi7IAIlzw7avhioIFAqcI1BH768MvjqMaBanX+f4Kiw5APUEj7n56QlLxh6b8Gse5c7B86gRxIh30KS0KAXQ3wAah5NPT61k/HDJSBVAxzGNXZ+XOQrV2m6nLGOjy87A6iUooyHsjIytj351btf75ueudo5dAbMArHsacD/MYTiTnGQELbls2toUGzgRIHnFvbpI50NJwpJOtzQU/JMPXSs6fiOXtlZawqKsy8wSvjPRnoegADdsohHg96sgTigSwhpti5OTMWAM0eo7oJr4sdVkkuE7CCwGIpoyCj0ffC7W2etmKrqF32hhxEeO+xsS6BX1HaJAx9k4Cu8KP7n5rHTsRJYjbbHUPTjwM2zARvswTmYluiC10yPcaIHWogqB/cguJcSAQ0JbitWPDHgdB5KBg0eShT1ykZtsHxYRymtsAemC9P8hYry4czCwoXXFZdssHNeCPq/P1r9T39Y/dGXLNPsBUaPoXuHkAYQ1+jv2wlQSSACfXRsDfiVH9qCQ/Gq47YCxxmqCXkS6GToudKNlUqEQRuKYtWjEN1wg+FsX/yCFZMVhPvFmoPEHQoR3TRIekkJSS8uJcKbTly5ucSVnStthl0SpwCXAUoPXluHjcq9+6ADxZwjiSF+N+yA2HJ4TcXi/l4e/YPbBw5ZPK2ocO31Zf3wscBFQRdXVRc8/NLvcg3DcGGDMRy5xEojEW2WOBTseZAB0yQRbY4hkCj8GhqmYz7ThPgB8t08fFThmF5973nx7XfmBCPBPN10E1NpX6WxsfAuMvY2Lfkkj4IqcZWVEFfffoS604grJ4d4IDZAys82S/uAhppC4Flz8BCscWpRYudjbizjmdktkABxlr9Xhr7mgYGDXru2T9ln43pd/IFYHFjqlGD+Cy+UELfnpy+t/2yOGWp1EwEeD4vbrLbFiDfC2TSUO6wcDk+ADpJvilKXF4goJa6iXkTzZRItI4tobvvr0bYstw94F6kygdy648dJtLnhgs7VXuA3O4CApjRiVQ/yZWyZO3TIW/cNG7bWp8oHZF+Iti3QqZg1/+mrgqb55yOtxrXM4MRUQRrORNVti3EhEdiwuIdH0BZoLjdh0Piu4n7EXVBAVLcX0uFaSFQHgY2P3346VXXQHp2VXgwOrNmdAD9RYafivpDjaKiGoEvYL9Nz3qJFItX9M9N3jigq+Kg5FNzwmxvnnHB7Lk8CImVETJw/fwBUZkkT85SjIBhqGGqX4CeQUCVC+2jeNKJmZRMdpEFN9yE72BxOpo4BicBuUbNvjwz28GMo8YFI7AA46ozbKD24qJZGYtIcRQNZRBy/Kitre7EvYyVprN/6w5tmnuiXm4PP8tuNKyt9Arj1pZcHmIIsqeVaOQ5HWUoYKp84EdgI6G4qmRlEB7sgXU+oht1kHQcSocD1jx84QLgBkoAjs5rtFuMPfuYUbZ9BeD0srV5OrII0T0in9J2G5sDHXxowoPYbU6edGKUpHfoAY8qImPnyggEmpUtOUr1cYxoY2zAIfmJEYM/UXDphLg+h+LEsD6ydkdZkSAS+2+Tft+skeMdh+VEmYSEFOPMdxACOU9FcVlC4qZFbn50K1Pon5xVGS9Kzdj9707Qr/vpl6ohYtKjUFOyVBj1zGn4rQ+UWvvDiHG0/0CujbnB95ZcF8PwrqwIOl4RVSjRwnQpJpKK0pW7FxydPbj5NWYxFDamSdBBDdOvBZY5OLi09cef4CYdm5Cemei6HlBHx7L69ebWhyKNbWq1vQr0K8EUTVDOJQno0GKsACYkHbxdCk0SAVJl8740Z7sX/PnzQEjejleChtf8hTRJgy3UKMHng4Kbevfuu4G61DiNYyw3qSdcTXuQ3NjTwVZJAAgLHrYAMvyliz1zXt+TPXoUdSDUJiJRJBGLcxs29wKyu0ExXeUyFwAxdoA7AftULlysHztF1G+yTtdeN6tJ/k5kyiUBkRCPcY8SCJtVwgpVs0I4syYRFaQN4qq85u12GlBLxpays6Gi3eztnBlYeEO/ZHVmSAkvhZO/H14962dnvMqSUiO+PGhmaW1rybqbRWoGj/90ADW5LLHG2uxQpJcINRvBvNac+G6u5N0UYBffPJqM9c12TAbwLDttjWAB3tSwmPl87pfz/4l5XI6VEIL5SPix066ghbytEVNjPOFInGajQHOplxeHWHRvz7gSknIgiRo2fr920cVQktlG1on4ICCCoSprOvyxiEMHh/9bGD296o6L9M+s6GSknAvHTa8bGHigrXprV5H/VdNEGfEKGD386H/jFHDmWa4ZIpN4TC65zDnQ5UqcXLoE79xx48WRjdB748zm4j3OLks0Jaj+sKI4bwa/FqXrKG215cc20SU/bOboeXU7EKSGmzNyx7VuesH6rImgOTsTCfyOQ3Jna9pAgEGFxpgQVRaxbP27UbPtY90CXqKa26EXpp99JK3jBp9O3TGY12AYV/yZFLCygIAIEh4hgrYzSWi8jn17H+HrneLdBl0tEHDV1oSn/sW/LtyrV9FkxomZQRjUc4LvwsScW+bIk4aM1HC+qhdyfg3RFOLPMUc2tVc/MnLiykKofylzdCN2GCMTp+tYpT+3fett24h5PPL5RNEayTYETnOOzReAHFL4c6pCzV21I+YGa4ONMcIctMMjHwDHawSlftWli94gTLoduRUQc1UJMe2zj9ntqOJ/LmZojnxlDOj65xA9Y4vCIPUSCJMAPxbdOBMRnSARrZJy8uH5K+b/ZOXoGuiURiBZLXDv/04337FJdg4OK6o5FDaIzLZ0RtcxkZg5+mV5O6+Ec/11FrWmJIybhMaZpLSZT39sxYfgLzqV6BLotERfDplZj/L66ulsPNLeMqwuF03C+lKoqDQVp3q1XZWe9+80++R36bybdAT2KiDiOHa8dzrnVKysrg6Snp+HTtCPOoR4KQv4/mChb5odYioMAAAAASUVORK5CYII=;" parent="1" vertex="1">
                    <mxGeometry x="300" y="207.5" width="58.22" height="60" as="geometry"/>
                </mxCell>
                <mxCell id="7DJwyTh2OzJJXSj787ry-47" value="&lt;font style=&quot;font-size: 11px;&quot;&gt;Uploads/&lt;br&gt;Created&lt;/font&gt;" style="text;strokeColor=none;align=center;fillColor=none;html=1;verticalAlign=middle;whiteSpace=wrap;rounded=0;" parent="1" vertex="1">
                    <mxGeometry x="170" y="270" width="60" height="30" as="geometry"/>
                </mxCell>
                <mxCell id="7DJwyTh2OzJJXSj787ry-66" style="edgeStyle=none;html=1;fontSize=11;entryX=1;entryY=0.5;entryDx=0;entryDy=0;exitX=1;exitY=0.5;exitDx=0;exitDy=0;startArrow=none;flowAnimation=1;" parent="1" source="7DJwyTh2OzJJXSj787ry-57" target="7DJwyTh2OzJJXSj787ry-43" edge="1">
                    <mxGeometry relative="1" as="geometry">
                        <mxPoint x="864.1666259765625" y="300.83331298828125" as="targetPoint"/>
                        <mxPoint x="770" y="430" as="sourcePoint"/>
                        <Array as="points"/>
                    </mxGeometry>
                </mxCell>
                <mxCell id="7DJwyTh2OzJJXSj787ry-49" value="" style="rounded=0;whiteSpace=wrap;html=1;fontSize=11;" parent="1" vertex="1">
                    <mxGeometry x="319" y="329" width="424.99" height="98" as="geometry"/>
                </mxCell>
                <mxCell id="7DJwyTh2OzJJXSj787ry-50" value="" style="group" parent="1" vertex="1" connectable="0">
                    <mxGeometry x="619" y="345" width="80" height="60" as="geometry"/>
                </mxCell>
                <mxCell id="7DJwyTh2OzJJXSj787ry-51" value="" style="dashed=0;outlineConnect=0;html=1;align=center;labelPosition=center;verticalLabelPosition=bottom;verticalAlign=top;shape=mxgraph.webicons.adobe_pdf;fillColor=#F40C0C;gradientColor=#610603" parent="7DJwyTh2OzJJXSj787ry-50" vertex="1">
                    <mxGeometry x="40" width="40" height="40" as="geometry"/>
                </mxCell>
                <mxCell id="7DJwyTh2OzJJXSj787ry-52" value="" style="dashed=0;outlineConnect=0;html=1;align=center;labelPosition=center;verticalLabelPosition=bottom;verticalAlign=top;shape=mxgraph.webicons.adobe_pdf;fillColor=#F40C0C;gradientColor=#610603" parent="7DJwyTh2OzJJXSj787ry-50" vertex="1">
                    <mxGeometry x="20" y="10" width="40" height="40" as="geometry"/>
                </mxCell>
                <mxCell id="7DJwyTh2OzJJXSj787ry-53" value="" style="dashed=0;outlineConnect=0;html=1;align=center;labelPosition=center;verticalLabelPosition=bottom;verticalAlign=top;shape=mxgraph.webicons.adobe_pdf;fillColor=#F40C0C;gradientColor=#610603" parent="7DJwyTh2OzJJXSj787ry-50" vertex="1">
                    <mxGeometry y="20" width="40" height="40" as="geometry"/>
                </mxCell>
                <mxCell id="7DJwyTh2OzJJXSj787ry-55" style="edgeStyle=none;html=1;fontSize=11;startArrow=none;flowAnimation=1;" parent="1" source="7DJwyTh2OzJJXSj787ry-61" target="7DJwyTh2OzJJXSj787ry-59" edge="1">
                    <mxGeometry relative="1" as="geometry"/>
                </mxCell>
                <mxCell id="7DJwyTh2OzJJXSj787ry-56" value="" style="image;aspect=fixed;html=1;points=[];align=center;fontSize=12;image=img/lib/azure2/compute/Function_Apps.svg;" parent="1" vertex="1">
                    <mxGeometry x="509" y="310" width="48.73" height="43" as="geometry"/>
                </mxCell>
                <mxCell id="7DJwyTh2OzJJXSj787ry-58" style="edgeStyle=none;html=1;fontSize=11;flowAnimation=1;" parent="1" source="7DJwyTh2OzJJXSj787ry-59" edge="1">
                    <mxGeometry relative="1" as="geometry">
                        <mxPoint x="619" y="380" as="targetPoint"/>
                    </mxGeometry>
                </mxCell>
                <mxCell id="7DJwyTh2OzJJXSj787ry-59" value="" style="verticalLabelPosition=bottom;sketch=0;aspect=fixed;html=1;verticalAlign=top;strokeColor=none;align=center;outlineConnect=0;shape=mxgraph.citrix.process;fontSize=11;" parent="1" vertex="1">
                    <mxGeometry x="468" y="353" width="52" height="62" as="geometry"/>
                </mxCell>
                <mxCell id="7DJwyTh2OzJJXSj787ry-60" value="&lt;span style=&quot;font-size: 12px;&quot;&gt;Split process&lt;/span&gt;" style="text;strokeColor=none;align=center;fillColor=none;html=1;verticalAlign=middle;whiteSpace=wrap;rounded=0;fontSize=11;" parent="1" vertex="1">
                    <mxGeometry x="449" y="405" width="90" height="30" as="geometry"/>
                </mxCell>
                <mxCell id="7DJwyTh2OzJJXSj787ry-63" value="" style="edgeStyle=none;html=1;fontSize=11;endArrow=none;flowAnimation=1;" parent="1" source="7DJwyTh2OzJJXSj787ry-56" target="7DJwyTh2OzJJXSj787ry-61" edge="1">
                    <mxGeometry relative="1" as="geometry">
                        <mxPoint x="347" y="381" as="sourcePoint"/>
                        <mxPoint x="518" y="381" as="targetPoint"/>
                    </mxGeometry>
                </mxCell>
                <mxCell id="7DJwyTh2OzJJXSj787ry-61" value="" style="dashed=0;outlineConnect=0;html=1;align=center;labelPosition=center;verticalLabelPosition=bottom;verticalAlign=top;shape=mxgraph.webicons.adobe_pdf;fillColor=#F40C0C;gradientColor=#610603" parent="1" vertex="1">
                    <mxGeometry x="329" y="364" width="40" height="40" as="geometry"/>
                </mxCell>
                <mxCell id="7DJwyTh2OzJJXSj787ry-68" value="" style="edgeStyle=none;html=1;fontSize=11;exitX=1;exitY=0.5;exitDx=0;exitDy=0;endArrow=none;flowAnimation=1;" parent="1" source="7DJwyTh2OzJJXSj787ry-49" edge="1">
                    <mxGeometry relative="1" as="geometry">
                        <mxPoint x="800" y="240" as="targetPoint"/>
                        <mxPoint x="754.99" y="413" as="sourcePoint"/>
                        <Array as="points">
                            <mxPoint x="800" y="380"/>
                            <mxPoint x="800" y="239"/>
                            <mxPoint x="780" y="240"/>
                        </Array>
                    </mxGeometry>
                </mxCell>
                <mxCell id="7DJwyTh2OzJJXSj787ry-57" value="&lt;span style=&quot;background-color: rgb(255, 255, 255);&quot;&gt;Send Split files to Power Automate to&lt;br&gt;&amp;nbsp;upload into sharepoint&lt;/span&gt;" style="text;align=center;fillColor=none;html=1;verticalAlign=middle;whiteSpace=wrap;rounded=0;fontSize=11;" parent="1" vertex="1">
                    <mxGeometry x="630" y="220" width="150" height="37.5" as="geometry"/>
                </mxCell>
                <mxCell id="Jhu4a8b8uj9eVsGePRUA-1" style="edgeStyle=none;html=1;flowAnimation=1;" parent="1" edge="1">
                    <mxGeometry relative="1" as="geometry">
                        <mxPoint x="320" y="440" as="sourcePoint"/>
                        <mxPoint x="530" y="440.9528130671506" as="targetPoint"/>
                    </mxGeometry>
                </mxCell>
            </root>
        </mxGraphModel>
    </diagram>
    <diagram id="CpZ-yPI9qMvvykT1imAL" name="Option-3">
        <mxGraphModel dx="1020" dy="539" grid="1" gridSize="10" guides="1" tooltips="1" connect="1" arrows="1" fold="1" page="1" pageScale="1" pageWidth="850" pageHeight="1100" math="0" shadow="0">
            <root>
                <mxCell id="0"/>
                <mxCell id="1" parent="0"/>
                <mxCell id="aKTF3pub4Ex5ATziHBgy-2" value="" style="verticalLabelPosition=bottom;html=1;verticalAlign=top;align=center;strokeColor=none;fillColor=#00BEF2;shape=mxgraph.azure.scheduler;pointerEvents=1;" parent="1" vertex="1">
                    <mxGeometry x="342.01" y="20" width="40" height="50" as="geometry"/>
                </mxCell>
                <mxCell id="JB0MqxgBsCtA5ImNLCCr-1" value="&lt;span style=&quot;font-family: Helvetica; font-size: 11px; font-style: normal; font-variant-ligatures: normal; font-variant-caps: normal; font-weight: 400; letter-spacing: normal; orphans: 2; text-align: center; text-indent: 0px; text-transform: none; widows: 2; word-spacing: 0px; -webkit-text-stroke-width: 0px; text-decoration-thickness: initial; text-decoration-style: initial; text-decoration-color: initial; float: none; background-color: rgb(254, 253, 251); display: inline !important;&quot;&gt;&lt;font color=&quot;#080808&quot;&gt;Timer Trigger every 5 min&lt;/font&gt;&lt;/span&gt;" style="edgeStyle=orthogonalEdgeStyle;rounded=0;orthogonalLoop=1;jettySize=auto;html=1;endArrow=none;" parent="1" source="aKTF3pub4Ex5ATziHBgy-2" target="dum0TPKFfwOVPjan5scz-7" edge="1">
                    <mxGeometry x="0.0017" y="-2" relative="1" as="geometry">
                        <mxPoint x="362.01" y="229" as="targetPoint"/>
                        <mxPoint x="362.01" y="70" as="sourcePoint"/>
                        <mxPoint as="offset"/>
                    </mxGeometry>
                </mxCell>
                <mxCell id="JB0MqxgBsCtA5ImNLCCr-4" value="" style="edgeStyle=none;html=1;" parent="1" source="dum0TPKFfwOVPjan5scz-7" target="JB0MqxgBsCtA5ImNLCCr-3" edge="1">
                    <mxGeometry relative="1" as="geometry"/>
                </mxCell>
                <mxCell id="dum0TPKFfwOVPjan5scz-7" value="" style="image;aspect=fixed;html=1;points=[];align=center;fontSize=12;image=img/lib/azure2/compute/Function_Apps.svg;" parent="1" vertex="1">
                    <mxGeometry x="337.64" y="130" width="48.73" height="43" as="geometry"/>
                </mxCell>
                <mxCell id="JB0MqxgBsCtA5ImNLCCr-2" value="" style="group" parent="1" vertex="1" connectable="0">
                    <mxGeometry x="162" y="440" width="400" height="101" as="geometry"/>
                </mxCell>
                <mxCell id="dum0TPKFfwOVPjan5scz-1" value="" style="rounded=0;whiteSpace=wrap;html=1;fontSize=11;" parent="JB0MqxgBsCtA5ImNLCCr-2" vertex="1">
                    <mxGeometry width="400" height="101" as="geometry"/>
                </mxCell>
                <mxCell id="dum0TPKFfwOVPjan5scz-2" value="" style="group" parent="JB0MqxgBsCtA5ImNLCCr-2" vertex="1" connectable="0">
                    <mxGeometry x="302.01" y="11.5" width="80" height="60" as="geometry"/>
                </mxCell>
                <mxCell id="dum0TPKFfwOVPjan5scz-3" value="" style="dashed=0;outlineConnect=0;html=1;align=center;labelPosition=center;verticalLabelPosition=bottom;verticalAlign=top;shape=mxgraph.webicons.adobe_pdf;fillColor=#F40C0C;gradientColor=#610603" parent="dum0TPKFfwOVPjan5scz-2" vertex="1">
                    <mxGeometry x="40" width="40" height="40" as="geometry"/>
                </mxCell>
                <mxCell id="dum0TPKFfwOVPjan5scz-4" value="" style="dashed=0;outlineConnect=0;html=1;align=center;labelPosition=center;verticalLabelPosition=bottom;verticalAlign=top;shape=mxgraph.webicons.adobe_pdf;fillColor=#F40C0C;gradientColor=#610603" parent="dum0TPKFfwOVPjan5scz-2" vertex="1">
                    <mxGeometry x="20" y="10" width="40" height="40" as="geometry"/>
                </mxCell>
                <mxCell id="dum0TPKFfwOVPjan5scz-5" value="" style="dashed=0;outlineConnect=0;html=1;align=center;labelPosition=center;verticalLabelPosition=bottom;verticalAlign=top;shape=mxgraph.webicons.adobe_pdf;fillColor=#F40C0C;gradientColor=#610603" parent="dum0TPKFfwOVPjan5scz-2" vertex="1">
                    <mxGeometry y="20" width="40" height="40" as="geometry"/>
                </mxCell>
                <mxCell id="dum0TPKFfwOVPjan5scz-8" style="edgeStyle=none;html=1;fontSize=11;flowAnimation=1;" parent="JB0MqxgBsCtA5ImNLCCr-2" source="dum0TPKFfwOVPjan5scz-9" edge="1">
                    <mxGeometry relative="1" as="geometry">
                        <mxPoint x="302.01" y="46.5" as="targetPoint"/>
                    </mxGeometry>
                </mxCell>
                <mxCell id="dum0TPKFfwOVPjan5scz-9" value="" style="verticalLabelPosition=bottom;sketch=0;aspect=fixed;html=1;verticalAlign=top;strokeColor=none;align=center;outlineConnect=0;shape=mxgraph.citrix.process;fontSize=11;" parent="JB0MqxgBsCtA5ImNLCCr-2" vertex="1">
                    <mxGeometry x="151.01" y="19.5" width="52" height="62" as="geometry"/>
                </mxCell>
                <mxCell id="dum0TPKFfwOVPjan5scz-10" value="&lt;span style=&quot;font-size: 12px;&quot;&gt;&lt;font color=&quot;#0a0a0a&quot;&gt;Split process&lt;/font&gt;&lt;/span&gt;" style="text;strokeColor=none;align=center;fillColor=none;html=1;verticalAlign=middle;whiteSpace=wrap;rounded=0;fontSize=11;" parent="JB0MqxgBsCtA5ImNLCCr-2" vertex="1">
                    <mxGeometry x="138" y="71.5" width="90" height="30" as="geometry"/>
                </mxCell>
                <mxCell id="dum0TPKFfwOVPjan5scz-12" value="" style="dashed=0;outlineConnect=0;html=1;align=center;labelPosition=center;verticalLabelPosition=bottom;verticalAlign=top;shape=mxgraph.webicons.adobe_pdf;fillColor=#F40C0C;gradientColor=#610603" parent="JB0MqxgBsCtA5ImNLCCr-2" vertex="1">
                    <mxGeometry x="12.009999999999991" y="30.5" width="40" height="40" as="geometry"/>
                </mxCell>
                <mxCell id="dum0TPKFfwOVPjan5scz-6" style="edgeStyle=none;html=1;fontSize=11;startArrow=none;flowAnimation=1;" parent="JB0MqxgBsCtA5ImNLCCr-2" source="dum0TPKFfwOVPjan5scz-12" target="dum0TPKFfwOVPjan5scz-9" edge="1">
                    <mxGeometry relative="1" as="geometry"/>
                </mxCell>
                <mxCell id="dum0TPKFfwOVPjan5scz-11" value="" style="edgeStyle=none;html=1;fontSize=11;endArrow=none;flowAnimation=1;exitX=0.5;exitY=1;exitDx=0;exitDy=0;" parent="1" source="JB0MqxgBsCtA5ImNLCCr-5" target="dum0TPKFfwOVPjan5scz-12" edge="1">
                    <mxGeometry relative="1" as="geometry">
                        <mxPoint x="362" y="260" as="sourcePoint"/>
                        <mxPoint x="351.01" y="281" as="targetPoint"/>
                    </mxGeometry>
                </mxCell>
                <mxCell id="xZxyRswIEZ5J7u8rp3qm-1" value="Yes" style="edgeLabel;html=1;align=center;verticalAlign=middle;resizable=0;points=[];fontColor=#000000;" parent="dum0TPKFfwOVPjan5scz-11" vertex="1" connectable="0">
                    <mxGeometry x="-0.4256" y="1" relative="1" as="geometry">
                        <mxPoint as="offset"/>
                    </mxGeometry>
                </mxCell>
                <mxCell id="JB0MqxgBsCtA5ImNLCCr-6" value="Yes" style="edgeStyle=none;html=1;entryX=0.5;entryY=0;entryDx=0;entryDy=0;" parent="1" source="JB0MqxgBsCtA5ImNLCCr-3" target="JB0MqxgBsCtA5ImNLCCr-5" edge="1">
                    <mxGeometry relative="1" as="geometry"/>
                </mxCell>
                <mxCell id="JB0MqxgBsCtA5ImNLCCr-3" value="&amp;gt; 3MB" style="rhombus;whiteSpace=wrap;html=1;" parent="1" vertex="1">
                    <mxGeometry x="331.01" y="200" width="62" height="60" as="geometry"/>
                </mxCell>
                <mxCell id="JB0MqxgBsCtA5ImNLCCr-5" value="&lt;font style=&quot;font-size: 10px;&quot;&gt;Update\Created&amp;nbsp; Recently &lt;br&gt;&amp;amp;&amp;amp; &lt;br&gt;Chunks are not created&amp;nbsp;&lt;/font&gt;" style="rhombus;whiteSpace=wrap;html=1;" parent="1" vertex="1">
                    <mxGeometry x="267.01" y="290" width="190" height="110" as="geometry"/>
                </mxCell>
            </root>
        </mxGraphModel>
    </diagram>
    <diagram id="sXqhVWaN4RJBmtS7-_l6" name="Option-4">
        <mxGraphModel dx="1020" dy="539" grid="1" gridSize="10" guides="1" tooltips="1" connect="1" arrows="1" fold="1" page="1" pageScale="1" pageWidth="850" pageHeight="1100" math="0" shadow="0">
            <root>
                <mxCell id="0"/>
                <mxCell id="1" parent="0"/>
                <mxCell id="DuzfVTNrhWFQleXuE4cX-1" value="Permissions" style="outlineConnect=0;dashed=0;verticalLabelPosition=bottom;verticalAlign=top;align=center;html=1;fontSize=12;fontStyle=0;aspect=fixed;shape=mxgraph.aws4.resourceIcon;resIcon=mxgraph.aws4.permissions;" parent="1" vertex="1">
                    <mxGeometry x="10" y="239" width="61" height="61" as="geometry"/>
                </mxCell>
                <mxCell id="gqOmW5GyDEAlzpihz6fX-30" value="" style="rounded=1;whiteSpace=wrap;html=1;" parent="1" vertex="1">
                    <mxGeometry x="405" y="180" width="440" height="300" as="geometry"/>
                </mxCell>
                <mxCell id="gqOmW5GyDEAlzpihz6fX-1" value="" style="dashed=0;outlineConnect=0;html=1;align=center;labelPosition=center;verticalLabelPosition=bottom;verticalAlign=top;shape=mxgraph.webicons.adobe_pdf;fillColor=#F40C0C;gradientColor=#610603" parent="1" vertex="1">
                    <mxGeometry x="105" y="216.5" width="40" height="40" as="geometry"/>
                </mxCell>
                <mxCell id="gqOmW5GyDEAlzpihz6fX-2" style="edgeStyle=none;html=1;flowAnimation=1;" parent="1" edge="1">
                    <mxGeometry relative="1" as="geometry">
                        <mxPoint x="15" y="236.56805807622504" as="sourcePoint"/>
                        <mxPoint x="225" y="237.52087114337564" as="targetPoint"/>
                    </mxGeometry>
                </mxCell>
                <mxCell id="gqOmW5GyDEAlzpihz6fX-3" value="" style="shape=actor;whiteSpace=wrap;html=1;" parent="1" vertex="1">
                    <mxGeometry x="10" y="205.25" width="40" height="62.5" as="geometry"/>
                </mxCell>
                <mxCell id="gqOmW5GyDEAlzpihz6fX-4" style="edgeStyle=none;html=1;fontSize=11;flowAnimation=1;exitX=0.169;exitY=-0.007;exitDx=0;exitDy=0;exitPerimeter=0;" parent="1" source="gqOmW5GyDEAlzpihz6fX-30" target="gqOmW5GyDEAlzpihz6fX-10" edge="1">
                    <mxGeometry relative="1" as="geometry">
                        <mxPoint x="465" y="600" as="targetPoint"/>
                        <Array as="points">
                            <mxPoint x="479" y="160"/>
                            <mxPoint x="255" y="160"/>
                        </Array>
                    </mxGeometry>
                </mxCell>
                <mxCell id="gqOmW5GyDEAlzpihz6fX-5" value="Uploads &lt;br&gt;splitted files" style="edgeLabel;html=1;align=center;verticalAlign=middle;resizable=0;points=[];fontSize=11;" parent="gqOmW5GyDEAlzpihz6fX-4" vertex="1" connectable="0">
                    <mxGeometry x="-0.1421" relative="1" as="geometry">
                        <mxPoint as="offset"/>
                    </mxGeometry>
                </mxCell>
                <mxCell id="gqOmW5GyDEAlzpihz6fX-6" style="edgeStyle=none;html=1;fontSize=11;flowAnimation=1;dashed=1;dashPattern=8 8;entryX=0.5;entryY=0;entryDx=0;entryDy=0;" parent="1" source="gqOmW5GyDEAlzpihz6fX-7" target="gqOmW5GyDEAlzpihz6fX-27" edge="1">
                    <mxGeometry relative="1" as="geometry"/>
                </mxCell>
                <mxCell id="gqOmW5GyDEAlzpihz6fX-7" value="" style="shape=image;verticalLabelPosition=bottom;labelBackgroundColor=default;verticalAlign=top;aspect=fixed;imageAspect=0;image=data:image/png,iVBORw0KGgoAAAANSUhEUgAAANMAAACkCAYAAAANIBugAAAAAXNSR0IArs4c6QAAAARnQU1BAACxjwv8YQUAAAAJcEhZcwAADsMAAA7DAcdvqGQAAGUJSURBVHhe7b0JlCRHmSZo4eFxXxkRedelKh2F7lvoQAegAyGJQ4hLPdDAQE8vsz3v7Zvdt7v99m2/3p1zt9/s9DE7PWw3TTcSIHEIEEig1gFIIERzCZ0IVZXqvrKyKq84/djv+80twiMyMiuzKqsqM0tf5h/ubm5ubvbb/9v/m7m5uXoTb+JNLA0iwXYW/vJru27avmvsfbv2jF/U8GMZK5ZUXoTRfTmvL+S+Pib8iBfs4Xw7uAuW/Ppdd4600jYX8rgrUnCtQfc9Il73TXV6Ou1O6LDZ93BD5RH4vfPbgmQCxH+/fa3Pv9Dx/Ogs10IQTtuS3fl5b8l55glbELc++MU/XsviWS1eICzSUFak0RgeyL160YXnPPSZd69/JDj5JubALBH59/e9dMuzz/3ujq1vTFziqOx5kVimr+lHLA8x29U1G1ItulY1ZgmhERiTSiRQzuAYuzpqD0mYBUsLUEh5eezNIbwREZNWRgAcReYQ4G6FDO4xd+NA8CQFtTPSXPnpQMCnxaF9L5aqXbK589rmly+K1azXlee6ciyEumilg3iOW1H1xrgaGspV3nL2xpfO3rTmhYvPW/+lj15X/kEQ6010ocW/R35Tu+m7j/303h8888Jbxo/Y58dTQ7loot+qN62oG4kqL6qj6paMzA+ohQgqGNSuWUHr2AiNXANqKZs+bluP4PxR0HUbDShCz3CmLSfwIxmCenUrk7ml73alsRBl0uhWpoVbpsWDlkXyGbqFlKzrlq1j2fFEkZRHgg3m1vBbWKNLLh5GpKYidk2NrhlQQ4NlN5uy6km79vCVl575t39088g/SsQ30QHh3suT/tv+3X/67h/89LnXbo+lh7O1ZjbWVNmoF8nA7YmDomCwpetNWje0aBEXlsXUFCFVqXfnRVB5LUulwaQ6r0ZLKYIP9Q3u4wVWIoywMaRCzpULyrUR7qPJeDhNndeF4ZiUqUeZ2i7oXOi0ghKTh+SXCQ+SNfF0igyEQiGMJOnwQvCXl6JGlQMlc9ymSqVtdcbGIdU/MqCS2axqwFI1q+NTmXjjkcveMvzXuPiZ//2OtQ62byKA1MO/+fJLf/WVbz79sYNjbjqWHrJVtKjg4gWKFIMQ22C5RMUVbWXSNdiNbrelW1j0sVaUIE2AaqDD2oiI9TLK5AfKa47DV2tEu0IYzYSI2MhlZrvEQKKdyfI+C71RJ48Wq0yEFVh641pK/xH81IeBFcPWuHuahfzR5CKsDiWiMqXSKdU/2Kc2blqrkvmsatoxVW1UVCzaUI3pfdXhTOPbF20a+rtU3H7if7xl6E2FCiA18PiPnjtzbNrLJPqGbcfKqIZKKSeSBCVEkTxYJfaZjBBrhCucWybVrUiLQDhpQTjtXtvZmJVEGC1Fnfv640LgIi0rBI2P3lJhoYTSGOqtIc+CRfIdaawS6aQqDw+ogdE1KpLOqjrqv+JGIBNoUO2kiiRyqUMz6t2vbN33+33p9Dsf/LVjI8E3AYj0b9k1FndjOWWlSsqx0qJEjlglkFglVggrQVeEBoWHxCQCQWLrGCaB2RrwmBQWPpOWQa/j8LY7zZWOE1GeQIEC5ekkXZdGkWSLPzseVeXBshpdN6IK/QU103TVVL2paq4LWYioSpPxk8qP53KHKurOp3/x2meOHJl6530/nUkhwdMeuhajGRVNFsEsC0xLwlWIwz1ggxMF7/WAKc9ExLVjRQCiMDyvKeKBGDdMXkAd4ahf1meQqibudx3TkiB++1ybdBo4101yntteFJwz6fYkuEUwwcdK7TSwaR0vgATcBoQ0qAPdRD2g2yYDPbyn7NPlQ63ghyRD3i3iMXpCoWP8CjWcuqo3a+gL1VUTf7FUTPX1F1V5qKxi2bRqwhtxYG0d8E27jhHl4p4uLJRLryWaze061Lz1V68f+P1px7vp6y/7OUQ6rSE1GUvo/pHjWKhHKpEN1mnBZwTTcRUytSrgWSiTkCTVhSCsJTAE90kU7gWAwi8Ib+e6dr40u9PphfnOnUQY9nbDhLe2yK/wJ3wB99vH4lWYY2nFYF1Yh1G67h6UqSH9pXwpr4ZhkfJQqEgsqmpOE9UGpY5y5JM9Zva3dF/L99mPhgcT78ttP1i/81ev7f3kjoPj73jgVee0ViiRch/C7kk3Uj+REXFHa6SVSFsjVgr7TFI5gcyRsZoYYGgOSCscOm8EwdB81xp0xO1BOCetdk/C6WC/57VLSouE4Y0hphE+7g7vuJcpH2qGlkf2GY4zKDMHHLjVP6xD/qJWYbE42GDZlsoWcqo0NKBKg/3KTsHFR3jDaSgLF9MjgY3C5U2kBe+Ejx+QiKdiKpKEK6iSuZ2Hqu98acuBj+7eM3bD11+pnLYKJcqkXAe2xQyZku+a8agW2UoFBJUg9SdxeNANXYlzo/s8jw0tBOG44WsD0tntIK1EpOC8oOu6JafFgwIaptlpBue6wgQsHzeoFGnsTID+gXsehAlpD8Np1iW8UCqp4dERlesryCBTAxapCaWhkvE8HbuI7ygLCib+K6+ORKUv7UTQHYhnVcVNlHbtn3771p1jHz50ePqG77/RKEnE0wyiTEnLGVfNqhdnAwkTpX1r3SbxGRMHVnVVhCpQwFaKocb1IxFm3xwDrFCpVA2dklbYltIirRbxD+6HUBAWETcjfNxJJrxFoT9EaDUItLNz0aw0jkq4CsLXJvAC4Z3EsDDNPk8esmxz5W6uNJgHgfCJwwRBOqCIHOv0JV845wVWh8YwCwUaGhlWA0NDKp5KqlqzqepoWOmLRCy4/EwfKYiWse/LxyQgJxIQ+08ckLAzqubGBw+M12/bsnPiY2/smb7xezv8QcnXaQRRpk3rBn/q1SZ2efVpF22OSLquQi3msg2GfqXq9K5sRBmkQucig9nHcm1AHacErEj910ZXGuawK9ig12mjUHNR79BFkAh5V3B3QNeh8M/wUAS48691DhRuPBhu6kDfV08VIpkGrt3QsUZ91XRheWB9soWCGhweVoW+ooolU5CEKJTDF0XSdc9rYAepSGhQ2Zf22bCKVdLExyauj/BIQkXjeTVViw7u3DdzC5Tpwzv3TF/3+E7/tLJQokyXXHDmN4dL1gtu5UAzHuETBZh1adXQkYpgS4tC3iKE4K55kIpa1aRDO8PCdFQwztFofkgsCNR8hB8d+URhzrJzG+x3nddc1dDK0RtyDpeIK460jBUSCyRbnAiskFEiqScQR/TqgUVKZTNqENao3D+g4lAkF1EdF3F5BzSanLeoe84mNzqccynZqOrU9T7P8TmkH42JlZqq+aVd+yZu2bZz/COv/O7QWYhw2kCU6d9+6oItb73sjB8NleyX42q6GvWnoVA1nOTM4WbAOs3WMMh+89cSFgoHKlUqNhweYG55DsedizQC+ZgFURhuj0InHr3uOh/NjTDfDUt1o0Dl0QRN0QMDMudOx6Py8E/zBBYJ7jv7Q/FkUg3BIpUHB1Uyk5FRvSafI8k8PX231h/SET7zdtgQZktIyriESiZTzqJx5UZTaroeKe0bq1yye//k5Z9/ZnI4iL7qIcpEXP/Wcx++9oqzHsgl6y9azYPVhD2jYpEZtIJQKnRAdauHiO0NmNjeNxBF4jZMJpKc09R5lUYrGqnjoJPCldwRjs1xEdM5BhwtDV1mgwXcJFQWUzZhCEj6T4HGmEYrbJUMuegb6RE7R9WbDdWAeyezGwb71eDoiEpm03DVYJGgRIzrYcv7WRzkQBI6XV0ecx9mQ/9oGGWSMT+4fRyQ4MyZqpdUh2bU0IGJ5jve2Dvxtv/v6anTwt2T+jL47vP+pi9//Uf3/OLFPR+acTIXN2M5G1WASkmgpaPfrNVALoNpD/baTJdjVqycEkbLlhXNrfxqdNwYMFbFwKR7sqE76guHCFoo5yJgIvBt8PkMId0PQasNE8h8uTlAvrT5wB0Q+Yk0TaOk88y76vvwtEwPQjhzQ4tkp+JqdN1aNQRFyuSyOO/LEDhcD11PQtoimfpiQry33AXnPWRb7oR9hkU4dI4dGarCvaJQ3CgUmPu231DpaHNvMeX/6Mx1+S+fuaH85L0XxaeY7GpFR63ecXFk601vu+hrF10wel8sOvm8Ux9zIh6tE58xmGHzIDJAprJ1EyEByUbO60jdyiAKYygImx+MdbLpaJgrfq+wJQSSBduE+NPZVwqGrUFULOkzsW6gLA72OVLXPzykRtaMqkKxT+rLwTWiHNgP55h1RqEQJQGxTiWG3NPUcbsB0YrFIQ9aJo7wcSpaUjVVRk176ZF9lcgtr+0+8om9Y0fe8aVfT6xqC9XZRAKfvrW49aKLzvj22jWZB5N27Xm/OVWNuHW0ONriiIKQt9yAkZwcaWZzt0iOjxddaZ5UMuh1rpNEqAxjhBC8EOjLhbjpDZ6hddGWh0LcoUgID4YCUJHBeW7hp1mwOB7i8NpCqaBGoUjZfE5mNTRgQXiG+6IMohCm2pgOtxSOoN+EP4K/sofAljKB9MAEFYrPnjhsHldNunvwaGa8ZOnAtHfDi7/b+9E9+yeuf3LX6h3h4zygWXjywf98+L2f+p/2eg2vPjVRLTuO1R+JxGMR+MV8+CnVR65CFWUwFS2gDa6yJdPsDQHxdFXocFMhEqZPtMAKap1D9K7TC0DXvRcNXk8yd9ZC3EFScA2dV3NOw5zV58JxggMTFYKv7bMRzF6EX1Ee7jEveuBau9J6n/F0TADpa+WAa8fnhdjnw9h1GzaoUrmsIraFvhMUidYLiqTdOp0tQo6QWNvNM5ugXmjuDLjfOuS+kQsSp6XB+cO9bMtS0UgkNT05PVqr1Aq+5x38/hf/0++CC1cVQtyZjT/5whubnn721fe/un36kw1VOCcSy8d8KwETzkmQYHIU7VuEw+hwJTwbHde2oYuwskLgegOyDYJN62fQqsDjwGL7O7hiVkZ0Pk3e2y1wCxxbDrGN52fFmYV2vsLlNH0oZqGTW21IfClXW5nIb4ujbzyFC9k3ojBbENwm9psccMB1xVJJrdt0hhoYHpRnSGLjGB/k4jyPxfqY+xChvMyqE1q74Ho5g9ZT6hM8MfVqEMW1UeQjCaVPRsEjZ0bZ7uT+ck79/UB//t/93x/dOBFEXTWY5eaF8aefOGPrVZee/dCZ67JPJ6JT437zsEpEwCDYMz4L98As5TXQ+lAg9MPCgM1LBKa1GCJ6hc9FvcBwI7zd8UEi+eGwXgif7x2HgmoIPx3HmnTfRyhQonCYduE440K7cnwYy34Qt9V6ReVhkUbPWCejd9F4TDSkpQT4oez3qnzcGWlqCqNbWXhINdSqOBu8mrMo+Ayq4YIiaVXx04X9U/7VkzONO/704YOrbg7fvMpE/Ic/PHPrhecPP7NhJLYtZU1UFRQqyQe7flPF6JuTbfKMIoAIW+j4mMF0Fku4b8/weagbRzsvCJ/vjmPCwrRYhK4VXnJf85S3pMATQQxNkGk+lKXCJHJZNbJ+rSoNDih453D5+EK6vobQikDqrQpMq5t6A9fjJE8bdrSIoVAmvsZRxTFfMnRimWTFiV+w+1D9g2OHq+/4Px8+sKoUqmefqRt/8mf/daY6M+NVZ6ZLjdpMv+d5MRfukB3nqxpwGVyO5XCf/rK+ZtbqP2CowJzXm1nQLeKx0nGide82euezHcq9ucpyNIhSBBd3pmHyoC2EnIM1okJxcMHwSGYg4F9cLxzXm02VyqbV0JpRNbh2jYom+IKnHgKX953kqjaZm3Zboblg1tgQYIcuogngJkwyEsi+EwSCLqVv2SoWT4ISKafpr6nM1Asxy618+LN/vPOxL/4ZXJyVj4AVR8ejv/E2/fi5l9/zk5/99oOvbZu4yo8P2q6dU240joqCTrJGQ8lxsEK3pagsBLO1MvtE6zioyLYSGegRqsXArH9wPKDbNC+kz9RGZ6kJCP8c+WDZTXl1Xg2H5gLVjYMNVCjt0un+mSGkAK+gCWWh0kSillq/YYMa2bhe+VQk9lslKs5R8XhPfVkLpj4WC1Y302zVp960gftI44o/KhNvH7dtlbZRkpkp5U6PT2VjlacufUvx70f6i49+9qZ8NbhyxeKobp7B7RdZW9966Vlfv/6t53zhzA2FnynniONUJ1XUjaqUnUaM3rUyq7KCypQ65k6PyyhwJGlNF0GrEyyXsUYGEFOOkkE4OTLXaNRVIpVSo2vWqGFYpFxfHxo5uFioXXRX9POkgEfyJ9vjgx65RU6wJVloFzoIFa9fJ7GUhYaVD/kdx1Ez1TryHIXVzOfqXvqWF14d+8zUdPP2zz+98t+DWrAyEXddkdx5wXnrv3vpRRu/tHY497OIU3PcGiw0FEpeIwfE5SDJURtGQfDDmpVKpWvCeIw/S+kWCfqr6GYLLch3XcbQgwy0ROCO8I1cIu/0ebEyoCaEkwoSjSdUub+s1mxYr/Lloqq5TeVCwvlAXR6q82ryF8QkWvvcHgeoUIaMUmkyihTBOS4Yin3UOV//4HA5e3BoCVTEzqWOVFI3v7Jl4pOHJyu3fOsFf0WvJbEoZSI+eG1hz0Xnn/XQVRdv/MKm4dSPo/VDjlsZV1HO7RLGsurgKkX42vNRXCaAFRqmYwELMYDm9ywnqjaD1qI5TiIvJwYnLGGAaQeKI6B7R5JdKFXQIOkDVa/XUXhLFcslNQyrlC/1qQYUbPzwuMSbzc5jZPBxwJQE6gQLBcWCxWRfr4HKdqy4iucG7O37pt/161d3f+bQkZm7Hn7JW7EKdczc/YsHtw1u2bL/rh8/98andx7wr47k18IpzqIlbEAcmuJi+ByUiMBWoHlkC8UW1gxM8MFixyKWFJJAAHQwfsLnAfOsqht9qBgqUHjNqf1oLg/B32gGxwK5Re80WugaiTTujMFRrwe6sh1C213jVrqZCDP30BYI28Dy8HGD9JPkGsTneSTOcJxQ0ZgtlmhgdEQVBwbFnatwRI8Cy+cVAST9wHMQ/sqehk752NC+g0E4tfaddCh+g5FJed8Kh8xXElGsxpSKOuPOaDHy5G3Xbf5/c6nYY7efa624PtRsfiwQ/+pDGw+MDiQfuuz8/r8dKbs/9qtjqgELZXlNtEARuFp0ttCu0rzzbw4JE4sU7B8rEkgkLCBEDIlGjzfhE45OxRUJg8CxUsJKzF1zSLeuCVeJD2azuZwaGByU+XbUlRqf+8FS2dGoXG/oRIOlEEIltAnq06pzbEP1L08kOdKHfDZJsZSqRDP29rHqrc/86vXPTkxX7nrstyvPQh2zMhH/86cvGT9j4/B3L7l43UOlvvoWr3FQedUZCDJUyU+AkmKZIhFbea6nn7pLa9smPVJ1fKix4oJ9gwYSZX9hJUIe0voOpE5bJfJJpgChPLKPGOm+grxKURwcEAtVb2hFikI4ibAyCTEM1M0SHptz3XQ0GCWaC6wVroDUVqo2GILaR1lscfccO63q0Zx6fe/krT9/edc/r9abt640hVoIz+bFH3/6gr3ZYvqRyy9Zs2VkAO6cNwVJrqkIX9JFc8kliznNReaCARQIGXDAPnlsiAGM0YPvR8UELqJbhx4E3w2Ge+erI6jEDhfvGEAhXCrQrevlIpp7UEkIKT/dWVBrGByMoedHwXRAiUxard10hiqPDqlYiqvuwjLL6N5KGnrhRFz0m1jUaFz5MS7DnFVVK69e2DZ26w9+sfWzVbd614/3rZz1+JaE+//5c5/z+gqx6vj4WHHPrv0bm01fJdMFVak0VLVRV3aSz6I4BYbCAciGvj/9ZwoQAoQCYRJiu6bDDM3XX5nBhWMQNNIUInPog2l1E9PtFd4iXGv2CdmGSBT+KBRGZ547FSp4CoN7sI3WFjr8qguPaWm4AEqlVpUWPlfMq3Ubz5BFUGihOHFV+lKIx6QldblWz7pr/+n05iP900b3eUl7Hkhdhkj/hBE+S15wciyukmeSVC5LJdIZlFepyenamTNVN71t19RTT3/1/1kR8/iO2zIR154RGR8cyD/y9red9/lLLlzztNc8qOq1MZXPxtFiwtR7dOnAPPBQrBKIwmKEhluzf6yQdIL95Qgpf0iRusFz+rVzPSBBgm+HvlFTuY4ji0Fm4Nr1c1muchF9DVhhFJjPkUjHwbpTBHosVHk4MnBRmw6aP5srJMFKJYqqGimoV7aPn23HrHf/xVOH+CBz2WPJ5O/2C7PjoyP933r7Ded97uIL1zwVj04rx5lWSfjzLoTCdEy7QaHhQAEcQbZN4LGhpRAPpoG0DLXSnocWjK60F0TzQ/gjAgbrxGcyTlPV6jWxQJlCHn2kYVksMpZOSn+QytRKPcRfNlbddKrAezNfJg/cSGPBMpJgVbl4j7ATIXr55RQaj7yqe+lzXn1974cnD4/d9eff37Ls3b0lUybi7isLU+vWDT5y0/Xnfb6Qrj41dWSrSsZdlYiCYegDsP+kHzjSvQm7W9rF6QbDOqgVfzadLBgLs1DqDVhq9Ojo4umHsyQ9IEMrztFQSpfnwYVrNlQqlZRlufrKZRVLJqT/GVYUEVjGD2ju+5486DyxFG0gqFVX3Pr8ciHKzmlGMfT3IpxDiPJjo5pw+WLpkjow4V7361d2f+LgkZk7/vKJbcv6xUKWb8nxpZ/M5HfvPXz3fV//4f/6ys76OaXBzapejaG14XwxD5aqCWbKUyixSuwvUAj41N4wP8x4g24hmXX+KKVh9HAave4xN+RqvbsI8H6te8Dyydf6+AGEwArqZ2dtBZDWDb3yJiwS5wrw+0jD69er/jUjys4klQdFgoqJoBowDXl/TNLS4NDPqYIoEkhyE9QJeaCX3NZ5lH4i88vBEyiS9J/YmCCOtlbw+iJNeUPBmd7rFLPNH567sfzFDaPFRz9z3cABSWSZYUktk8G912Ym14yWH7rl7Rf8ds1gVM1M7FC2X1G215RFN7hutQz9QiSkCwrmSTsWbBkm1oq8nodM38IQw04cdOIU+sXQLIg7GbJI4sS17Qqn2lTqM7BbrkoXcrIASj9cu3Q2g8ZITx5mst1py/O8UBj3w8enEswFKezuEWwAxAjDFPnyGACygJgygRbnXHkFPqNUYsCerKWv3bpr6mMHDs3c/qVfHlmWFuqEKBNx7zWpiRuv2fSV2995/tNDfTVHOfsgR0fQW54GVcFAWifOghbxaLVYSwupwkXQYvKwiLQ7+mNmy+t7E/8SuYwaQB+JxP6SBVeImFNJBbwySCUQ3HBf6mRCGjzucNszu5wHEZBomI4UziqL6XgWyo7yx/pS41Pqxt9u2f/JvQeO3PWNVyrLbvnlE6ZMxNBA9nvXv3XT319zxfof22rMsdU43LopGKWKikZgoUTAKByhYfNjRLjFO3Ycex563d4IPq2GVgCjSG1IHzIExopDkYoDZdU30K8yfXl5U1bsFvg0tyItHxhFailUCMy9UfR2nXXH0uBQDLtV8sUNO4suQtbedah21cvbDv7ezn0TdzyyzR8Noi4L9C7FEuLZ/X7plVd33fXYky9+7LlfvHHtoUmVSmQG4cTAfHONah+uC10UZMU82CXkyUiXhnQLUvisPtN5XqMz7GjCyJnOnTDHvC50rTS3+lhiUGlwyGdBHU/8JTDYF0A6qFQtS4WQJj+WwGOkFLVUcWRQZjfkS0VRNmlyLLbivBq8EikN5ZO3kHzzRjq8W0npBp9ohO9obidK07VPL0QT9oOTMt+wCzKfE+yyLfSuLXYNKlCrSWU1x6ojRfunF5499MCVF65/5MaRyM7gklOKE2qZiGuGIuNnru9/9LZ3XPDFC88dfSaTdKrRSB03birPQc+ATQ+4ysrvkMFgOx8Yx1DnUZgWi7mu752WEQhuu6+VETqzbRGPO4lvwjYbek5jNpeVpYtpkbi4hjxHQuLS4ATp8V/fL0DroCP0lMLkRHhj8ku2yEY79dJIzJN3uqfsV3HxnrqyVcNKKjeWV/VIOnVoyr1i31jl/Vt2HLkkiH7KccKVibhxY+rAheetffi6ay78wkXnb3wmYftTzUYVggSPGcyKotUlL01X3AhZJ4T1epeQZs5UAMO74584SP68QDECF65N+jzd1vB5fQJlCML5qn+Y2CfK5fNqZHRUXqWIJGJsbkSRaLFbo2P4YanbCrx8IfkMqLt6THnEooLkqRMak05CPGlMPOWABw0rpqoRuLxJuL6ZfM6z4+dWG40rn9hR26RTPbU4KcpEXDEQGT/rrPWPX3X5uV8eKCZ+4jcmp2yISzphowGmgKEPRYWhsCG+VEALpiaE/Xq3XU0AwsJmbUkRvmcXqCDmfCuazr/ojhzrrOkxCLTJ2HoO3DpYZL4sR+IVaVgkLoDSPzKEzrYtK7HSteNDXEnLpBtizAkr8hLD1BSFzWRf5908uuVnaXCWU9/p2oWVCQzjR6xlC2qAb1YspjKFPpXKFQaVHbtpfGrm1mf2zKyThE8hQlVzcvDVX/qDjz/xs1t//svtH96zv3FjLFHIcQi0hiZIvqSgH+2C2WZFN0K7NyJIbMWE8eYsa0UkFUKHkFkCtjiJ62ZIh8AGyqOD9L5JnqE6l9jHRdzKsxTs6E9XMm295XM2VzmyahDlJ5vvU+vO2KD6hweVF4uqBiJ5cPHo9sktWTxsW8XDlqXnvvCEkBNtzFuOE4zuexMmr6YMOjtUL9QzmYAQeUTCsrPFwTGKj2PtAfADBL7fUPlURK0ZSKvRckL1JX0V82emknbjV4PFzINDpfyjNw9HtuKqU4Je5T7heOAnM4M//+W2m3/woxc/sfvAzNVeNAOTnYN4xcFCDgEbZTHZA+vJZNmny6PD251qXT3GErShwxeDboaEO+50S9sw98QV2KX60B0x0bU6wX2TDQVFigCCgmFnujqDvoCvCuWSGlm/Tg2MjCgrGUej4kg/iYujmMTMK+A85O3C6D424L1OFaScwT4Rzndrixi0SkahdAj5Cx6KMoGkECC/CT7XVTLmq+FyRq0dyqlS1laWV4dlr6lopFHNxCP/lE9FHxzIJ7/93o3pUzIgwVKcdHz42swB9J2+d81Vm74wXLZ/aDlT4z76UFE40hZIWvIWc8lQ1IC0XnQBmAIZzYELEuMQJ6ooQYW2SG+kPxSYDW2TkA8c64fNJMpCECfYMg5H4vhgliuv8qNjazesU6Pr1snwdx0Wi+8mWZaeAb5SwToKE6vPQPNFBwkhggkz7NXnyUPwy20gvKEySUsNlnNqsD+jsukorDb4SCbxi4bRRGqq2rzy0JHp3zt0ePI9P9zTPCUu3ylRJuJjb8+Mv+XckccvOHftA8Wc/UxMOeOcHcE5fPo1BC2cXDdAgeQr4lQmVoEoEIeYSdxvVQ1oqWFquU3aRnIfvyL1+lgrkZm9gW0QTa5C5YsiIYtVB8JRzKvR9WthkYZVIp1CW8FZ1Cgfrz0RxTjJ0JxqUye0paW1Zo3qR7fcmmMThvr1qioR81S5L6OGBzKqkIsrO4pmFnyiLLBv5aIBdn0r1WiqC45MVu/ZPz75nuen/ZOuUKdMmYjP3rHuwBWXnf3EpnXlb/RlrOcj7nQF7bNKWOhkoj8BG66icHc4bM6PcpF9umq0lJq/TiUycQwtHDqVzut1+oYIbo0yBUSF4gORoAHglspk9ql8/PAY17fjqqtWKq5G1q0VspMJ+X4SW3BtkXBHXKpd3DCtDnSUCmXVjU+bbDQq8lEC10Hv2VVpuHblQkINlNIqn7FVLApuQhb45jGlF1dBsSAj0QS/XJhrevbl45O1j+zaX3nPs2Mn96HuKVUm4l/dvX7vTddf8uTakfSzfZnmmOVNgJEVcKkBpqKFglWiMrVnVkPYaKUopwyXZhwHIaIN09RVeUchjc60eCN9T0MmD9xSYUCsUoR1CoY+5jnPd+DWuTLgwLG7gWFOE+LX+zIyOqVf8NPp64etIGqXoVUCKRlY2iIJYz2JSoglIvlOXRrTOExXPy0S3Lt82lI2LvJd8F0GI+gsMxF6LuhnWwkoVBoWPpWbqUcu33Oweu+hI407njt48hTqlCsT8a/vXb/z+red85O3XrnhVwPlKJf7BNOa4u5wAiRfRo9wZUP2kUTAkW2fAxUg6UsxHGT8quOibvSIQ0mYtY9dEHPDL0CYGdJUKn4vlg9cY8m46hvsVyPoJyVyab2CUxTERgHXie4woVUPw7OAR0Jaofj8ka9iJO2oysOCD5WzqpRPqGSMi/SQn5QDqpFu1PS8PvSbfC4FHYekwNL7idSRGfeqPWOVjx8Yr9zOO54MLAtlIm675ezfXH31mV+79JL1Pxwox6fsCNwhfkqSLhBnm/ONArZM5B1fL6AygcQdohKJolGh2hU1N2mL0Zt6xe9BvE9IkQzEmgbEc+LiQTj4mkGx3KfOOGujypb65G0mribEXFM0OlM5HcASg9+wMG3LBLcedZmIWyqfTalSIaP6cgkVt/nAhPFouah45nrKQ+tKEF8sjCuPnz2KxO0jM83LDhyeufmxrYfXyyUnGMtGma4ajew8a9PgY5dduPaLF75l4Il8qjpluUegIxUQv5PK5xFQHjTlsgXjTCdWKgPKpNv3+QDmQ8g7iS3c3NQGb4TjQIFaf4HSGILLLwMJ4q3RInkQBLQEmVxODY6MqqHRUcWn/3Tt+GCW7p1WY71dzWhxibxhw4g/Fw2leB4KDYsLq4RmJp+Lq3IpoQr5mIrZ7EPhKkNyKZtQJgLxBTN9ENjMQQhczc/X2KoZjamaFUuMVRqXbNtz6J7vbDl8wt29ZaNMxM3nRA5s3lh6/Nor1t2/eVPm6YR1eCrqTqgYWq8op+J7gSKRmWCeuFLYBnUjNSXbHjDKI5FaMMdzU0vhKO5BGq0w5EvUAFsOePP5iIzKcRFInHHQCLCjnCuV1TCUiG/KstJrdfQHwXoryif/EAYKFim4n7736gQViaXTD2bZD+YyVqQmGp6KikUdVepLqmIpqhJcoZLXsL7lkUlwMWtcXH1udRMqyoQtm9QmeFoD1a1otBqJnbXvSO0DhyZm3vut1w+e0Nc2lpUyEbdclBxft7b8/auvOvPvNqxLPRGzJqYyCX7FW39X16wZwI9W0+xr945M14wPuB0CjzupbXm08HaSOadJrhEN1fajO61wGFtQTg/i8yK6cKz7ZDoFRRpWQyPDyo7FVKVeQ9w2Ou7N44BWG0wNmVoSJaCLx74w7Ikd9VUB/ch1a/tVsZhUKShSDJ68jg/esNGRIyoRxZauvvj+wjByDzUGN08/fuAil64VRb80ZnvxzFX7Dk1/6vBk5QPf2z5+whRq2SkTceeVhanRtf1PXnTRhi+vXZN6wmnsn4pHpsG+ChQKfalIDVQHG9nCQ5mkYkxRwqIYFs+5qBtd52eZOlabOW9+26AloiLxs5fJbFqVhwZVCZYpFkcHGeccuHdzQVIV/1CL0GqBlAiFMySzQhCq3eFAmTgEPpBX/QNZlUzBCuEi6ALA823eaIUyZOo83MgZ6PN+JKqseNKuOOqKsYnKx49MVe/63rbDJ0ShlqUyEZ+4ee34FZed//hbrzj7C6WC94SlDk1FvSPK9qegVFAmKJLvQpnAYBKfPcwHslYQ5vc8oKWgpeEWP3KdsSA81hsdbkCvg/2gJsJjmZQqDw+pkTXrZEY4ByEYXa+1HghD61ruI9y4LnNhnlMLw3EncGwI8agT4LEFF972VSYTVwMDGTQ6Orq8LBrMcDFrQxj+a2I8/gHQUE7RkvR4LA2rJk5P46CEimdU1bGv3jte+fSR6dr7oVBLvlos77hs8fvvGBg/c9PIk2+7dvP95T7vR75zsKncIwpdS7RuaOE5bE6ugmX6LdSAhdwa4jGITG4dh88HpGd0awWSETnEI3w+AxKCS4J4nqsrkvcMgxUsQ+C4USKbUf3DI2pozVqZexdBE+uxk0zHnsoCYr9PnpdJP0ByJymKgnanDWp1F44ZhgukkwNjhcwddSk1aGOoKBbcvGIpo0bX9KtU8JkvKpiPxtKDKw9bDqIDpwdo9LgfeWdUKbBKolDYFWAHLqCP/jWVqRmJKTeWAmXVjBO7+tBk4317D9WWfEDClG3Z4l++Z+PU8HDxH6++avODg6XoazG4e36TI3x87d2WFosPRRU/XwOGkr2GzWynRGAlpcVBXsaj8IdgBL3VMvIH9UaryFkMtWZTWWhaS0NDamjdGpXKZfUDWdZtQPgXAetEuBoYg7S6EC6VqDV4wMcdfcWsGuzvU7lMRI51P5gTW8E3DuwIz8lrze8W7xnIROgmiqvILUOFw4igicPlXMucLxY2rQz6UTk13YxurnuRu+9/cWyIySwVlr0yEX/8exdODA0V//GG6y94uZS3q7XKlHIbTRUHkziy2nDr4l9z9Viyk+2YHnIOCIHSmrWbrmNGUFW6drkB0bWjGxe1LZUtwO8fGYJ1Sisvyu8QcZQP9z/+Wy8/GEEWYTZgQTsLGw6RYW5wjW4Z18ob6C+oTDYGVxh8FS2DMqG2OtOcD7rG9XY26GO46Dc5aHgduHt8qFtzoxsPT9Xvnq7W73zg5bEl6z+tCGUi7rz5oiMfePdlf3/VJWsfKWYa1ag/oWIciEDnFT17caM4CKHrKqi+HvztzfLFQVpHaCi3Zp5YNBZT2XxBlfrLKtdXEOeEX/CjElGpDKTq24cnEUtR8vnA9AO+C1G0DPGY5/UQuGU1VCLOIfA4LJItDSEVSSy4ud6M1BmEdjVMANNnXG57Q78bp9+VY/9psh5RR6r+1Qcm3U9PVNwPfOOViSVx+WZlcTnj9cO+PTFZve2+Lz/7h1/91tPv8pOjdrKwTu3jsu4w49KyBS2fVIuRH9kJky64tJI4x9Mtd0I4oju8BPtRGnwwrH11x3GovzgJp4TuJvyT0kC/Wrd+gyoMDqgaWldXrKB+wY8KJ1VNtyPguL6PxmzlYuLmvp0IX9eJTmFqlf2omPte8yNkPehSyf1BkkH2//hcCHt87kZr47MPVMV+Q2XSthocKKj+/oyKJxE9KJOM3rngMxonXtzhDss9GLGTAZL7jiAcdDFJDpEeeaL7cOz/sj4dFfdqPx1KRP5hIBP71t0X5/foK44NnTWwzHFWEaX3Yt+/6/bL//qOd136nYg/7kwc3q1ScK9iMOW+rGAfVKphulS4odlCM1voGK83qEhUKNu2Zd0Kh1OdICyFUkmNrF2rCv39Mm1IWlgS/kxqkoMgS111vSrBIsor+RBaG/XDQQVwTGVhicrFNCih0lCktgCiAYMisf7kBVEf/WGeZX1216mA+0G4xJmbqazjCBeTQDymKW6fFVPNSAqUuXp82v3U4anahx5+cfK4LBRzs6Jw+caY40a979/zges/d+Xl5zzmNyad2uQY+k+oLFgReQVantppUWZHlut68yk7pxxpdoas1iJBK+PAMnF2A792ni/0qZE1o/KJF/nomMOX2XQFEvLwF9kJ08pH0ES0BD0EKTj5Dl5H2fo3wKsKwhoqBYvUz8+GlgsqlWg9kQ0sENMJpSXphuloIHMRb5EMpgVtuM4VEzMzvzdZmXnvd1899mlHC8nlssMtF5Qc0KMfueftf3Xu2eXvRN1DTqR+SEX9GurSkcmSVBiZLUHloUWRUQjdz+lFLQTxJD6n++Mch8XN4iccaKhXKqpRr8t8O1Gk4SGVSKdlSSpH0mLFdlfqimT1HDACHiaCSobyQ6E4syGegKuH/lGtegTBNdVXSKrBwZTKZmndcZWOOje6FfUEgLd3YKkqXuSKg9PVTx2ernzoe787vEGfXRwWp8bLEH/5rd/e8ndfePyzr2yZuq04eG6qqdKq3mzKyJ50W4RdpsYYwH4PNiLs2AlqkwMKshV/WnYRT5wzrVCBwPATL3wIS5eOk1aHR0dUIpNC6+aqhuPK6+jaAul7dWAO4eDqO/PBzNubD5wIPC/MeSlcOC1z3CO/ohxzoX0/bVnAo1babO/ptlXAu6pKwgoNDpTU0GBO5bMcDNBXcyvq133bAEyuo6E7Ruh3xEIQ11+DU9OiXlXZTlXF0a/LJSLP9+cTXxooph+4+Yzs9iDagnCUGlgReOoD773uby67cOj7hw9tq1ZnDsprzkl0Zm1aJtSFCBpqzDwkpY5oiwTBp7Ui8bhLkVrhASFE2Ym46iuX1PCaEbh2AyoSi4ryNjmqx9ugDzWXcKwe9BKbUKHJRJm90FTJVFT1D+RUeSCtUimtSCSyef4mRKrsJAD1hf6TaydVnSN9Df/iQ9P1e8enqu9//I3JRa3Ht+KV6Y/eu9nJ59Pf/8THbvq7tevSv2g0xmt1uBUcseEr0FqRONs8BoJv0SryXFXJ8IDQgnHQIByzr4QWdq3uI/HbsnTrOBePX0Cn8omwoCUUYeG1PUhaxjDNghE1Q4GGLzcIbwMSoHBSHhCUic+PBqBIpGw6puyu0W5TflqxUwXWh2PZyuHnjqIpeBYJNV1TFx+aqHxibGLqo49vHzsniHpUGC6saPzR3efwhZhHb7/5sl+fvTFfUc6YchrjUB5HCsipO1waVJ43mOZOKpKDEyS2oloI+IExPZuZbouOynX6eBmJQ+BcLDKWToki1aFIdacpa1RwEgytF63Y6QJx8QL3jqN14jaR76B8LqX6y3mVhiLJy51hCL+XA9Cr5pqNaGhd+ep7AhbKVhN1//yDU/UPHZyY+eCT2w8sSKG6i7hi8fB9f+792X/9i/rMzJH8jq2vn+E1m4lUPA3rlFSuA2WQ1pOtKJ+wQ1k4wgfizHMJoysnQ7lULFiYqKUSMtNbqfr0NDgVUxvOOkv1DQ22li7mug5cw8+3ooGy4YfHsi5BoImE3JvnqMC4j8RlCAWKx1oY29QJdOPxRxdp7r/Z0Glr4s2wlft0g9ca6kav+IROl4M7tED8/FoELp3bmFGWW5NlufpLGTU4mFU5ribE2eG4QrgQ3Eo3auRVENAFmdiKrTmjGyiTn9nx2zDxwvE7YapG6gE/LIne6j82onDZrbrvlafrjaHDU9Xdj37+r36tr5obLN+qQT6XePam68697+abLv5eNlGfqkzuQwtZVzF08LmugB7d48CEFmoqlbZMfImc88G0hZI/WBqZbzdTVYlCXq3dsEEVYZWiyQQYTfGhPaMigPM4FmLlIFXd15IsLRNQsZYWetCBReYOXTV6AegjJfheUkyVSymVScEigS+cOqTjnQqmzH9PyRV+2CS4UCjYVdWEZaqrONfJsqteYk3DjV3/lV/s3ayvmBurSpkuLkeqa0bKP7j91mv+7vprL/pOX94ar1fHYHimueon2AUrhErXwmUELNAA/gSuHWeg83lRpdaQQYXhNevU2o0bZCicb9EGsSUFuVSACztAly+4E9MkBcfhvXAKyxV6EKeTCGPoaGHZUKWgPH3FjCr3Z1WxGJOh8bnKJ1ahm2UnG62+HvIYWEJaKZRQth762Y4fL1UbkRsPT1Q/9PCLh+Z191aVMhHXrEtU14wOPPPOd1z5xSsuPefReLQy7jYPQZnggii+5Rq4dYH10HP6SHrwgOCKN04TfaBGQ/UPDcl8u0QqqexEApKjmW2ot6gsBqdaoo4P8soKuQB3LwuXrq+YVoVCTCXh6kVF646fQ0sNU9/hvi0HjfiuGd1p/RYvZ2HAffds9Ift9ZMN/56x6eaHH35lck6FWtk1OQ9+8Fs/9eore6575NFnP/HCyztvaXrJQc/OqipMjRfRXUV4cmKFCGmX2FqClw1+fCxqo4UdRD/pbChSWr684FvopCKesTS6KsK/XeyUQ/6YcGONNPS6erwWN+26dLHovlzbxTAoJItDK82WzHWmyeXY3GYNfUtfFUtpNbomC9cuquIxLh7KoRi27u0hPBHYBRbU3FLmT7buvzQwfSapQ6bPAN6DuyijtrRmtgzKwmWrnaoTjzivlXOJr40M5O+/65z0azqVNhbP4RWCmzZHqiNDxeeuvOLsL2/aUPh+zJ7a3WiMgVs18IwjdmQkWigP1iWwTuz0NtFPYn8pX+xT6zZtUqlsVkVstE5gMR/IUpw665Y1M4eQSAXxRma/i8Lodf54qBu94iyUeoDWiOuA21EOgcdVqcQ1wOMqFgMfYKU4KqobqnZCYg06QuamFjoOlgYtq0TiDYKNhrZOnB/oKzSgIDeSVI1I2p5x7Y1jlcY9BydmPvzkrvp5wQUtrFplIt57TXrqvLds+NEF56+5f8O6wqO5rNqhInWc4egd6hwKJHP5QEaZnGZDZUt5NbJ2neobKOMUOqVouVpd6B46szIhDNBbgW4UNHWC0VpETsgWLbfVUIW+hBoazKsitlG+aiJpMo22RQrDCPJC6cSA6SJ9U/bWbYLyi0zoN3U9P45GNK7q0aRqxjOpmhs9Z2xi5iM794599KntExfr6zRWtTIRH7i+b+qsM0f+6dJLzvza8GD6e1FV3cs1JGRhFphyXd2aiRzStpIpNbJ+gxocHQV3uPQh3ULwVkdcPZDyQIo6yqX5QJKh64Ck0WEoFEXcoIgevUunI6o8kFWlckIlsW+ZkQmKVdBIdd1AbrkoOuHolT8prRAbWRdy4fCLhXZSOdGkPVVrnrNv7Mjdb+zef8+P3jjUUqiulFYvPv+9bbnfvPzG5U8985s/2LNv5l2enylG7LyqNdH6gFF8Wxa9ZnXm+efCMhVlwIGvrctbAeCSPIsI0hJIWLDTxUYeSX20YA7MFSYls+28fjZwvuPmPSAWoY1Wq2sw6xbt8/qZT0j4cazVh6DiIG4wPcjzmnCLHRVP+GrTpj6Vy6dUKhHV/RBYEj0gEbh3pnMi6Qf7JmwudDLuGMBydZX9KNBeR9BgkIIkTE74Ha0mGhDbAnl1ZTenVMKZdvJxd+toIfmtTSOl+69aV3ie3Dst8Kl3bZy6YPOmn739rW/5wabR5N6oP66azUNQlhm0PE2VyGXQRzpLFQZHlB9Pqjq0iKsMmYGGWdQzMCBWTEuATJUQRzueDybuXNSN7vM9Mzr7SiiUnikSUOha9oP4oDuRiKi+vhRcvLRKJtjIaJdMFEmiBopJHujbtLYmNwslue5Ek75TV1gIQWbQnKD0tnLtlPLiWbvq2pvGJqrv3bVv7D2MdtooE/HpOzZUbrr2vGdAP1w3mtrhNsdEobxoXRWGi2pow6g8kJWWiv2kVl+JtNoQCJBszX5wJD8oMa2RWCY9y4FLqyVghQYGCmp4uCDfSaLkCYeMIrWAc6JMpCAI2+4+0WxinDadWEhB9W4P8PbtLCBv/IXL51kxdKng9kVidqXpbxw7PHElY5xWykScu3ntzvPOXf+N889f/8jAYGpHNOGo8khRlUYGlR/jCA7RVqBAVCR0dSEQJGNBjdRwdoi4aVQkM1VIxjJVLO7DImVUfzmt8nlbXsknOpWoG0H6Bpqpc1Ao3klBV94WBH0NH694NhQqGrMqDSfDM6edMm0ejExtOmvtc+ddcNZXz79482Nnnrtx95oz1qp8saSaHCI3DDZC1oI57kWzQdnoFBRD+Gm12AslXDcvmKbedFAYPdPVo5g6LrbY0e9waXeOD7hdtwZXGP2EGNe342BDRqWzERXlBHxcwqsWB14xHx0veqU5FwVA+cMhZEn4NKF7kQhEA8KnT/wUm0OXjytkgYjTTpmI68/OT11w2cX/dM3brvn6hZdc+MNUJj3FUTsupdvBReGqgeFwN80G3RWtNL2oR9CCKOwKdVOP86IYYepODw2HKJLe6jjaIvE5HK2RBeKXKXxVV8l0TN5LyuWiMgPc43gEzsxvlbrRzbtuWir0SrsXachRVznkMIjCjVYUlJjKBFePc/hcxQnPsE5WQs6elspE3Hl2Yqrp9z+fSvT/slHzDtSraH05WVWzERAWh2i1ICifKBKrnxQuI89DqeSxgSsWKZ224d5p1y4e07EYz0wlWm0cMiAnyKYwdInDa/HxoS7N9GmsTP/dn29JvfLC7nVjBxprY5F0Wn+ehv2E1a5MYaBckJbWcySWXfpMruLSxA6sUjJpq1Ipp8rFlHyVQsBo8hMok95d5dA8kpKbgSluYaW4JU5LZfqX/21LbqrpnT9d9z80WVW3p3L9I7F4QjlcWWjVgNLdQ8KDYWsOe1voI2pF0F/ss0AcsXNdzhKBpY43VV8pocpBP4nSJPGpREHSWqjMnShUR6O5wBSCRJcZWFY+j5ZHBWhruAoWl7SM4UQcrnDMd2YY77RTpv/h86/l9h6aPnei2rx7xovf6cRzm6cafKYUVKf0HVYiQaiFzDEUQyh8ngMOqHJ+NI6KBKGwPA9CApcOFOWcOiiS59SUbbvyeZf+gbTKZtFJQhottw5bAdOUENkFuhWnm+aDpKJ3lyH0qydQIpLnKBsNb9xrOOmIsy8b95+XOBLzNMEff/H13MFD0xc1HXXP4Rnv7pof2+xEYJFUHNUYg0D0nk+2aiAS3yatCnyO5CkXCtSoz6io5alsjl/uy0GRCrLPlVahjoESnWiBN/c4GfdaOMgxKhK/YhmDxMS8etWvTuzMxLwH1w33f41xThtl+tMHt6cOjk9vnqm475+uuO/xrNRmkEwl8jgi46Nn3bHgyuqEuGkkDjKQ6LfQIvmc5d3Qqwn159TQUAkWKaP4PV5atpMHo0SGTj2k6RGr5CobPErAIiVVY1866n27Lxu//93nDpw+lulPv7U3deBI5fKxyeZHxqf999f99GbfzkJ3EjIqw4mMfAhHTzjwV1Y5tBsofR9qFlpay3JVMhlVhXxSlcppVejjIiiIB1ewjbZV60XHJ/q90zzVMNZbr6/XVDG35ia92u5c1PnG5vVDX7z3kuFfBFFXvzL9pycO5Y5M1S/fNVb94HglcqdjFzZ58QJn/6qmzAb2lQeHmHPwZB7eqa+/JYERxZYlCkiH4hcbLqqvv4kERxeGuVTMqIHBvEpBqVyuZktFQots+mP62rmJUQwf5yTEFJp1js9velGvuIujuXC08xp0h7lkHPqXTl1ZjZlKUtX/aeNQ4aH3nZdvKRKxqpXpvzy5N7f7wJEr94zP/N7hRvS9FZXZ7MbyyrNTykFHgMsZcxVSfvnbl3loIm2rEBaUh1rD6qb0UIk4QdVVzSZf5ecLfglVLOvVhBIp8zoF6ajStuIxX62zr8hfvoIfi3hONhY5UErb//SeC4o/1jHaWLXK9NCL9dS+g5MX7z84+cGDE7W7mlZ6QzRTVB4sknbtwKJAidgy60mdfKzPdnM1QCtNG1ooxEJhy7dgXZcfNPBUPp9BH6moisW0isZoifSrFhqngTKhiGKlsE8KKxdL73OteQf9pLi1c7CY/c764eIT+mwnVqUy/c2Px1Pbdh186859k7+3Y9/UXVM1a00knlVWPAN14Vv9YBHMNpwItNg80vurR5FQrbIgCAdU9AglPCaAjQXXYYeyuNPYr6JvFFfDo3nVV0wg3JM3jZsg9qVO6rjDKQQHWMge8oj78n3klmw00VeadFLuka3DWfW1M4ZzX3z72bkO986AnF5V+NxPJ+xKpX71c7/ecu+BCf9Ox8qt8eyMajoWCALCJ9YQEjKLyiNMxJF+joADrrIibZMhkcIVBEoEH8omsOUETN1eWjRJXkO5fMPYaig7VleFgq0Gh3JQpKT0mcgHujNc687qcAs1wlzpRfrt3B4nwmQwKzx8MoSFpNlN+qeF7tOse+2+6bLValAYtDsx21L1Bpd4q3DNUZVI2lzU30k6h3euz1QfumA0/cDVZ/RWJGJVWaYHX3Lt6Ur92l+9svtT043k+xoqt8ZRObQ0KbCOLTXEBZpE904EB3pjBySKtGrAaqV1IlFgaJng88ct9JVc1WhOqmRaqfJARuVhmWyZb0cGsCFh/ODa0wTJRFy5TlRVq66y0ZfMp+Iq7jvKqU46yq1sLWSiX9s0kr//8o0DcyoSsdo4dvULr+z42Bs7x++ChzuoolSkJCgBMeGDWe3yECJikJ9uaglii1YiqBSgSNAXlNnfdeW4NZTbVel0UpWKfSqfy8pXEM0ViKhJFGkll3+h0KWWz3967BfxPVpICt39+rSyG9Pby6noQ+tGhu6/4Zy18ixpPqwqbj31k1ffu33XzPtglUrT9bhqOGhxIlCkiJ7hwM/Y0zs2irSqIYqkyVIN5XgVuDAz8lB23ZohVS7l5YNj9Hnp9mpQHChZ7UbndIDL9sayZCKv5dVVpA7L7Vde6os59w/k4v/wgbNTR1UkYtVw7H/7+oF3//CfXv3XkVjp6mi8mG66MVXnapwRLpjCYWBKDFSJLh5KrddowFb3zFs4uU/7FwvkVfKNPB6lNYhK1dI6ucr3augvVlU6E1PDI/1qdCSFPlJEOtoyCNNyBU36Gt2sOPozmeUAXc9hzLYY2iJpWMpxYI2iUWW7VXh1YyoZqb00Wkr9w2h/4ZvvP78wa7HJubAqLNMff2XfTT97Ye+9XrR4cUOlEjXXVnU/rEiBjKwIYVgKUIlglawmCl6HUjRUJmNDkcqqv5+jdlAhmdlAoTKC16lIpxM4ZYrmyYcrnLQjz/dlkl9OxWMP4dRWHWNhWPHK9G+/efCm5185+IcHDnt3ena+4FjxaMX1VRN+vzxBRxz9yRbu0Z53tlrLE92C3g0KPqqup/DzOkN8a7ahLNtT5YGiDH8n4npZLmOp54LkAPHCtOJBmQh2w4iCIY7XhGj4P89nM/dlMtkH04nYNlgltEgLx4pWpr/8wfhNL27b/6mxGe/dueJIJhJL2z77SGCaPJRlpJYi9WLjSgIL1C3RvcIsXal076BIHixTNptQ/QMc/oYweR463L6y5Du6cyvTaoHwglYYJCO54Bc/HcMlseW876o4eRRpPt+Xij6QitnfSiUT2z5yWf+iFInorokVgT9/di+7zm978idb/nDnAe/dqdyZubobh5DExf/VC0da0qnUoNAED+bkuI3l1WfS+eyEyTVIRtk688s5Yx3XyLB/Q9Ua4yqe8NTQSEkND/eJRbKiLsrLlYYYh2m1iZ8r1WFtrGxrhPrmu1rBEXlHJdKPYz0ZAuf7WwkoUqR65OeFuHoA1ujrqXR25x+8NbNoRSI6ubcC8N9+MWY3m+4NP3zut586MK3eHcsP5eqcHgRGNeHeyfA3xzq7lGRlg4oULk/4ONhyOBfCIV/WwDYK146LRJbLeZVKx+DqQeHYj+LUKbq7XUorbt+qGuJs84svQZIvpqF0HY5wgldw7ZqVIzuyMf+RiO98NxN19h2rIhErSpn+4ZeHU17NveE3L+759J4D3vsaTj4Xi5eUw2lkraf1bF8jMpplZjVYEDxpedmy92jdVx7Cgk/lYQsczDHkoAOUhko0NNyvkqk4jllexueW5Z/NA56VVhtp6cm/Onwlw6zNQFbxfST2mCwoUNxyIQ91lYrUVCbmbfF85zvFbGL7p29YU5ULjhHk6orAd7b6uUrNu+6532z/+LY91duSmTU5O1ZWtRpYhIaWCrRgY2TkcIVDutOBRdLPlBogKlNDDQyVVTaXUrYNzrT4gh1+L6n1EmRAHVaPIINWPpO0Y6/39BGXL3NVkt+PakxBmeo/HywkvjNUSu/4F9ePVHTcY8dCxe+U4tHtfun1HWPXvPDa/o9u3T11+1QzW4rEy2q6aik7RoEBsyBTMgxOwVioHCCqfoRrQGcHCZ0y9BJi5k8LvPwZwRfLpK0R17lz3AqUxlV9hYwaHulTxXJSSZeRZQT5Pr0X3YcIUgCCoyDN2f3HzuOVBrp1/DxoVJ6ncfDBUVFYJQVFysc9KFLyi8m4/XA6Ye/80Pn5Y3bvDMjuZY3v7/FzO/Yfvua1HYc+unXvzO0VL1/yYn2q0oyqeCqLGBbcPFe5NE/yMpu+bkGYFXc5Cw/zZggQ/5+KT6IcNFUiGUE/KSWKJC/9oXY7rJKxREKtEysOwgUUX0gHgR/YE+Wfq1xQKFhxi6/mR53ni9nYA+mE9XAhszSKRIDlyxc/2O/ndu07csMLv9v3sd9un7htysmWGlZe1eTDvRH0BzLyygDnVPFBJL9JSnevzdO5GDsPpMU/1TAF6CTdGySYR0oSR+f0KxWppIV+EhdB4YCDnvHRMTKJXTo62rIxPEg3iNJtlXgufPmpBzPDEnAwweSe+ZcQXQwdJYDZwVlxg2GhLC7L1dgxkE/8fSZpfxW0855zF/csaT4sW8v0atMvTU5N3fC77WMf3rp74u2Hq1apGcnKV9zQvqhI1FIzlSlhUiwRhy8svSZcaTjawdkVBC0mbTLoKhfKrR9JozNt8QU/jtwVVDZrK9flZ0Z5rl1+UQyQhMhADNJun+5UPEH38XIAFYmuW6BQHCXB1pStlWWUTVsuSgoHG2pQoqqKexWVjbmv5tLxh+Lx1K4Pnde3ZIpELFvLtOmGT5/7yrbxz7y4bfy2/dNq0IuVwKuM4tevaYFsftbD5bs3USEKnnlPhX8tzsrGHHeSXkwkLLAMPb4+k6Q2q5VfKHjd7GtNqLS/MuAAGYC7QqvE1yeyuYQaHOxTuUIc7h1KL1OFaJ30kyOdorZKnW5feNsNfcdTBebd5MHkQtugIFQURlsktgtEOx4IP1xe3/Yrym4cguRMqVLGen5NOf2VTcPpx95zZnpJFYlYlpbpr58c69+6ffKy326buHTvuDNY8ZLKtfhOUgwWyEYLAELragefYuA8M60e/KMyBK2yNFnmeDb1fEDLsOMg/B4HIAFGMjpAITIjdhxwgGsrK676Kp9LqYH+PigUrDMNDnjBT70wOy3rAxLh02LGBAP0utfyAEtsqBO6QKYkQkEZCe7LQpFcTQgNTgzWKOlNqmK88dK6YuxL6wezD18/nFpyRSKWnWW6/8eHB1/fvu+anQcm7zkw6V5Wt9IJz85CeBIw1/wmEBUITAuaWMNQjYCjHWifnY3OqzV6pbEIIF+z+x8LROsZWHC9pBOIFP1+UShum+La9RXSagB9pL5iXNk276vjElrcqF08CtKTff6Ey9h9vHxgmkjNEZ1H3ecjtOU17YXhnKy6CovEgQYbrl1CVZxivPnC2nL2vtGB/ANvG81v59UnAsvKMn3lZ1OlLbsOvnXX/ol7Do7X3uaqVM6O5yEksEyubqWMNeGvZvJqhS6ZLiMtqbFMVCRwJhWTD4/lCzGVSJh4bbT2tTxqIsLHJmwudMc9iWQUSR/gSHa1DOhH1L5y0XgwWMqOHb18MV27uvSRYn6tGlONFwZL+S8Nlgtfv3Zt6YQpErFslOk7v/NLW/YeftuWPZMf3H/EubkRyQ76dgH8S4O4ngGMqDRDmrmyVoPZNyQwYmXoJKM7T4shURruc8Oycsty0hrRM2nAMjehSJbqL0OR8ugjoQY5H5GNjIiWXKOFSy9nfBRIS9+Del5qzh8PFpZG0HQKtUNkDoOStwFQ7vYSbXzeRreOi5/U0N5Mw72rVtMx98VCyvrKUKnwtRvOGNii0zlxWDbK9Pyrey753c7Dd+8er9842UyORJL9yolkVNPjW7LsD8QCmWMr1Zu0AIboFKFX3hZGQT9O8i8JSRiXLubyW3TtUilbFUsZ+YJfIonqQxynyThQOtFFXXadDgMWAMOvMEE8Z2Ou8IXCXH/0NDqUiS0DwF8qkiuEffDDD6x1JNKAeweCMimnUoWL99tSxv7G+pHyN28+s7yo95KOFctCmf7NfXv6X37twLU7D9SuPVyLrW9EC2BLVjl+CkLCvhIHHrjqhxaSFiGkFy0Ox3f1iUFI6CBIeg07R96ULfVnVbk/J4rEpbkiFtrrqM67UUZRpFYaKxmmPoItisPRcCqSg7I7cHddzmiAQlnsR0Jq7Eizmor5L+aS1gMDxdQ33veW/gW/KXu8OOXK9O/v31/asXv8un0H6tdNNxKDkWRZWYk+GG29bkOEI3hw8cyn9MPo1aCSFg5WElvvMC0HhIWICuPKykL5Ap8lZVUmy8X00WsAUZm4OqueOtRuYFaHMkmRNLVKhjKiWNrNYww6f4GL5zer8aj3YjGX+sboUOnb95x38hSJOKXK9L/8/SuDr+05cOP2Q9WPVr3sVb7dV4jGCmhpk2CRHmiUMRu0tPKgDseLE5H5rtAitzzQmU/OteOr5j460nRhkqmYfOKlVMzKwIMMgdMKSVwAbo8eQQS1k5kHJlJ3xHB4LzJYaHg3hTHfOYIz/SOtpdj0IIwmcf/QsLKRjWEbcz1QYyqpGi/mbP8rQ32pb3zk4vLLksxJxCkbGv+Tr2wt7Twwc/3uw40PNu38O7x4oZ/fSXLR5Mg6kADbWcqI7khrpZJj/dOyQrJlkD5sbXVbQepWHBzr5g5oxz5VEKtr/tipRivLZ0nKaqhEIoL+UVY+85LNcqaHr1x0EyxLL5mCAF06MIF8MTS3iWZ4mAy6w3uRQXe44S953X2umwy6w7vrSL9CY8P80IvVS1mTdGwLcmKDElCkhNuoxd36a4WY942NQ4Vv3nNZ8aRaJINTYpn+6pHDpW07jty455Dzz6bd1Dun/cRgzeeKZcGrAeQrXBh5gQuCpb9sx+Yp0LIlg9woRKcILJeQHpmSPoDlqCT6RcUS+kjljMpl2W9Eu4xouk9EcJY8jztLQVr5QKMQNDK6PGxI6dI54tLZPppeD/suh8Cr4ynbfWawL/3t913ad0oUiTjpyvRfvnuIk1ev3z/ufniylripGckN+nZO+fL591B2wMG2v2zmoWl0C4uJd0xo3YS01Mq6GPDeVCT2g1yV4LeS+jjYkIVFgiLBh9CKhBabVonWh2BTDWLxw7TSoacKodZRTo+rKUlxGcL+kX6WxKlCiUilmo43d/QXY7+695rBF+XiU4STqkyf+8eDud0HJ257ccvYJ2b87C2R1FDJjeaV4+vVVtnugI2aRFg0iYAIMxcmKMcsTKdACk1DoQcU9BB4MhFVRX4ricsX5zj3EGoG147Z0/0lM2K3VAiYu6ygB1M8FNjFjgdtEksFty7q8XuyNS4UWS3EvV8PFeNf3TCcmfWJl5ONk9Zn+tunD+W27z78jue3HPr4gYp9g5voL1XchKpBSOwYHz7yoSwiUon4Ig4Ui+2QiExgdoS5OB00xuJTUwwMMVBPN2mFALzKUAgmkTC1rjkehNPpumcAPSppztF94edd6hAYTl51ZcSu3J8Ri0RFksdFiE43jztakTrTblmqAO1pN/NDf37fEI81sQgLS4EweVnIFUHis9BZHh0N9YlCuzL30ld2FMdeUz46low0q1nbe74/Z3/tLWcMf+fG9ZlT5t4ZsFZPOB789URu1/4jt/1m28FP7K147/RzpZKTyCjXjqsIJ6tylrPMdO4NnqE8iSIFxwbCcwTMVUWnDgvJjZRKPjhGqxSP2yqXS6m+YkplczG9fHFQMOoKdcjjojFimXj9icOxJd99FY8NdSMo2Dx8olLTKnGVKT60pwDIxxZ8dypheb8o5RNfHh0sfvPaEfuUKxJxwi3TY7/zU3sOHr7tJ8/v+PiuCe8dtVgh5yULqhmxhVF07vQK4BzqDTPfEH/bZ4xCmW4OQQYTTGWeujlJYAZMJsy+IZ1hdqp15tlH8qAgdRWLRfVzpH49cTWe0FbZXEntaSmQBGhQyXpB7rEQzBNND78v5M/EY567/8Jp6DIZorZo7wKZkAoFLxDARUNpWT0pMOLAIvEzN8qFVXIb1UzM/1V/PvmVgWL24fduzrzBpJYDTqhlenynnzo4XrnruV/t+cyOg94trt2fsxIFVa25qtHgE2sokuSAX/sOfJk5wFaKitQL4pasCLCwAcupHCg3+0h8Jymd4YBDCsqU0IrUwQ8tilr55ubR0uJ478Pr50gDFUZlaRfFqFkwmgniLAf6tVQozsjj6xS2W60mI41fFFPR+0aK2Yc+eF7mhE5cXSxOqBh++7XGe7/56JbPvrT1yDtUZtB2olnlom8kkxXJTPrE4CFJhIXHwbXdoCIZZeIiGXorm9Y1TDMIOgoYa66YS9W+IFeBlkuK0k8KENGfeGm6FezX1eBATg0MZOUzmMmUjXJAyeD26n5QwBOxTHOXjm8ahzGX1xxkqQe6ecK6mSty4ArMgskD0pGRUZMe0pHyk3S6RpH0FbRITdSvEzSaFpTJlvq1HE/ZTk1Z9SNOUs38bG0x9aUzR/sfuvO8/B65dBmhswaWEP/uod2x7/1w28df3HLk1nRxo+1FC2BZHJwCkzwL7p0x8YCpsx7CwpC5LJIB4xha/pAS4a8B98VV2XRClUtZWTAyJq4d5+GxddbKY+bbnXycuHt2pgyl42RV2QaEfZENUNRtqKgz5WTt5o9HiskvFHP2slQk4oQoExUJm/e++MruzVaM35JN4vAoGgGQyTTrYdICpUlW5gSZ4+64pxYoH1vfuVpzCowQZzfoGeAZKlJ/QT7QHLPRe/SgZB5dv+6y6PLOB7rJYVoKGD4fEyELXM9bUygtqT82JuxL4deCi8+H1eBNS4E4uwFBCddVkdqUSqvGs8Ol9BfLpcK3Pv7W9ctSkYglV6Y/+/b2lNOsvvupn7z8SUflz0/nB9XBQ5PKAZPoGa9+dCmVtLR8fgSh8fQUIa4mlMnFVP9gn+or5lQsTtdOC5m+ltWyknnFvLMMYWIYtQVlBHFqEN06TeQRguHWxsC3OHgR8x2VAL+yVv3pkb7E5/LJ2EO/f1n/AYm4TLGkNfbXTx5IHRybvOuHz77yz53Y6K1OtKTqfEtWvtzHl7o0w4juBnze/k7A7DYC5s+6gJV2qoACdRcKGbSY9+BhrOOC4P9zwionrnJprlwW5ZZy0LXTgqZ7SeG0uo+PHd1Z5DFvT+53vkzYq89k6qGbz73Cu/PMtAMCX6hM+jp9LevSRmNi4xouGqmacHcbk6+tKcb/opC27/vUtcMTEnEZY8mk7788uTc3dmTy9l++uP2TU/XEO9xoBr2CGGdSKS+KqrJQOYEirW6wjO2WWFwuce+4mL6rUpmozLdjHymdQpxVyRIWqlfBjEK1lYgNrNZZS14odut15dcrKh1tqqFC/HeVuvMITh730sUnA0uiTPf9dKY0OeHc8asX937m4IR/cyI3YDtoY9wIGGRzAJwM06bdEEEmkpkkY/7bxKtWEpBfybMURkJ0GMuKDnXUU/F4BG5dMN8uxyXLcIanqXCrDahcuvVt0vXNZ0jcklUM46gd36Tm+ueWBZmp1VTUrali1n5q/Ujfl9YN5iZhlTgqs+xx3Mr0iwP+4PT01Lt+8+rYxw5OJW5UyUHbSpWVE4mhc4lONQUG7EK3WvoFLUJIeNCgvbfSIWITEJWEVolf73NUPBlR/bBK2VxUxeTFYXCGzbFsRavwD8HjJsSb40Gr4z8XcUBAiHF5b029K4TiskCRQRKEcAGao18xx5E0OAQaWS8KbYqh+FFJlctzxaOOSsfcp8tZ6/O1hvPYQCm77N07g6DIx4YnXvMHf/78zjuef/3wR3dPxd9W8dMpPwK3Di2MY9EiYb9VL+gLoML0/LIA0tHWkDioXJ2lo2Vrrpb8uNuG44arv7SmkkloC1wV151R8VhTpbM2+ko5VUJfKW63y0eBRqsi+9oNbpeNi20utIoo/7IVHh4rkIgkhDQg9C25NzD1JdZ2HiAJeZYY1KV4IpwNjwaUL/zJhFXPltvwJQu+oxXxq8pyJlTOmnrq7NHi5/PpxLc8z69+4IKlXXX1RCKogmPDx/7Ns5f7VupPDlbiNx12c7lGJAXG6cUu2EfSkyfRIkFYOF2IyqLfUAGCijIC0xYCXQHzY67KPPXKxAUgZRuFNfaqKEoNCpRAPymtiugnJRKcY8bBBg0ptrAGPAqu1SvNcnv8yiTHnUFzgAm078WsoFaCI0AUyfCXyjFXHei86BpHg8p9xKUi8Z20qCgTlyHg80YOOoDgAjuNcVc5429cdFb/fyxnEl9/3znZ8SC5FYNjlr5//fmX11ccdfWuA9XN07VozlP0W2iNWAWGwuA5kq5brWjBsdSjqSxToawFHBspWSHgLGfO3XW9BsrGL1NwwKFP9fXloUhxCHe3EAZc6mCW4cUSoCPdReBYryN0heJfaleoJRFGsUBcLDKKBifSOKLS0Ya3tj//ciGXfnAlKhJxTDX2f3x95+i+g9UbJ2vWnZFkab2KccVVPfQtgwlzQSrICAoiCtOPJjjzJbjcgL4BP+3oVOV7SbF4RFy7QiEl35SlleCD2bD1mOVKhSBGhdcsggy6j5cGTG+xaaIJxSUsp95SqSgt6Ef6FWW5R1TUOVIdyNk/2byh7xv3nJVaMX2kbixaUv/DQ3tHX3794O0HJv0PVpzktU0rl3MiCfnEi7wVGeiIaX+1YQEX6RkII/UtxY1o+eBos1jx+O+JeVyKkw0KhS5BD+Ck49ZQ1KpKp2OqPJBX/eUs9vn0hGVgi4yeJK2wSYTpcQAgOGQwecbj9qMEBpj93ug+LQMbiwLdr65EwofdddMRlSfDEcQGhfKkrZKesIp+Ex8T+I6KeXWVUbVqMRV9Zt1o//1rRtMPv7UvsiKtErGoVzD+62NHRl7beuCd+8bdj1bdzLW1SDZXt5KqGeGLFJq/ZKDw0DCSx+xwBn/6BPdM7ymI2F1ZYczXfJ9kzGdDdSGasEi+6u+HIg1wERS+r8VTaI3JC4kHIKouvy5eiBOhnRCOwoLZp49ywSyY+jkGdNWPOTJl0r4Ha5xDUpwuBRfYnVEJKNJQPvqzM9cW/6GYyzx83aC1YhWJmF82Qnjgx9V1r76y485du6f/2UwtcW1dQZEiKVW3bCiTHrkxroW2MjwGK2VLfrfZaqhjKFbCDPsNLSMwj5JPs+2NeMKWd5K4UGQGFokKJPyAleloPFYBpBEQQt2F+dMqo+krMY5x9zzlNWvYNqZymegza4dzfzdYzjx8w5qVrUgEJfio+NvH9q979pevvev1nZMfmqhGr2xE0rlGJInuox04Lp2QYxPYOhlmNKj7IkE4znKDyXc4bywEiT4syVGJJJcvzqkUXTvKGE6b0TmN5Vi2xSNsTbVC6aNAdWQrA07iz0PQEMmCaxeFa5eKOFOFtP2TYj7x5b6+1KNXlu0Vr0gESz4vHn7FX/fwP770nh376x+absQvrfvJnBPLKQfundty78gosU1yrOWNR23ZE3ki0/Uhtp23bvcaQqAkErNyqftQ3S1Bux08dnRf3ToOCqIVo0183ZzrNsgr5/mk6ismVKEYlxG9QI4QTefXpKX7T6H8M+1Q8UO7AnO3eWESPx7Mukl3gL6JjMEiz/IYAFtTx9yKFDAYx3xQzwVgYmho7GZFReqTKuHNTJXy8Z8M9ufuS6f8x+49f3BZT15dDObtMz3wy6lNP/7ltne9sd/90JFG5rK6nc01bfSROO1Dml2+k9TpvEhLFBzx1zDaTKIUWeTWXNDCbHWaFaWFIC35bYMt4fFCd/rbpMsXKqP88P4gKJEFa8TZDPlCEq5dRhX6+K0knDIFBZgruSyAbmawNVFkIMbcAdS+VCN88UlF74zo/JMnQb4Nz7gFSYPGffi4FJMo+pGR5pSynenxnN18brSY/ur6gcI/vm9zcR/TWy2YU/oeecHb9PwLu+783daDH5mseJe7kUSO6397YI22QQG44+EYW6pDuN9EkhE8UDe6460MSGH1ForEqULxhAVLlFalclrm2/EVdA3GNbTKELSQ+lmh7IZAdxcSYsEaWVzfjnPtKioeaRzIJCLPDPRl+Mr5o7eemVm27yUdK3oq00/3+ut+/eru27fumHj/xHTk8oZj5/hkQBocnDfPC6gEerpQIDC95GaB8rSAKCcds+Sk5atqRYrAKmUyMZm4mi8kYKHYyDCOduNkFxRshMC01oEcC9p7KwHa++gEy80ZlyQ6eJbPJbkqympMKKs5NZ6Kuj8t5ZNf7S8XHrvj/NKqUySipzI99ezu63/18t4P7T8cudyJ9OV8OwMWISrqnPJEZRKFQlyyTisUmcyrjw0hr0jQfdwJ3qgXHT86UgzKGD6moCgISjTqiSKVSlCkXAyKxMbFUZ750rkoTS9CEiFqn+L1mpYPOkrPAIFkHYetrRCOgtkNHGiwvDqVSMWak+OpSO3ZbNz/an8h/cRHLi6vmj5SN2Yp0x9/eef6Z365+7o94+qChirmXKsA9tC9A8NQ0cIzkmEwUuDytd2KZOIZdB/3golztHiIoaldk5qWAN15YKptgrBzEUTLlUX0+T3ZnHy9D+0xlIizH3zPIaNAvBoIpWfSNPltPRpgUIiWDzpLb8A8Um1ajSh/UThRJFhsfispquqQmtp4xm4+W0qqh4ZLqR/+/mX9eyWBVYoOZfq3396x4fUdB96ze9y5yokPpK30INiSVE02xsJPXdV6dRkE4J8M5fZUCIGuyDYtDYIC9QQEBi5eJsu1G7KqWE7JVyr4ZT/OxaPVigZDOi1Lwz+zv1Di9SFabmDVU3VIbaViTnkEZYpQmRqVTFz9tC8Te3CklH7sU1eM7tRXr160lOk/fOf10edf2vGufYcad/uxwmY/1pesqZhyozHl2Rx00OxqC1tY4Oau9o4WeYkhlRqipQETCidmysaCeCqZiqtCIQNKYh/sQ5gLi8QljrnCs8wUOkpejpZvuVs4jg5eZiA/SNilVRIXD/1IsUryScz9iZj/5EAx89TvX7l+1SsSIcr0xV84o6/vqLx/x/7mP6t7+avjqYFcM5JUM00ICoc3o+CYaISpVuGgrmkJgxN4ojTmBCMoSYs6AfcNbpvHj47BbdHThPjKeUrZMbAOReZqQlQgK2pBoGanQBjOGZqF7st6J7N8IIVoK49F1xeWmV+miLrTKh6pjGcTzeeTcf/pT12+9rRQJEKU6fVt+9+1fV/z3qYqXu7b5RS/JdvgF7xRqQ7+XLgx0sEEaNp5mWzZIskDyZ4ictzoaJ170PGCSbBYYeoAWlvHq4kyReOOjNiV4dpl0vpDY06TbhkaG2oTeeLrKVJyaSixcJ6D0x1gzPnOHwt6uo9LRPpxB5TJ58zvmorK511qynL4lfOZ8Uy88cza4ezXLzl/3bJZuvhkQJTp5d/uum2qFrtSRQsp14dr15rNzWfYIAgGlYezwlnxfA2ZIsB6F7XC4RLJwDKALpsmuG4WXbuo6pNnSRlYJPpyjKdBa6QHY7RCURu00MnpngjfoRctf6C8dGvR0NpQqBiUKe7RKlXHCyn7B8N9uS/3FzOP3dqfWrUjd70gWnPoyHS/suKWz5kNfO0aTJIVdWTLYzBPFAyqQ4WicoHYOvFbs0ahTjbCrflStehICUS3VfMgmbTh1mVUsZiTV8/ZL2rDFJpKFJAo1vyZ6c73LAriLVsgk6xvTiFj/0jcO1WfKmcTPxouFx4YKvU9efeavtNKkQhRpiaEwPWDFlceINEf5jAndqV2qS6ch8eQQNhwXvxmMfnYXRVgQbjQS0PIijS0RSrq1YTiMfCD/JGyg6ShIcg4TXT12sfHhm636lhoadAuVydpMbHQn7RcuHhQpKTVfGKolP3CaLnv8bs35k47RSJEmSKRqHLZeRZeGUUh2AJx4Qu+bh0D8W1acJFz0mC1NFGhEBTQigXLDeK7Nk5zRrlORcUTSvUVMiqTsVVM5tshDvuPKLf+Irp+a5bdRrMUMFtt2e8S7sXQ8oAuS08SIJ9uAy1xdSppO08MFlNfziSjT9+5MbUqZoAfC0SZ2JhyiVqu++xDUfj0gO4bV5CJQImoTEpBmXR0gIKHeBJ3KaaXLhfAbYl6Kobi8mNjA4NFsUg85lwzPk/SSsQX3DRRpkTwutESusWjl4Itlk406KtYEW8qnYh+r5hLfSGTST7+0QsHTltFIgJlcmBiICSRJuSCfQW6bhYUKgqFimuFgjHnGLCWHVov7eKJuQ8q7zjk59QDmacQ8rVzzgDvH+iT5Yv5ZQq6dvKZF5ogMcEsf1hgWXCy0tBKZsR8gFwEhPqvxuzoU4MD5S9mc31PfvLS4dNakQhRpnjE/Z3lVWZAYBT6CnDz5JGJ/BDYkn+iLbgEimZmQYhrB+p297SSHR+F01sI9UpjNvG1CjYUKEOgE9LvozWOeK7j1Jrlcl9zZKSg5OMdgBesa9eGMEfvCnjexAnvzwfdIPUicSdnhS8kzaUD7Js4+8iNHHGKEAcaYv60iqupasqfeaSUUn/jNmqPf/rSvim56DSHSMS/+vxLNz318+1/6ETitydS5YydKKElzijXT8jABBmrWUslowuoK1dEShRMTykJg4IroA8pMNu5YIQQRM1YSgR51GQsh34g67pcjiumXM/xHL9SW7M+/1r/QIFLdF3EyHztXOcHZUbZqXg6nxrSoEh63eiMR3TySD/HI7qLK7fUuwJ9HiG4wFzTze/Fgml23IM/QT64cVDcpsuS+SoB9z8BzyXSnFBRr+alou53h0uJv7GjkSf/+xs3VvVVb6LFzw/+Xz+9acv2fffE0/1n+nYx7kCZHC+JKmeHIYgkgBKhJroFoBPaSmmElWguhWJkc0F4P4C01MeInoqkwQbCCaYCxWK21z+YeWNwNPUdzrcD3g+3bp3VGgvXyqQbiXYeJWZXdnsC1xpF0OAnVfReq+EJ0M1bRqPSioMVXCNbNFQLUyrkO9gz6H0PvS8eCZe2trh0sauizoyKulMqWpvwUnFn94ah/P2I9dS/uGEjn5+8iTfxJt7EUkKp/x+/tC+/RIsBpwAAAABJRU5ErkJggg==;" parent="1" vertex="1">
                    <mxGeometry x="419" y="207.13" width="82.98" height="64.5" as="geometry"/>
                </mxCell>
                <mxCell id="gqOmW5GyDEAlzpihz6fX-8" style="edgeStyle=none;html=1;exitX=1;exitY=0.5;exitDx=0;exitDy=0;flowAnimation=1;dashed=1;entryX=-0.007;entryY=0.201;entryDx=0;entryDy=0;entryPerimeter=0;" parent="1" source="gqOmW5GyDEAlzpihz6fX-10" target="gqOmW5GyDEAlzpihz6fX-30" edge="1">
                    <mxGeometry relative="1" as="geometry">
                        <mxPoint x="356" y="239.0436144057942" as="sourcePoint"/>
                        <Array as="points">
                            <mxPoint x="355" y="239"/>
                        </Array>
                        <mxPoint x="395" y="240" as="targetPoint"/>
                    </mxGeometry>
                </mxCell>
                <mxCell id="gqOmW5GyDEAlzpihz6fX-9" value="Trigger" style="edgeLabel;html=1;align=center;verticalAlign=middle;resizable=0;points=[];" parent="gqOmW5GyDEAlzpihz6fX-8" vertex="1" connectable="0">
                    <mxGeometry x="0.0161" y="1" relative="1" as="geometry">
                        <mxPoint as="offset"/>
                    </mxGeometry>
                </mxCell>
                <mxCell id="gqOmW5GyDEAlzpihz6fX-10" value="" style="shape=image;verticalLabelPosition=bottom;labelBackgroundColor=default;verticalAlign=top;aspect=fixed;imageAspect=0;image=data:image/png,iVBORw0KGgoAAAANSUhEUgAAAGIAAABlCAYAAAC2oDa2AAAAAXNSR0IArs4c6QAAAARnQU1BAACxjwv8YQUAAAAJcEhZcwAADsMAAA7DAcdvqGQAAB7kSURBVHhe7X0JfBzFmW9V9TGHNLoPy4cOfJ/INja+wAfggLHBeDlzEAjZJIS8/B67YWEfm10wkLC5NslLXvLjCMGE2MYGOxAwGGyDjY2P+D6RLdmWfGkka3TN2d1V7/uqe2z5whp5NJKy+5da3V1d3V1V//qu6uoW+R90D1Bn3e2w3xI3LXt/5d2fbt06eMfJY64w5cSC0gpYNM4IixmkOC+HjB8+vHHqiNEbJw0YtrzEp2x3Tu9x6BZE7Kn13/7nzVtmv7x0eWmzx8Mimk4EszwaZcOYoF6Lc2YJAaWF4sKvahGicEI4kEMVSqjKajklNUZMBKngJN+rBmcPHbbnpw8+uDyH0s3Obbo1uoyIWotrsJr15Z88f8eWusYRYW4Op6qiibBBGPR4kzEoHTS0IIq9BiIAWGATDkHDSzDY0IEYSoQVUxjRVZ3ghYM80qRTsbtE82xZ/NgPll9dmL/ePqN7IuVEnDaDnpOnA9c9/OsX5+03zJGRWKw8ahgatKcmezyBBrfbvN2QlcDT4uRQRjhIBsBgnDcOyMnfec+1Ezb9cNa0ZYqibZWZuhlSSsSmU37v7qojs597ffHdxxm9RdMU7LxaNBo904hJB5CrUMXIVNjpgWna8t9969HFVxfnfewc7TZICRGnhPD9ed2GaY+/tuiGHK9vTKMRLI+qpk/jujwuQO10GhEAMO1SyKiw6nyats2KNG/c8ewvVpTlpW+yc3Q9Op2ItX5/3spdO2a8vHrNfYGm6HRTZy5umG7dUkDXg3J30FlE2NcVto2BX054RBVa4+C8jL9+8vRTL+VS2i3I6FQifrxy1aCt1Ucf+LSq8tpAa6jc4iRHgKEFBU7AGwKDm6Ax6CCQjLixt/8ycIG5f1B+4dKVT/3rgqJuQAY2S6fAL0RhvRm6fv3Rytm1zS0TuMlzQAFJEhCpIgFh3wr7HJUdAF3cmGUWHKj33zn2iSe/ebS+YRrm6Ep0ikT0uv+r/dLy875tZuZMOVFbP86kzKuAWyRY6hr/UpDSgQ4VSAhn1GSxaENxn37r7x085BNIffHH984LyYwpRtIl4jgXeXNvnX3z0ahx2/G6wDi4hRfZliqpuwALxEA6IDakqrvgSP3pG9/aueuuYZPHT/hMCPTkUo6kN8+s/3yuZMWu3TcxrvQHb8iLgZctdl0vDYgLNCLEHCAbvmPh4IhfLlx0l1pZXW5GheocTRmSSkRlUySvb37f8SdCkZEWI97u0vhfBGHrKRIVPHNnzfE5v3n//ft3VOwf7z92IqVkKM76inFCiIJn33pz4qZDB+c1hSPljBOXkJFy94YAEaFgOBynKuNkU0NhFPpnZaDxs1ULX4/K1BQgaUR82Nw6+lD96fsPBxqnw24OamAORHR/Kuwy4l+gg7RaVlYgGOSHTp9+8+SaVUE7T+cjKaqpxt+a58nNG3mkqekaqqgFqHdt29D9VdPZjoLONZSXquRoU1P2xFEjhi6prAL1mhokhYin31g0wGLKNNOlFzlJPRbYeWKCF2zeu3fuvu07h1ccrvY4hzoVV0zE9iYrb3sgMLTK7x8Bu5l2ak+FrZ4YoXk7a47dduBU3e3LduxOiVRcsY1ozi0cW2cZdx1taR4DEaunJ1iFy4GCbROMZbeEwkqFv+7d2rVrGp1DnYYrlohVe3b2Plh99GrYzAZP6e8KJ0LNOWNGDCquTkGQd0VEQAEzM/oV9YmqSiaOXnSDEYykwqA0NxqM3PLehs15TlKn4YpUU97106852hC47USgaQjoVa89jGE7g8ldzuLcvbOI94FLHe8IVMrS6mrr+ea9+1cHNq2vc5I7BVckES+t+KB/5bETY6HyedL1Q+8PIiPK2yy4f35a2/RLHWuzL6MtJy+O3p4/TCF3Hc5wUC9p4JwELCOn1op1X9UUtkSaMKKFzc0BH4+ECIlFCIk6C27Hl4ultU2/1LE2+zRiQJpBRMwkwjAJtSzCLJsc7sgCkhNfkgWDWyQK9wg7+50JevvPf1b+Tq2fqKoKHQCqJanhhDEG9cTeh91M5rX3cRoL5Pnn66eNXP237fO2VR2ZCqnZdo5OAtxPNjDcXzoEuFYVwlUIHBUoHwSQVC64jQ5octjA6TqCaPvKS0oeeemhB9dfk+2DHtE5oFN/9OPd65qaiKJAw4PY20RA08bHiaDicWlHIrCOGDVDNhBXlg85czrdSMMNUC2hFFCLE97UTKxQhAhNIQLKDYWHgFglFNdQ7mQ5b0gEEfqxb0+b+so3b5j2ayCi3jmUdFDl0ScEcXfJEHyHoQkg43QjMUIhwoAM7CiSEE2XpKBUJAfYAVQyvaxs/eiy0n/8yT/M3u8cSDpwPp2z2XMQhXYWOT7iSnMRJRYFOxIjxORJ9ZjaorKqMmfl6lUuZ7dTAJbg7EyKngI5bA3K0YzEiIVzokBCMKV9RFw6lzQxzraUBlzBnwg4DM2hzh2IZdRK2QBjkgH2wTIIN2M2EZKMSzdyHBzO4wSf+aAxxFFiSy5MEeCwMKKC8VfAM2BgHzQG93DBNTVOc7M89iSsTgJVHn8W7pqy5x9JAfoG6D2J6sNEtLYQ4vUSxeWGkDKdWGgrvsBG4OwRnMmBDoYCnhbmxVnmpjTxQKU3jaT70omuu2DRIC5RiWhsrJ43duyrJX37Lfzlxk01qkZJxIiQ6e50/vyddxtXpSlX7E31SCKw8Rh4ePxwFSEtLYSmpRHidhGW5rssEVLlaBq46pQU9isjala6dIENywQpAEOPLmEcIBVIGPyFtXoYOGwQxLJQekxhkFKmNtw1aMgnd4wZuxzIOOCc1SFcERHxImMPxQX30d8/O2EA0daZRHVg543XF+oECdh4CTidDhECiODgeqNEsDRcLk4ElgnDIbyDouikb/8BRLjdJAYWEq+DLq+M4AHSZW0DLl1n53xYGN4bzKpgcA6kU26ddAvzwI2lxevmz5y5vIDSDr2jAUT8CIjoWOxoFx0KBxtMBiAg5qAz5HsLkMaxh2EqVhYLDRllXllXiFsoRMmwhRXkqCbaC0kE3OfwIRlT0LR0wiQZZ4nA+yHs5+aQ362TgpJSYoHKkQ0v05MJXufi4QMTcjPX/PrmO9/KT3ftdA60C1dGBNRW6lsLDKDkQTQpXNTEVDOKPRy27SAMexvUG+vOQedaqHeBCAqaGU5NUyw2RKqA9rYNXOhSRJhAhOytmA3JgEBQTfOQvLIBoL7AjsR7PpyfTGBArDDdUk3j8OiCzL/MnzP79aEJSMcVEcGgklgdzkVDIeEHbiwr2fLQLXPevOGF/7edqxZRwLdXMQNEwzI/kIUkWBSMoEPE+//ygy/f+4tfPdpoWgMhS/tGg+NEHKl0VFMaUWBBIjjeBIjAO1II9jzZ2cSX3xsib/CAsDM4kpJc2M6zAFHHjqmYSr2m0V0Dsj0bXrlj7tI+lF5WOqjyr/9md9d2A0dysCGws1lEs2JHJxX3ffemMWOXvLfygz1/+Y9nQjkqbfe0xX1CpI198vE1JnePAY8mMSJAIoQjERR6PfNmQmMDEeCGot1AEtIys+TwRyqBXINMGh7Gjo8tK1r8i+kzFva9DBlQ4sS6iG0PoMeB315IaNU9/QcvvW/cuAX3jh+7ed0zz9YnQgJiGKVBjvojoc7QBnAa9nSsBa7RFdXBi8rrXUS8mRkQH6R80p4DobUaZumHlVX3PvTWm1+vMQQ+xbwkgIjEgSrJza2Kq4t7L7tz3Ngld02ctK/M5e2SybtxSBrRNrjAGLtBOmDNVIwD5OGUIt4hVKYSXbhKdp8Ozvv622/ft7fy1CXJANX0w4REAg2q2zT9Nw8etHTW8KGvPXjttTtVSs8YmWYher+ycuXUV9etn1IVDmXFQE9bSDfcRQHeM0Jhc1L/suO/+l/fX9mPUvkKVfoT/7wpQr1jZZb2oK1qam4GNQSqyeshWl4+ceUVEC0jk6gQV0jvCIWto9LWQcghGLhl/NUDfANWMXgVaM+X93/jwR/JxPNAlScgjqDtjyMw+CnR9T2js7Of/eP3vvtOJj2rigItzQWPLfvLzL/u//yeVk4mxkBLoFd7lmloGAicPKoays3I2EIbG7b97OGHDz/4q9882upyD4ecHbIRaZ4SkkOGkgy1L1FdENx5FRLODZNgn2ZiuUznpNQCqbddFADsMIuGvJq++ulp4/79y1f1v8CbQl/P2WwfgGv/oOJ+G+6aOHF/WxIQi3bvL6tn7J5aKqaGiciF2MAHEYUPmHYW4uOK6gsKUngk0DTjGFe++70/LfhOq0UgwmqnNJwHF8kgBcZwUhQdRbJa+xBfQw7xHc8k2Ydyia+m66ZZxeVQLuhdMuENGuaY3370yUw8fj4SthEKZcHq5ua/3Th29CEn6Qz+uOZDfVvFoQIX0X3QaUE8z8rC+VBAmUCckedvbhlJXczbUb/SJTJIGi8kLg6xBAgUBd1JQUFrQY146iG2kHqxa4FkMJAPS+FZfqZc+8LB/ePtI2dxjuJoD7jFeUWtPwCh/AXGefzI4fV98wu3WeGYH9sVdSS6ulLqzpc8SLZU+MM0L0nYs8FroQBhvIA/Fx9zE6Ccu8VbSlBOXED9uMKEXvNfn229u0ac60UlTISgVBtSVFS6sKLygnmuD82efTTGQ2sEDR3nII4qhNsyuobAjdFzdbXtWTiBELKSEJwyQ8xggLMWzKwnUdfZ5wXY+LHMCAkWtXyhVKYW6DjI5ihqNemc7y9cdItzQOK8bnp5QPvmBRoapj236E8DnKQzKGdaaOZVJTvmjRixsizNtxPaq565dPnoKbkjCg590MbMQ0m4MED8gw6SuvJjxF9+kvjHnCR1o2pJqCBls+oTgQpxcPH2UGhyqxBnVJTCpsx4CpSqs3t5KBbTYtGYMrC4z/H177xz9BdPP93qHJJY+6fFIStiVUUMY9+AgqxQLNyqNbW0hjjTmiijEcjis3N2HChNqHFESzNoNZWw7DRiZYOEFTISyYqSWFaEGGkxUE3dRRrOBUgpZaorvanBH1u3YMEqTAOJSEwtoNExmVJ08HTgxt+vXnVDoxCFziEJqtDwfZPHVbzw4Fc+ePLGGb8Z7NKe1IzoE/m+9Kcn9++/VI1FdjKFneSG3UgYHCYKLDHKhOJ2E6bbD85kLdAmdRO7cBlAWGHlfVBzEmfQSyQ86IcNh56mRXhDjlfbPWvQoLV3Dxu5bvaIYduhx19yusmGprC2s+pQ//mL/zR4wphx163Ysu3mmEaHUzDi8aALe3q7IOMIStSGOqJB46vZOUTPzCJaVm47Hgx1A0CdTcWKqQb/9MR3vnEDJiVsIzCyRipUQXMaW2LjVlccuf9n69Z+//EV79zSIEQ/J9sFmJTpMR4ePfLAhh8//97Xxo9dcOvwgW9mRiMVGsPnxpAhkbaTxNm9HkygXPckYIkVqAO+2hZH4sYaL4NPsdCuMO49EWwu2XDk+NSFW/c+8MDLL97/vd/+ckZYiGIn+wUoo9S4raR03w8mTVlyW0nJonF9+hxCYhNBnIbOecCTCqD7BM2nqtqvP9o8BFNANT0HqgltaPthu4SwOI8VmakS+Im4VOtUqartL8jPXXe4vu7AY7fNqbt/9OgKD6V+mbENDCHfZR702rZd9z++dMm9AUJK2uvG4t1xBFgPnCY6nMKysnqWakIiBLW4S6meJLTfLnngnp9DqbFaiQEHtaRu56pcMFYzmOlutUjp3pAxfXVl1SPNQvznX/bs/uHjS96YvbDi4AUxh0apCcu+r4wZteAf+g9YCgqqtiNl6YnAQBe6sGLEjL77gy2TIObqm7Bq+iKgby9U7qYud5+AYQ5cVXHwugU7d37tj+vWfX3KM8+PAb+5wMl6Bi4g4ycPff2NdCGOwOk9b7ZbB4B2TU7r4YJF3C58CWYwyrF9tJ1wlNIlASJHOINrWrA2iKdJ0Sd/ePDgwwcaA88/9947t1st5gVkZFC6OU/Tg/J5Akrb37tkoAqBJlIpI2GI7sJhfMU+QSIkDeivX4QSdD/xgQiaEJxMgIQwwwINpBYHdH36H7Zs+cq2wKkZTvZzUD54MBQGrUSi5emJsDscdjycRtEUaE7ca8LZcToREZXwFtht/ww3uGdY8Y7bGvBf76Scg769ilBUwTO1JyT8PUN2VNnfKHGBdGCdEyeC8Eihrh8alO5bn6mq+0GNNEHyZQmBoM1kwjrdx5fV4CSdg4OVlbKHoDuaSKHOlcmegbjMC86Jy+l1CRMhYkbdmNLS5cv+zxM/m9D/ql9l6/obPk3ZxQQPwA1a4C4tuAafSi5wCiyiSRfiaL4i3ppRVrbMvtJZRAyRt/Xz/YphGtCw9uS0ywN6kaIQzeUhuttDXB4PbLsIw4nDTg4b8WrHe2HXA8uHKlhRNFKgu/HxaKPCpkxPaNAPLlN/8FTt67/80sx3Dy5ftn3jhx/utFoC/kNHKgJUVaotqlRQhVUQRauA7l1hUqsCPNX9PsrXbnlq/rIcSrc4FzqDa+becd8bFZ/fYFA1D86BEOHyLYY50hWVZOfkkQxQaxmFhSQ9L58IqJwlONxexYBJ5sSeJ6sP1+0OXGCHgMgajKcrdEtJ75Vzy4e9AgFdYnNfqWVWMst6Ivbznyx1kq4IjUJk9nnkkdeiGTk347MOJ/kLgT0Kx/UyjBjJzsgmemER0fPziDuvEIjAV7igwfGZdixCgs0tpDkQgO0YkIBT8LsBFVB2UxERn6VtW/+PX36yF6UfJ6yaAMzrceuHk/A2/kkhvFura+4I5mYNhqbrSFkk5Pt1IAXgs8GC70nANja47iae7FyS06sXxDegsnAWYDcAlMKCUjZFjegGJMFJS7BwjKVNHDBgwsHqmqEQPSdMhp8LDRbvwy/+vmj9oYP33fH7F+6nljIIDnVo8sBZoNpxVA+6hgCcua0CAR5fBinsW0LCJhYfvBTwztAO4ehAVwBubamc7Tr2yDcec5I6NgxeADbgzpEjl9w6cdzyOX/4wwEtFAMd00SGgr6YN/cOMrj0KqL6vGRf9RHy9rpPyKETJ0nAm0a0CCfXDR+p/+CG629/5tWX7/i0pXkgVzxDdJyUDG3XXmN6vmpyFfQiLlBNrvwCWzVdpOfjpcHRIPW1J0iwpQVcZdsuOpylFGC1Yowr79d8+2u3O0mJE6HJ8lNiMOHnjNcqKo1hmhIMk7RwhIwpKiTXT5pM+hT1Jgb08T2Hq8gn27eRo6dPk2aXm6gxQU3VlW4wOkiXvZITA2cq49iVvMPlkSgR2NhxT0xKCawP7duD9i7lRKB7LqgRyQy7Vu7/3lfbEPHEfJDT9sdl2GulSINkUG7KMJ3hDG80jtAA+MYDDnPgICinJuEmJxrVIS8OJJlADugHvAbkFzhZGKDwxGZxdIQIhPSd5LvaUI5gKzlec1i+J9f5wAIgAdgWCsnwpYea62pfrX7k29+1j0N9Epnlh8AGQGNIsYuBH29CEBYD99dSICqGtYKzNZgBjQ4xAZIFHowJ+4YKpEB7K0CaAn2SMV0SkCgJHYFtD+DessjQSXSdpOfkkqz8PkSDOlhATOcCbgxthn8tbkWM1tCOD777rb/KQw7O7Tr/DSBVFHQQlI5skKLGUFhOFsb0+FzVZAOf32An1S0czrCiWkP1zqGUvucclvi7IAIlzw7avhioIFAqcI1BH768MvjqMaBanX+f4Kiw5APUEj7n56QlLxh6b8Gse5c7B86gRxIh30KS0KAXQ3wAah5NPT61k/HDJSBVAxzGNXZ+XOQrV2m6nLGOjy87A6iUooyHsjIytj351btf75ueudo5dAbMArHsacD/MYTiTnGQELbls2toUGzgRIHnFvbpI50NJwpJOtzQU/JMPXSs6fiOXtlZawqKsy8wSvjPRnoegADdsohHg96sgTigSwhpti5OTMWAM0eo7oJr4sdVkkuE7CCwGIpoyCj0ffC7W2etmKrqF32hhxEeO+xsS6BX1HaJAx9k4Cu8KP7n5rHTsRJYjbbHUPTjwM2zARvswTmYluiC10yPcaIHWogqB/cguJcSAQ0JbitWPDHgdB5KBg0eShT1ykZtsHxYRymtsAemC9P8hYry4czCwoXXFZdssHNeCPq/P1r9T39Y/dGXLNPsBUaPoXuHkAYQ1+jv2wlQSSACfXRsDfiVH9qCQ/Gq47YCxxmqCXkS6GToudKNlUqEQRuKYtWjEN1wg+FsX/yCFZMVhPvFmoPEHQoR3TRIekkJSS8uJcKbTly5ucSVnStthl0SpwCXAUoPXluHjcq9+6ADxZwjiSF+N+yA2HJ4TcXi/l4e/YPbBw5ZPK2ocO31Zf3wscBFQRdXVRc8/NLvcg3DcGGDMRy5xEojEW2WOBTseZAB0yQRbY4hkCj8GhqmYz7ThPgB8t08fFThmF5973nx7XfmBCPBPN10E1NpX6WxsfAuMvY2Lfkkj4IqcZWVEFfffoS604grJ4d4IDZAys82S/uAhppC4Flz8BCscWpRYudjbizjmdktkABxlr9Xhr7mgYGDXru2T9ln43pd/IFYHFjqlGD+Cy+UELfnpy+t/2yOGWp1EwEeD4vbrLbFiDfC2TSUO6wcDk+ADpJvilKXF4goJa6iXkTzZRItI4tobvvr0bYstw94F6kygdy648dJtLnhgs7VXuA3O4CApjRiVQ/yZWyZO3TIW/cNG7bWp8oHZF+Iti3QqZg1/+mrgqb55yOtxrXM4MRUQRrORNVti3EhEdiwuIdH0BZoLjdh0Piu4n7EXVBAVLcX0uFaSFQHgY2P3346VXXQHp2VXgwOrNmdAD9RYafivpDjaKiGoEvYL9Nz3qJFItX9M9N3jigq+Kg5FNzwmxvnnHB7Lk8CImVETJw/fwBUZkkT85SjIBhqGGqX4CeQUCVC+2jeNKJmZRMdpEFN9yE72BxOpo4BicBuUbNvjwz28GMo8YFI7AA46ozbKD24qJZGYtIcRQNZRBy/Kitre7EvYyVprN/6w5tmnuiXm4PP8tuNKyt9Arj1pZcHmIIsqeVaOQ5HWUoYKp84EdgI6G4qmRlEB7sgXU+oht1kHQcSocD1jx84QLgBkoAjs5rtFuMPfuYUbZ9BeD0srV5OrII0T0in9J2G5sDHXxowoPYbU6edGKUpHfoAY8qImPnyggEmpUtOUr1cYxoY2zAIfmJEYM/UXDphLg+h+LEsD6ydkdZkSAS+2+Tft+skeMdh+VEmYSEFOPMdxACOU9FcVlC4qZFbn50K1Pon5xVGS9Kzdj9707Qr/vpl6ohYtKjUFOyVBj1zGn4rQ+UWvvDiHG0/0CujbnB95ZcF8PwrqwIOl4RVSjRwnQpJpKK0pW7FxydPbj5NWYxFDamSdBBDdOvBZY5OLi09cef4CYdm5Cemei6HlBHx7L69ebWhyKNbWq1vQr0K8EUTVDOJQno0GKsACYkHbxdCk0SAVJl8740Z7sX/PnzQEjejleChtf8hTRJgy3UKMHng4Kbevfuu4G61DiNYyw3qSdcTXuQ3NjTwVZJAAgLHrYAMvyliz1zXt+TPXoUdSDUJiJRJBGLcxs29wKyu0ExXeUyFwAxdoA7AftULlysHztF1G+yTtdeN6tJ/k5kyiUBkRCPcY8SCJtVwgpVs0I4syYRFaQN4qq85u12GlBLxpays6Gi3eztnBlYeEO/ZHVmSAkvhZO/H14962dnvMqSUiO+PGhmaW1rybqbRWoGj/90ADW5LLHG2uxQpJcINRvBvNac+G6u5N0UYBffPJqM9c12TAbwLDttjWAB3tSwmPl87pfz/4l5XI6VEIL5SPix066ghbytEVNjPOFInGajQHOplxeHWHRvz7gSknIgiRo2fr920cVQktlG1on4ICCCoSprOvyxiEMHh/9bGD296o6L9M+s6GSknAvHTa8bGHigrXprV5H/VdNEGfEKGD386H/jFHDmWa4ZIpN4TC65zDnQ5UqcXLoE79xx48WRjdB748zm4j3OLks0Jaj+sKI4bwa/FqXrKG215cc20SU/bOboeXU7EKSGmzNyx7VuesH6rImgOTsTCfyOQ3Jna9pAgEGFxpgQVRaxbP27UbPtY90CXqKa26EXpp99JK3jBp9O3TGY12AYV/yZFLCygIAIEh4hgrYzSWi8jn17H+HrneLdBl0tEHDV1oSn/sW/LtyrV9FkxomZQRjUc4LvwsScW+bIk4aM1HC+qhdyfg3RFOLPMUc2tVc/MnLiykKofylzdCN2GCMTp+tYpT+3fett24h5PPL5RNEayTYETnOOzReAHFL4c6pCzV21I+YGa4ONMcIctMMjHwDHawSlftWli94gTLoduRUQc1UJMe2zj9ntqOJ/LmZojnxlDOj65xA9Y4vCIPUSCJMAPxbdOBMRnSARrZJy8uH5K+b/ZOXoGuiURiBZLXDv/04337FJdg4OK6o5FDaIzLZ0RtcxkZg5+mV5O6+Ec/11FrWmJIybhMaZpLSZT39sxYfgLzqV6BLotERfDplZj/L66ulsPNLeMqwuF03C+lKoqDQVp3q1XZWe9+80++R36bybdAT2KiDiOHa8dzrnVKysrg6Snp+HTtCPOoR4KQv4/mChb5odYioMAAAAASUVORK5CYII=;" parent="1" vertex="1">
                    <mxGeometry x="225" y="206.5" width="58.22" height="60" as="geometry"/>
                </mxCell>
                <mxCell id="gqOmW5GyDEAlzpihz6fX-11" value="&lt;font style=&quot;font-size: 11px;&quot;&gt;Uploads/&lt;br&gt;Created&lt;/font&gt;" style="text;strokeColor=none;align=center;fillColor=none;html=1;verticalAlign=middle;whiteSpace=wrap;rounded=0;" parent="1" vertex="1">
                    <mxGeometry x="95" y="269" width="60" height="30" as="geometry"/>
                </mxCell>
                <mxCell id="gqOmW5GyDEAlzpihz6fX-12" style="edgeStyle=none;html=1;fontSize=11;entryX=1;entryY=0.5;entryDx=0;entryDy=0;exitX=1;exitY=0.5;exitDx=0;exitDy=0;startArrow=none;flowAnimation=1;" parent="1" source="gqOmW5GyDEAlzpihz6fX-26" target="gqOmW5GyDEAlzpihz6fX-7" edge="1">
                    <mxGeometry relative="1" as="geometry">
                        <mxPoint x="819.1666259765625" y="300.83331298828125" as="targetPoint"/>
                        <mxPoint x="725" y="430" as="sourcePoint"/>
                        <Array as="points"/>
                    </mxGeometry>
                </mxCell>
                <mxCell id="gqOmW5GyDEAlzpihz6fX-13" value="" style="rounded=0;whiteSpace=wrap;html=1;fontSize=11;" parent="1" vertex="1">
                    <mxGeometry x="409" y="343" width="400" height="98" as="geometry"/>
                </mxCell>
                <mxCell id="gqOmW5GyDEAlzpihz6fX-14" value="" style="group" parent="1" vertex="1" connectable="0">
                    <mxGeometry x="709" y="360" width="80" height="60" as="geometry"/>
                </mxCell>
                <mxCell id="gqOmW5GyDEAlzpihz6fX-15" value="" style="dashed=0;outlineConnect=0;html=1;align=center;labelPosition=center;verticalLabelPosition=bottom;verticalAlign=top;shape=mxgraph.webicons.adobe_pdf;fillColor=#F40C0C;gradientColor=#610603" parent="gqOmW5GyDEAlzpihz6fX-14" vertex="1">
                    <mxGeometry x="40" width="40" height="40" as="geometry"/>
                </mxCell>
                <mxCell id="gqOmW5GyDEAlzpihz6fX-16" value="" style="dashed=0;outlineConnect=0;html=1;align=center;labelPosition=center;verticalLabelPosition=bottom;verticalAlign=top;shape=mxgraph.webicons.adobe_pdf;fillColor=#F40C0C;gradientColor=#610603" parent="gqOmW5GyDEAlzpihz6fX-14" vertex="1">
                    <mxGeometry x="20" y="10" width="40" height="40" as="geometry"/>
                </mxCell>
                <mxCell id="gqOmW5GyDEAlzpihz6fX-17" value="" style="dashed=0;outlineConnect=0;html=1;align=center;labelPosition=center;verticalLabelPosition=bottom;verticalAlign=top;shape=mxgraph.webicons.adobe_pdf;fillColor=#F40C0C;gradientColor=#610603" parent="gqOmW5GyDEAlzpihz6fX-14" vertex="1">
                    <mxGeometry y="20" width="40" height="40" as="geometry"/>
                </mxCell>
                <mxCell id="gqOmW5GyDEAlzpihz6fX-18" style="edgeStyle=none;html=1;fontSize=11;startArrow=none;flowAnimation=1;" parent="1" source="gqOmW5GyDEAlzpihz6fX-24" target="gqOmW5GyDEAlzpihz6fX-21" edge="1">
                    <mxGeometry relative="1" as="geometry"/>
                </mxCell>
                <mxCell id="gqOmW5GyDEAlzpihz6fX-20" style="edgeStyle=none;html=1;fontSize=11;flowAnimation=1;" parent="1" source="gqOmW5GyDEAlzpihz6fX-21" edge="1">
                    <mxGeometry relative="1" as="geometry">
                        <mxPoint x="709" y="395" as="targetPoint"/>
                    </mxGeometry>
                </mxCell>
                <mxCell id="gqOmW5GyDEAlzpihz6fX-21" value="" style="verticalLabelPosition=bottom;sketch=0;aspect=fixed;html=1;verticalAlign=top;strokeColor=none;align=center;outlineConnect=0;shape=mxgraph.citrix.process;fontSize=11;" parent="1" vertex="1">
                    <mxGeometry x="558" y="368" width="52" height="62" as="geometry"/>
                </mxCell>
                <mxCell id="gqOmW5GyDEAlzpihz6fX-22" value="&lt;span style=&quot;color: rgb(255, 255, 255); font-size: 12px;&quot;&gt;Split process&lt;/span&gt;" style="text;strokeColor=none;align=center;fillColor=none;html=1;verticalAlign=middle;whiteSpace=wrap;rounded=0;fontSize=11;" parent="1" vertex="1">
                    <mxGeometry x="539" y="411" width="90" height="30" as="geometry"/>
                </mxCell>
                <mxCell id="gqOmW5GyDEAlzpihz6fX-23" value="" style="edgeStyle=none;html=1;fontSize=11;endArrow=none;flowAnimation=1;" parent="1" target="gqOmW5GyDEAlzpihz6fX-24" edge="1">
                    <mxGeometry relative="1" as="geometry">
                        <mxPoint x="599" y="353.43820681799696" as="sourcePoint"/>
                        <mxPoint x="608" y="396" as="targetPoint"/>
                    </mxGeometry>
                </mxCell>
                <mxCell id="gqOmW5GyDEAlzpihz6fX-24" value="" style="dashed=0;outlineConnect=0;html=1;align=center;labelPosition=center;verticalLabelPosition=bottom;verticalAlign=top;shape=mxgraph.webicons.adobe_pdf;fillColor=#F40C0C;gradientColor=#610603" parent="1" vertex="1">
                    <mxGeometry x="419" y="379" width="40" height="40" as="geometry"/>
                </mxCell>
                <mxCell id="gqOmW5GyDEAlzpihz6fX-25" value="" style="edgeStyle=none;html=1;fontSize=11;endArrow=none;flowAnimation=1;" parent="1" source="gqOmW5GyDEAlzpihz6fX-16" edge="1">
                    <mxGeometry relative="1" as="geometry">
                        <mxPoint x="755" y="240" as="targetPoint"/>
                        <mxPoint x="735" y="530" as="sourcePoint"/>
                        <Array as="points">
                            <mxPoint x="765" y="390"/>
                            <mxPoint x="835" y="390"/>
                            <mxPoint x="835" y="240"/>
                            <mxPoint x="755" y="239"/>
                            <mxPoint x="735" y="240"/>
                        </Array>
                    </mxGeometry>
                </mxCell>
                <mxCell id="gqOmW5GyDEAlzpihz6fX-26" value="&lt;span style=&quot;background-color: rgb(255, 255, 255);&quot;&gt;Send Split files to Power Automate to&lt;br&gt;&amp;nbsp;upload into sharepoint&lt;/span&gt;" style="text;strokeColor=none;align=center;fillColor=none;html=1;verticalAlign=middle;whiteSpace=wrap;rounded=0;fontSize=11;" parent="1" vertex="1">
                    <mxGeometry x="585" y="221.25" width="150" height="36.25" as="geometry"/>
                </mxCell>
                <mxCell id="gqOmW5GyDEAlzpihz6fX-27" value="" style="shape=image;verticalLabelPosition=bottom;labelBackgroundColor=default;verticalAlign=top;aspect=fixed;imageAspect=0;image=data:image/png,iVBORw0KGgoAAAANSUhEUgAAALUAAACsCAYAAAA9iu36AAAAAXNSR0IArs4c6QAAAARnQU1BAACxjwv8YQUAAAAJcEhZcwAADsMAAA7DAcdvqGQAABQTSURBVHhe7Z0JdFRVmoDvW6qyVhKyQUwgEpBVCEkETMImgqAiNmOP2i1003Zr06PT3TqO44xO92nm2NPjzHjGHtrTzpwj2O2GgwttZBPDGmURCRCzkH3f96UqVfXem/+vesFADKmQqlTl1v/1+X33/u91olVf7rtv+5/ACGKCs3qXbQossiDSsC/iPwhigmOEWORsEoQX0DTtAkQHxEI9NSywzRP6thhv6ukhwGgd/kauMq2nX9P0FEGMHyBnOMQ0XOqpYYFtUOrBDCs2rMOfq9GcmvB5wNNpetOBIAhVenMIuK3XpIbdxYXsrYZkvXvDwM95BBbPOntXOAE/+0m9TfgZ3pRaA/Hc8vvhZw2Zm8HPvqg3h4B/UHpzOLZc7/9P+DbjLjUIZYBFJsQRiBOYuxatqZepxS2MmW1PHntzrtvlgn+H5XpzOCpB6mF3cYRvM+5SL3v0nVVqU9XDoinyp3rqGyS5XoyatV80JRzVGqztzGK/CFKTXMSo8KjUy7bsCtY6WzKVy+duUzubo5koGYTA4CSmqouhHatv9g0CyxdDEx+XIhedPZn9Q6uevULGwu2r1N6yFWpfzYhHzYNQIVrO1B/+N2eX4B2PSL3qX4tM9sLTafbcI0u13s50rd+cyuy2YH01nig3OZtDKDJMuesf5Zhl2ccOZXTqOQcr1p1KslW8/ThIfb+mWGL0tCs4pIb4C0Q/JsZABESUs8kd9RB9zua3I4SE94uTE7/+IuflvXrKJ3G71A6h806usF868aDa2bKaWS04qg4n8bV0g9B7pYjk3WLw1BPHDtzmEHvl+i+TlI4L99saj3xPszQsgFQg5keBAtGtL8dCEMTAHydv4OczZO94FZJsFwJDC8SEW/4U+PA/HDuyLaJMX+Mymqa9CIvXrndabqy4RWo48NoAi/UgcLnti49rbGcP3Ku2N65mqhLv3MJ1hICoWikk8SyTIy7AR9DrSKrWKaq5JkOzNM3XFLOrfyCEJxAlsxAelSsvWLHHeMfDH41WbJAazzxtAak9dnbJXVI/AQLvUKoKG6z7/rdQqS2ZB/2hc2YXEeTgbiaFWJgg4dQBpZY0e08oLEc7QhOewCF2TI0xc2OhIXMTjrg4vduTvdWQ51h/HcZDarfd0ARzZ6aU5kaqDRWLxyI0otn7TFp/cwxMNSY7wtoWTUL7EKoSpHW33WIvPn+f2lz9BGT+HsMxuI3MWxCVzqZncJvUalM1U4q+NGq2/hA9RfCM3crUmssMjp2wh8cZP4C49sruEGCEfgniqpMA7sYtUqsN5SB1FVPqSvQM4Q9o5h6mFJxmWne7nvEN3CK1Ul3E1EbYoyh2PUP4BarC1K5WptRe1hO+gVuk1pqrmdaFxwreQZACmWCMYmJgLBxk0uxnXLFanAOaD+Ge6Ud7I9P68DTn+CPIJiaGTGdydDqTY1YyKSIZcqH6WsLjwGittdTpHd/APSM1CI3zK28gBESBzMscIUWmMXnyaseS8F/cIrU3EQxhTAz+5h5yQQqGkTtJ7xH+yISXWlMsTNMGHaBiW7XoHcIfmfhS9zcxpe0c06wdTLN1MdVcx5SOkZ4BIHhm4ksNMtubjjJb7V5mqz8Iy4+Z0pmvryX8kQkvNaLZe5jSVcCU9nMwUtfqWcJfcZfUdNWFQEJX77KZIPAWXa/hLqlbmaqU6m3CfzFBnIR41dHzElxMPwifAR+qng8xz9FzI5qmPQLxsd69LiQ1MSEQBAFvWX0NxD7uzAwPSU14Aq8+8kZSE+5GgpgLIyoWdFwLITvTYwdGayzXe5+z55iSLIQYclGCpCY8AYqND1xjMUe33jY5+AEDaOMjYVckH2BUUq/eZUuB+DNEJYQrj+5MeMSgeCZHLWVy7CpnRC5mQsBoKjT4NWN6rM8VQOwhT6W7JDUInAyBtR5wsr4eAu8gGk1BmQmJFD6XGeLWM3nynUyOWe4M6Bvi1jEx5GZ9K/9Gw/upm65b7eA4ThEghvUF1u2AGKkUnMu4OlL/HOJ2iLkQr0OsgBi2TjAviCEzmBic4LgTEB8+GAjRdAuTwuboWxFqdxtTaov1nqO2SjnEbyHQE6w+O1IFWiwS9CaIjaU2xoyrUuNuZGBXUpW91YClcvmvcScanXENAk4ZJa9eNPMtLFjQ8yu946AN4vcwNTgxKEZ62Bb3/onO5tgYIjVMM96E+BjiqkLX/ohqrmaabeh3oVrbmNpXo/cInILY83IcZTJ0FJC4UW+7wksQeMDn0sWVkRB1gQfPd3Bug7sB3CUM8DwE/lK3/eKJgNpZwGwNnzJ7S47j9lYMbNsbP2NqV4G+FYEPXKtt9cx69D09MTrgD+AiRBaEW/b+OFKPOI/BAuQQWXrwP+3Qcd79Vwgif85szccdgW2l+7JjHfENmqWPKQVfMNvpfXrGe3zbnPqfIHBi71uPCHsLxcy0/lb40hqdAW3MEdegqUztaAapP2H2rw4b4aAvRV/jcfDMCp5B0btMgKnHEzD6/kHv3xDpmU9/V+tq/Z3aUjtDTxH+iiQpYsTkztS0WTu/TrwbTwHnHdueZnOu9AwoNSw2wPQFf597CkSC1PdpnS0vqq11WGaX4At84BPfTTiq0z1CQFCpEB3/KevpOCnNy8gXQsLyTv55q0flHsAtUm9Y+3Rad2PjM+bmxnuhi/fU+iJ4aB4eYgpuvmnqFFtkTCQLDDLiUYpzLTGEvh5zf0tDS01DbZPd3GfBR/QjIUbz/TYJAcFNgmnSMbW96SJTbNevf+0EC+Pnnqk/fMNH4m75Rrc98HfhZYUVWzraOrH6pa+dCsSncqqDQ4Pyp98y7aaYuOjcKfGTCxakzWOTosPxyNu5FTGE9pYOc3F+WVPO4dPmuuqGVLtNSbeYLThXHu3l7yaIgRF/JLAmeTYEVp50lnJ2gn8QtSD7OWd3eNz2jS6JW4OXz3Gy7kvzarsoCpcnRU/6EIQ++uOnN5tS05MrQOTz+nrCRX7zi5fCWxpbV5UWVjwAsq9TlLGVax4BPLXUATH4zQ8odS7E+xCKYAyyi0kLmgMferb8yLaIq0pE8Sy1GYSuMYWbdi9be/s7v37lWXrEfIwc3Z9jOpeTu+L4wc+3NNY3r1UVFacj4wmO9s0QViaImhg5pVxevP7/DEvv2Qti497AAd4i6BbiTUkzYXEPxHj/h34bNkmW6kJCg/cuvysdhR6xwj0xMrveet3636/+viEwKLC3qqw2FObZ+H7xAH31eID3ZuOZDnBMi9QsPYlae2MEzNu7Z/zkj/UVWb9zvE7F1Xs/JhSiJPbLsnxpxbqM3SA0VbZxI7Nvndm9fF169ua/+eudEZFhByDlncqgiKbJalt9pu3kh4/a805euYjIpdSBQQHKvJRZbSD0GT1FuBEUO9QUcvK2ZSnvGgMMeEDnylkNz+AQu26p/cyB9St/dS4aU9xJDQeBSnRsZNuTzz9GJRs8yIaH1nUHhQSdTV6yoBC6I92B51lU1aDUFi9QG8q/g13upA4IDLBExUZeuDV1Lr77nPAg9z9yN1u2ZqkRBhJvFwSHY0Nthj0v547Vu2yh3EkdGhaiJi+5tQk+6Bw9RXiI+YvmdMRNnfyZKSwUyxZ4t0qXqopKVUGCZrUs5U5qmE+z+Sn4gA7haWDg6M45fPrU9NnT8OzSlVNqXkPTHG8M405qURRhtOb1Tcu+R2xcTODU6Ql4z89Nzoz34U5qYtyRJUnyGaERkprgDpKa4A6SmuAOkprgDpKa4A6SmuAOkprgDpKa4A6SmuAOkprgDpKa4A6SmhgrdlVV2/W2T8Cd1PABM4sZ66EQ40FTfbOltbkNC8+0OjPehzupUejKkmq9R3gSTdNMcxfNnlWSX4ZlnwOdWe/DndQ9Xb3ipXP5UfCBz9ZThIfIzy2MsPVb72prbs+ErlvfwjUWuJPaZrUaSwrKp1eWVt+mpwgPcebEeaEorzTMblfC9JRPwJ3UiqIK7S0dgcf25/jUB80bR/fnBJUWlN988vApnHoMrnnndbiTGunp7hU/+FNW5Mu/etWnnsjghaK8kqCC3KL5FSXVGztaO5dAyqdeP8ij1LKqqImNdc1rL32Zf2/W7oMef0GlP4FCHz/w+fy8rwo2VVyuxKpIPnfswmstPQMcKCbAAUyMxWzpv+fOjc1HT3/q3YIrHAADhOnU0S/n5p6+9PDXXxV8x2q1+ZLQGhPEakPqncd4lRoRQey4uqqGKMVuN8yIndv/ny//B3t7z5v0BqJRgKftHnlwS8KchOTogx9mJzXUNG4s+brM14RGrkjNe31qBN/pVzUpKrxifsqcwyc+PXUwNSO5PS09eRKsozd8Do+1tamtOyAoIF6SxNUNtU0JX31xUYK9Xxqs88XTpQoTpZygH/92uz9IPQAW8MbX5VUkzpx6fsbs6QuNAYY46HN5sDxWVFXt6mzvKqmpqJPbWjoWm3vNUyCNl2pxMPBF/FLqwTRA4AEkCX19Bsr0+up7fAZzRWp//VJx1CGhRwZlnghCXwV9sQR3kNQEd5DUBHeQ1AR3kNQEd5DUBHeQ1AR3kNQEd5DUBHeQ1AR3kNQEd5DUBHeQ1AR3kNQEd5DUBHeQ1AR3kNQEd5DUBHeQ1AR3kNQEd5DUBHeQ1AR3kNQEd5DUBHeQ1AR3kNQEd5DUBHeQ1ARfGIwkNcEPQlCoVYyZ2kNSEzxgZ5LcK9+6rOjItojT/iq1XV8S3mG4zx8L41tHFaJkgSlHhxgWtde4/kfvQo75Y9F1uyiKZaIkJsJSFgS3fQSEC2iapqqqVmtnYix89sF6GvMKU5VqptjxHdw2Z9YFJFk1pK4pN97x8NtHnko4iil/lHrfyvUZ2TPnzrjtpmmTb54cHyNKktve50SMTH1NF8vfeV5Nbzdr+A7GAbFrIN6H+OOx7WmFjswN4g9S22BEKJoUGd7zwNaN1Q89tmlnWLhpv76O8BKrd9leg8X3IAbeVFAK8Vz2VsMeZ/fG4X1ObYZR+MOU9IUvHMjbk/7YMz94kIT2WXAwnOxs3hjwhxIOofEsdbcsy/uX33X769De50wR/gCv048+g9FwNuX2Bf8VMyU669evPEtnO3yMQdOPdoifQzgO8mD6cdWbiWG7J2DxorPnEuFcjtSiKPYZjYYLQcGBh0honwffzWhFma8VGoHcH2CxcBSRyONI3RcWYfr8gR/et+Nnzz26V88RPsagkboe4hcg7wHMuwPuRmqYdigGo1wxdXq8Y3dG+Dw4CLr1XY3cSR0aFsJSbk9WNzy0bsiujPBJ8CKB0dl0D9xJHRwSzJasSNV7hD/CndSiJLC4hDGd7iQmONxJLcD/ZANd9vZnuJOamDDEQVy5ocmdkNSEt4iA8MgulTupzX1mW0NNU7feJSYoq3fZNkDsGBRPQiTpq68Lb1LbzX2WprMnzpfrfcJ3wYsvz+txCRPXgFcH8RL5QDwD8QKI/dRIcvN2RdEqSmJZWIRpx6G89/HyKjFBAXGXwwKdGgAl3wDRAoFXissgKrO3Gt6C5VXweJm802CQd2fcueRf/n3ndrzxnOAAkBylftzZuwLeL4Ij/VXwKLVNkqWiecmz/vKjX24+nHnnkiJBEOr0dYQfwOPZD4NiV2YX55dtPpeT+88tja33app2k76O8AN4PaVn6LdYp33y3qHl2VknHikvrho8NyM4h9eHBBzgk+Km8FDL3d9d+0lDTcMvaY7NDzDHngYLnGdfBcyxs7iWWkcRRbE4aXbi6yUF5Vmz5s/oWrk+Myw1Y2GAvp4YX6zNvay9s5+1PLRhkeulEK5Bl3o3BF6ZTMQcgAeOEf4gNYJFUiogqqbEx55fkDYvZeb8pFhJEumK6jhjt9lbKuu6Prt46vyx2uLyDj19Lfi0UsOZ+sN4+m5YQGy8zL4K4jlHwin1ff4i9WDwTAgdOHoXnAZ2QaiO3lDwijCei34PArfrBMFdfizPbdfe401JM2FxD0SkI+G7uPUpC+KGCIOIgYgdJqZCLIZYB4FXD5tqe8pcPi3rjyM1MbGohXgDAt3SMDGAIBuZYflfSYaMjZIQOsmRg+lHFc0pCV8nHuJvIQ5BZA0OTbFl2c9/lqX1dVWC7xDsIgSN1MRER2DipFgW9LOXmWCKxOdSp9JITUxwNKZ2t7P+D17BDh4vnSGpiYmP3cqUsotMqfgafZ5DUhNcAPNrZjv9iaNNUhN8oChMKT7naJLUBD/YYBpSVUhSE5wB82uSmuAOkprgDpKa4A6SmuAOkprgDpKa4A6SmuAOkprgDpKa4A6SmuAOkprgDpKa4A6SmuAOt0i9ec1Pw40BRnycl/5ICO8iyV1ukbCxrnmmwShnQjPEmSEILyBKnUJwWM6Ypc7afTBc07RZvd196dDFQiQE4QUERQiPuSDGJOwYs9SXzuVPi5kSjfXMEpwZghh3FCaKPfKs1DPZWw37xiT1O//zfvDZE+fn1lU3ZECXRmnCO4iSTTBFXjSkb/zI0XUkb4CivJKgwkvFCw1Gwwpzr5mEJryDINgFY0C7IW3tl0eeSsjB1A1JDULL5Zcr51SWVN8PyzWQIqmJ8QeEZrKhQ5x8837j2i0f6NnRlx2DKYfBFB6a8v4bHz94Oa90k83m2gsbCcKNwBwaphyGgHZxys37A7du33lkW8RJfZ3rpXyzdh809FZpgVExkakfvbXv+6WFFRtVVaW6ecR4gEXzseKpxgQRDwq7BEnOlVPXHA3c/MK7R34SctyxlY5LI3V65tNBj30/I/3koZyNpQXli2EOPQfSvl6HmuADLMzeAj6Xg679gmzok2YsKjIs2/TJse1pnzo3uRpXpd4Gi00QaRBRmCOIcUGS24WQ8ONi7LQ9YlRcvTR1TgccEDpLMX0rjP0/4c9wuYyp74cAAAAASUVORK5CYII=;" parent="1" vertex="1">
                    <mxGeometry x="593.2099999999999" y="330" width="31.57" height="30" as="geometry"/>
                </mxCell>
                <mxCell id="DuzfVTNrhWFQleXuE4cX-3" value="&lt;font color=&quot;#f40101&quot;&gt;Note: DLP policy violation&amp;nbsp; to use SharePointOnline Business Connector along with non-Business Connector&amp;nbsp;&lt;/font&gt;" style="rounded=1;whiteSpace=wrap;html=1;fillColor=#fafafa;fontColor=#ffffff;strokeColor=#6D1F00;" parent="1" vertex="1">
                    <mxGeometry x="10" y="540" width="650" height="30" as="geometry"/>
                </mxCell>
            </root>
        </mxGraphModel>
    </diagram>
</mxfile>